<?xml version='1.0' encoding='utf-8'?>
<!DOCTYPE svg PUBLIC "-//W3C//DTD SVG 20010904//EN" "http://www.w3.org/TR/2001/REC-SVG-20010904/DTD/svg10.dtd">
<svg xmlns="http://www.w3.org/2000/svg" version="1.0" width="512px" height="512px" viewBox="0 0 514 514" style="" preserveAspectRatio="xMidYMid meet">
  <g fill="#ffffff" stroke="#000000FF">
    <path d="M 233.940 26.100 C 205.723 49.205 204.000 50.790 204.000 53.634 C 204.000 57.269 205.527 59.562 208.871 60.947 C 211.127 61.881 212.328 61.895 213.991 61.005 C 215.186 60.365 224.897 52.653 235.570 43.867 L 254.976 27.891 373.238 123.999 C 456.683 191.812 491.875 220.990 492.774 223.106 C 496.205 231.180 486.209 242.775 477.667 240.631 C 476.383 240.309 426.996 200.629 367.917 152.453 C 308.837 104.277 259.521 64.385 258.324 63.803 C 257.127 63.222 255.102 63.009 253.824 63.330 C 251.616 63.884 224.029 85.831 221.125 89.343 C 219.066 91.834 219.464 95.800 222.049 98.552 C 226.060 102.822 228.414 101.888 242.326 90.508 L 255.151 80.016 268.979 91.258 C 276.585 97.441 315.448 129.050 355.342 161.500 L 427.877 220.500 427.939 333.750 L 428.000 447.000 255.500 447.000 L 83.000 447.000 83.000 334.156 L 83.000 221.313 93.738 212.397 C 99.644 207.494 104.634 202.663 104.827 201.662 C 105.846 196.371 101.252 191.218 96.565 192.394 C 95.217 192.733 82.726 202.364 68.807 213.797 C 54.888 225.231 42.032 235.668 40.237 236.991 C 33.627 241.862 24.835 238.371 21.460 229.535 C 18.690 222.281 19.640 221.081 43.854 201.244 C 55.723 191.521 66.262 182.738 67.274 181.726 C 71.816 177.184 66.578 167.621 60.649 169.632 C 59.242 170.109 47.444 179.220 34.431 189.878 C 12.806 207.590 10.556 209.728 8.260 214.743 C 0.252 232.234 15.483 255.748 33.453 253.638 C 40.193 252.846 50.828 247.403 60.000 240.050 L 67.500 234.037 67.755 340.518 L 68.009 447.000 53.186 447.000 C 35.299 447.000 30.315 448.210 23.502 454.207 C 10.765 465.419 10.653 484.116 23.254 495.683 C 31.899 503.620 12.095 503.000 257.000 503.000 C 504.713 503.000 482.334 503.796 491.472 494.659 C 502.983 483.148 502.983 466.852 491.472 455.341 C 484.213 448.083 480.039 447.000 459.318 447.000 L 443.000 447.000 443.000 340.500 C 443.000 281.925 443.355 234.000 443.789 234.000 C 444.222 234.000 447.710 236.782 451.539 240.182 C 469.791 256.390 481.588 259.345 494.337 250.900 C 505.753 243.338 511.172 227.524 506.125 216.500 C 503.737 211.285 500.231 208.145 464.268 179.000 L 434.037 154.500 434.018 116.250 L 434.000 78.000 439.953 78.000 C 447.807 78.000 450.754 76.563 452.081 72.085 C 452.729 69.902 453.018 60.744 452.822 48.661 L 452.500 28.823 449.694 26.411 L 446.888 24.000 407.491 24.000 C 380.748 24.000 367.311 24.357 365.657 25.110 C 361.508 27.001 361.000 29.822 361.000 51.000 C 361.000 63.459 361.415 71.818 362.110 73.343 C 363.632 76.682 367.016 78.000 374.072 78.000 L 380.050 78.000 379.775 94.049 L 379.500 110.099 318.533 60.549 C 273.021 23.560 256.910 11.000 254.974 11.000 C 253.111 11.000 247.184 15.255 233.940 26.100 M 477.961 463.480 C 487.558 468.443 487.558 481.557 477.961 486.520 C 475.460 487.813 447.516 488.000 256.272 488.000 C 51.744 488.000 37.283 487.889 34.973 486.296 C 31.585 483.961 30.204 482.067 29.096 478.231 C 27.461 472.577 31.029 465.217 36.500 462.954 C 37.600 462.499 136.735 462.098 256.800 462.063 C 447.663 462.008 475.459 462.186 477.961 463.480 M 438.000 51.000 L 438.000 63.000 407.000 63.000 L 376.000 63.000 376.000 51.000 L 376.000 39.000 407.000 39.000 L 438.000 39.000 438.000 51.000 M 418.764 109.889 L 418.500 141.778 406.750 132.261 L 395.000 122.744 395.000 100.372 L 395.000 78.000 407.014 78.000 L 419.028 78.000 418.764 109.889 " fill="#ffffff"/>
  </g>
  <g fill="#ffffff" stroke="#000000FF">
    <path d="M 118.360 33.411 C 109.086 35.179 104.919 36.567 97.000 40.525 C 78.536 49.753 64.190 66.655 57.978 86.500 C 54.608 97.266 54.108 115.005 56.863 126.031 C 62.500 148.585 77.169 166.992 97.417 176.917 C 112.385 184.254 112.650 184.288 158.903 184.737 C 181.675 184.959 201.392 184.867 202.719 184.534 C 207.903 183.233 208.215 180.331 207.756 137.572 C 207.368 101.417 207.175 97.903 205.174 90.500 C 197.722 62.932 177.712 42.443 151.040 35.072 C 141.254 32.368 127.496 31.669 118.360 33.411 M 149.275 49.876 C 169.674 57.059 184.008 71.675 190.588 92.000 C 192.126 96.752 192.421 102.433 192.761 133.750 L 193.153 170.000 158.327 169.985 C 130.636 169.973 122.168 169.657 117.000 168.443 C 99.512 164.334 83.761 151.774 76.215 135.923 C 71.117 125.216 69.647 118.748 69.752 107.500 C 69.863 95.594 73.258 84.772 80.082 74.570 C 88.673 61.724 100.786 53.136 116.216 48.951 C 125.578 46.412 140.633 46.833 149.275 49.876 " fill="#ffffff"/>
  </g>
  <g fill="#ffffff" stroke="#000000FF">
    <path d="M 242.000 329.594 C 231.351 331.875 219.499 338.316 211.973 345.912 C 200.659 357.332 196.052 369.373 196.017 387.615 C 195.995 399.398 196.956 400.709 208.747 404.978 C 228.949 412.291 249.471 415.037 269.180 413.063 C 288.821 411.097 310.980 404.572 315.750 399.351 C 317.725 397.190 318.000 395.817 318.000 388.128 C 318.000 376.222 316.508 368.886 312.280 360.000 C 301.093 336.489 270.862 323.409 242.000 329.594 M 265.172 341.005 C 283.909 343.715 298.211 354.803 303.405 370.646 C 304.532 374.085 304.994 378.229 304.796 383.136 L 304.500 390.479 296.500 393.154 C 271.472 401.523 242.528 401.523 217.500 393.154 L 209.500 390.479 209.202 383.034 C 208.677 369.920 214.331 358.433 225.275 350.376 C 236.527 342.093 250.312 338.855 265.172 341.005 " fill="#ffffff"/>
  </g>
  <g fill="#ffffff" stroke="#000000FF">
    <path d="M 243.208 195.001 C 226.849 197.307 209.314 203.994 195.877 213.051 C 192.370 215.415 185.974 220.758 181.664 224.925 C 167.823 238.307 159.441 251.482 153.623 269.000 C 148.987 282.960 147.595 293.360 148.282 308.903 C 148.991 324.924 152.241 337.852 159.078 351.850 C 164.438 362.824 167.674 367.000 170.820 367.000 C 173.652 367.000 178.000 363.173 178.003 360.677 C 178.005 359.480 175.529 353.550 172.502 347.500 C 164.150 330.804 162.627 324.027 162.615 303.500 C 162.606 287.779 162.812 285.827 165.353 277.562 C 169.015 265.647 175.550 253.258 183.320 243.500 C 202.927 218.875 235.961 205.164 266.929 208.797 C 305.769 213.354 337.115 239.740 348.618 277.562 C 351.083 285.666 351.345 288.039 351.418 303.000 C 351.484 316.255 351.127 320.877 349.605 326.500 C 347.029 336.015 342.807 346.153 338.545 353.058 C 334.357 359.843 334.148 362.239 337.455 365.545 C 343.020 371.110 347.092 367.881 355.047 351.594 C 367.197 326.719 369.371 296.727 360.927 270.500 C 355.481 253.589 347.969 241.132 335.194 227.829 C 319.572 211.562 300.690 201.075 278.639 196.418 C 269.781 194.548 251.584 193.820 243.208 195.001 " fill="#ffffff"/>
  </g>
  <g fill="#ffffff" stroke="#000000FF">
    <path d="M 248.000 238.877 C 238.832 241.888 230.805 248.684 226.822 256.807 C 223.714 263.144 223.092 275.686 225.513 283.190 C 229.139 294.431 236.839 304.316 245.460 308.801 C 252.170 312.291 261.530 312.462 267.722 309.207 C 281.931 301.739 290.772 285.591 289.804 268.872 C 289.091 256.553 282.853 247.029 271.784 241.364 C 267.601 239.222 264.833 238.596 258.500 238.357 C 254.100 238.192 249.375 238.426 248.000 238.877 M 263.384 251.230 C 271.449 253.640 277.978 262.729 277.994 271.568 C 278.003 276.380 275.338 284.147 271.894 289.346 C 263.274 302.359 250.726 302.359 242.106 289.346 C 233.727 276.696 234.254 262.670 243.383 255.386 C 249.825 250.246 255.880 248.988 263.384 251.230 " fill="#ffffff"/>
  </g>
  <g fill="#ffffff" stroke="#000000FF">
    <path d="M 127.400 72.765 C 125.710 73.893 124.001 77.609 123.988 80.184 C 123.980 81.702 122.828 83.243 120.647 84.655 C 115.922 87.714 113.668 92.985 114.223 99.679 C 114.493 102.934 115.470 106.160 116.680 107.791 C 119.125 111.090 125.658 114.961 128.816 114.984 C 133.968 115.020 136.761 118.839 133.800 121.800 C 132.041 123.559 128.908 123.257 125.500 121.000 C 119.413 116.969 113.555 119.637 114.180 126.156 C 114.446 128.939 115.382 130.080 119.750 132.953 C 123.790 135.610 125.004 136.993 125.015 138.953 C 125.034 142.060 125.838 143.352 128.685 144.850 C 132.943 147.092 138.000 143.273 138.000 137.816 C 138.000 136.369 139.311 134.454 141.494 132.712 C 148.767 126.909 150.470 117.330 145.549 109.895 C 142.735 105.642 136.550 102.062 131.950 102.022 C 128.971 101.996 127.000 100.329 127.000 97.835 C 127.000 94.066 134.242 93.177 137.081 96.598 C 138.565 98.386 144.056 98.411 146.476 96.642 C 148.672 95.035 148.959 89.861 146.984 87.480 C 146.241 86.586 143.977 85.008 141.952 83.975 C 139.210 82.577 138.104 81.271 137.623 78.864 C 137.267 77.086 136.237 74.814 135.333 73.816 C 133.671 71.979 129.420 71.416 127.400 72.765 " fill="#ffffff"/>
  </g>
</svg>
