<?xml version="1.0" encoding="utf-8"?>
<!DOCTYPE svg PUBLIC "-//W3C//DTD SVG 20010904//EN" "http://www.w3.org/TR/2001/REC-SVG-20010904/DTD/svg10.dtd">
<svg version="1.0" xmlns="http://www.w3.org/2000/svg" width="514pt" height="514pt" viewBox="0 0 514 514" style="" preserveAspectRatio="xMidYMid meet">
<g fill="#000000FF" stroke="#000000FF">
<path d="M 243.996 19.869 C 240.969 20.838 237.144 22.495 235.496 23.551 C 233.848 24.606 184.972 59.988 126.881 102.175 C 60.876 150.112 20.082 180.371 18.115 182.855 C -2.335 208.675 12.085 246.740 44.414 252.278 C 56.286 254.312 67.444 251.228 79.497 242.584 C 82.245 240.613 84.833 239.000 85.247 239.000 C 85.661 239.000 86.000 284.000 86.000 339.000 L 86.000 439.000 59.556 439.000 L 33.112 439.000 30.306 441.412 L 27.500 443.823 27.174 464.600 C 26.816 487.462 27.179 491.179 30.056 494.056 C 31.970 495.970 35.481 496.000 256.566 496.000 C 401.136 496.000 481.783 495.651 482.961 495.021 C 486.287 493.241 487.000 488.383 487.000 467.500 C 487.000 445.790 486.353 441.937 482.403 440.138 C 480.742 439.381 471.221 439.000 453.953 439.000 L 428.000 439.000 428.000 339.000 C 428.000 284.000 428.339 239.000 428.753 239.000 C 429.167 239.000 431.755 240.613 434.503 242.584 C 450.387 253.976 466.378 255.935 481.837 248.383 C 502.168 238.451 511.392 211.243 501.168 191.361 C 495.992 181.295 495.032 180.543 387.288 102.271 C 329.105 60.003 279.925 24.468 278.000 23.305 C 269.241 18.013 254.460 16.520 243.996 19.869 M 335.000 170.312 L 412.500 226.624 412.755 332.812 L 413.009 439.000 257.000 439.000 L 100.991 439.000 101.245 332.822 L 101.500 226.644 179.000 170.326 C 221.625 139.351 256.725 114.007 257.000 114.005 C 257.275 114.003 292.375 139.341 335.000 170.312 M 268.529 35.768 C 272.286 37.693 470.736 181.360 479.744 188.677 C 482.079 190.573 485.229 194.234 486.744 196.812 C 489.172 200.942 489.499 202.512 489.488 210.000 C 489.474 219.580 487.743 224.040 481.838 229.699 C 474.450 236.779 461.472 239.437 452.671 235.673 C 450.564 234.773 406.400 203.203 354.528 165.518 C 273.416 106.590 259.745 97.006 256.858 97.042 C 254.025 97.078 238.887 107.723 160.000 165.157 C 108.575 202.597 64.475 234.156 62.000 235.289 C 48.602 241.418 30.933 233.865 25.521 219.695 C 21.797 209.942 24.903 196.984 32.661 189.912 C 35.293 187.512 236.123 41.519 242.259 37.545 C 249.926 32.579 260.860 31.840 268.529 35.768 M 471.000 467.500 L 471.000 481.000 257.000 481.000 L 43.000 481.000 43.000 467.500 L 43.000 454.000 257.000 454.000 L 471.000 454.000 471.000 467.500 "/></g>
<g fill="#000000FF" stroke="#000000FF">
<path d="M 236.727 184.750 C 235.857 185.713 233.714 190.156 231.965 194.624 C 228.915 202.418 228.618 202.798 224.643 203.980 C 222.364 204.658 217.109 206.758 212.965 208.647 L 205.430 212.082 197.659 208.541 C 193.386 206.593 188.696 205.000 187.237 205.000 C 185.172 205.000 181.751 207.834 171.792 217.792 C 156.957 232.628 157.028 232.423 162.494 244.416 L 165.987 252.083 163.115 257.791 C 161.535 260.931 159.431 266.086 158.440 269.247 L 156.636 274.995 148.568 278.092 C 136.270 282.812 137.000 281.242 137.000 302.964 C 137.000 316.353 137.353 322.076 138.250 323.243 C 138.938 324.137 143.242 326.361 147.815 328.184 L 156.130 331.500 159.972 341.286 C 162.086 346.668 164.337 351.701 164.975 352.470 C 165.882 353.563 165.356 355.640 162.568 361.982 C 160.605 366.445 159.000 371.274 159.000 372.713 C 159.000 374.722 161.942 378.301 171.701 388.164 C 186.429 403.049 186.409 403.042 198.276 397.634 C 205.338 394.416 205.791 394.336 208.581 395.833 C 210.187 396.694 215.325 398.845 220.000 400.613 L 228.500 403.828 231.149 410.164 C 232.606 413.649 234.301 417.669 234.915 419.097 C 236.733 423.324 239.778 424.000 257.000 424.000 C 274.222 424.000 277.267 423.324 279.085 419.097 C 279.699 417.669 281.394 413.649 282.851 410.164 L 285.500 403.828 294.000 400.613 C 298.675 398.845 303.813 396.694 305.419 395.833 C 308.209 394.336 308.662 394.416 315.724 397.634 C 327.591 403.042 327.571 403.049 342.299 388.164 C 352.078 378.282 355.000 374.724 355.000 372.705 C 355.000 371.262 353.479 366.632 351.619 362.416 L 348.239 354.750 351.254 348.125 C 352.913 344.481 355.036 339.260 355.973 336.523 C 357.665 331.576 357.728 331.524 366.088 328.207 C 370.714 326.371 375.063 324.137 375.750 323.243 C 376.647 322.076 377.000 316.353 377.000 302.964 C 377.000 281.218 377.703 282.731 365.410 278.036 L 357.352 274.960 355.555 269.230 C 354.566 266.078 352.465 260.931 350.885 257.791 L 348.013 252.083 351.506 244.416 C 356.972 232.423 357.043 232.628 342.208 217.792 C 332.249 207.834 328.828 205.000 326.763 205.000 C 325.304 205.000 320.614 206.593 316.341 208.541 L 308.570 212.082 301.035 208.647 C 296.891 206.758 291.610 204.650 289.299 203.963 C 285.268 202.763 284.989 202.414 282.391 195.290 C 277.680 182.373 278.971 183.000 257.082 183.000 C 240.474 183.000 238.128 183.202 236.727 184.750 M 269.986 205.789 C 271.545 209.798 273.336 213.699 273.966 214.459 C 274.596 215.218 278.349 216.814 282.306 218.005 C 286.263 219.196 293.040 221.932 297.366 224.085 C 301.692 226.238 306.467 228.000 307.977 228.000 C 309.488 228.000 313.782 226.613 317.521 224.918 L 324.318 221.836 331.358 228.876 L 338.398 235.916 335.197 243.208 C 333.436 247.219 331.996 251.433 331.998 252.574 C 331.999 253.715 333.786 258.100 335.970 262.320 C 338.153 266.539 340.901 273.256 342.076 277.246 C 343.250 281.236 345.066 285.249 346.111 286.165 C 347.156 287.080 351.158 289.032 355.005 290.502 L 362.000 293.175 362.000 303.374 L 362.000 313.573 354.935 316.023 C 351.049 317.370 347.053 319.234 346.054 320.164 C 345.056 321.094 343.245 325.128 342.030 329.128 C 340.815 333.129 338.061 339.901 335.910 344.178 C 333.760 348.456 332.000 352.862 332.000 353.969 C 332.000 355.076 333.425 359.170 335.167 363.065 L 338.334 370.149 331.197 377.285 L 324.060 384.422 318.780 382.113 C 307.445 377.157 307.943 377.154 297.724 382.240 C 292.651 384.765 285.800 387.590 282.500 388.518 C 274.971 390.636 273.246 392.309 269.908 400.733 L 267.226 407.500 257.021 407.500 L 246.817 407.500 244.408 401.500 C 240.287 391.235 240.370 391.320 231.711 388.527 C 227.306 387.106 220.056 384.099 215.601 381.844 C 206.596 377.288 206.107 377.294 195.220 382.094 L 189.940 384.422 182.803 377.285 L 175.666 370.149 178.833 363.065 C 180.575 359.170 182.000 355.076 182.000 353.969 C 182.000 352.862 180.240 348.456 178.090 344.178 C 175.939 339.901 173.208 333.203 172.020 329.293 C 170.833 325.383 168.970 321.378 167.880 320.392 C 166.791 319.406 162.885 317.441 159.200 316.025 L 152.500 313.451 152.216 303.326 L 151.932 293.201 158.961 290.515 C 162.826 289.038 166.844 287.080 167.889 286.165 C 168.934 285.249 170.750 281.236 171.924 277.246 C 173.099 273.256 175.847 266.539 178.030 262.320 C 180.214 258.100 182.000 253.660 182.000 252.453 C 182.000 251.246 180.570 247.021 178.823 243.065 L 175.646 235.872 182.664 228.854 L 189.682 221.836 196.479 224.918 C 200.218 226.613 204.512 228.000 206.023 228.000 C 207.533 228.000 212.308 226.238 216.634 224.085 C 220.960 221.932 227.785 219.181 231.801 217.972 C 240.483 215.359 240.902 214.831 246.324 199.715 C 246.891 198.134 248.123 197.962 257.058 198.215 L 267.153 198.500 269.986 205.789 "/></g>
<g fill="#000000FF" stroke="#000000FF">
<path d="M 247.970 243.012 C 218.842 247.548 196.035 273.892 196.035 303.000 C 196.035 316.432 202.530 333.544 211.484 343.701 C 217.644 350.689 228.962 358.084 238.050 361.060 C 248.721 364.555 265.279 364.555 275.950 361.060 C 285.038 358.084 296.356 350.689 302.516 343.701 C 311.470 333.544 317.965 316.432 317.965 303.000 C 317.965 277.684 300.075 253.204 276.000 245.580 C 267.309 242.827 255.878 241.780 247.970 243.012 M 275.291 261.743 C 283.974 265.822 289.998 270.784 294.496 277.560 C 313.101 305.589 296.952 342.675 263.748 348.178 C 239.755 352.153 215.491 334.197 212.160 310.000 C 208.994 287.003 221.865 266.845 244.500 259.350 C 247.025 258.514 252.188 258.123 258.500 258.289 C 267.352 258.522 269.280 258.919 275.291 261.743 "/></g>
</svg>
