<?xml version="1.0" encoding="utf-8"?>
<!DOCTYPE svg PUBLIC "-//W3C//DTD SVG 20010904//EN" "http://www.w3.org/TR/2001/REC-SVG-20010904/DTD/svg10.dtd">
<svg version="1.0" xmlns="http://www.w3.org/2000/svg" width="514pt" height="514pt" viewBox="0 0 514 514" style="" preserveAspectRatio="xMidYMid meet">
<g fill="#000000FF" stroke="#000000FF">
<path d="M 251.178 17.666 C 250.450 17.968 236.076 30.092 219.234 44.607 C 202.393 59.123 188.250 71.000 187.807 71.000 C 187.363 71.000 187.000 67.028 187.000 62.174 C 187.000 48.119 189.616 49.000 147.860 49.000 L 113.349 49.000 111.174 51.314 C 109.012 53.617 109.000 53.857 109.000 96.595 L 109.000 139.561 74.078 169.531 C 53.760 186.966 38.646 200.669 37.938 202.295 C 37.084 204.254 37.021 205.750 37.725 207.295 C 39.363 210.888 73.925 250.380 76.730 251.862 C 79.843 253.508 83.052 252.162 89.750 246.398 L 94.000 242.741 94.000 331.721 C 94.000 394.108 94.330 421.649 95.105 423.872 C 95.713 425.616 97.033 427.483 98.039 428.021 C 99.194 428.639 133.445 429.000 190.934 429.000 C 241.020 429.000 282.000 429.354 282.000 429.788 C 282.000 430.221 279.709 432.808 276.910 435.538 C 270.595 441.693 269.571 444.053 271.371 448.298 C 272.117 450.059 279.069 457.688 286.819 465.250 C 304.190 482.201 304.217 482.208 314.036 472.464 L 320.622 465.928 327.061 468.815 C 330.603 470.403 334.738 472.209 336.250 472.829 C 338.974 473.946 339.000 474.046 339.000 483.324 C 339.000 497.067 337.873 496.500 365.193 496.500 C 392.078 496.500 391.000 497.083 391.000 482.548 L 391.000 473.317 395.250 472.047 C 397.588 471.348 401.522 469.751 403.993 468.497 L 408.487 466.217 415.262 472.608 C 425.483 482.250 425.187 482.342 443.762 463.738 C 462.393 445.078 462.334 445.269 452.594 435.153 L 446.188 428.500 448.482 424.000 C 449.744 421.525 451.348 417.588 452.047 415.250 L 453.317 411.000 462.548 411.000 C 476.991 411.000 476.432 411.992 476.804 385.709 L 477.108 364.237 474.685 361.421 C 472.412 358.777 471.686 358.578 462.881 358.181 L 453.500 357.759 450.250 349.487 C 448.463 344.938 447.000 340.815 447.000 340.326 C 447.000 339.837 449.700 336.766 453.000 333.500 C 462.286 324.310 462.153 323.851 445.250 306.749 C 437.688 299.097 430.240 292.175 428.700 291.367 C 425.009 289.429 422.424 290.323 417.234 295.331 L 412.968 299.448 413.234 271.127 L 413.500 242.806 418.000 246.748 C 423.960 251.970 426.435 253.180 429.554 252.397 C 431.301 251.959 438.330 244.590 451.075 229.836 C 471.122 206.626 472.198 204.769 468.250 200.193 C 467.288 199.078 420.375 158.470 364.000 109.953 C 307.625 61.436 260.600 20.932 259.500 19.944 C 257.270 17.942 253.197 16.827 251.178 17.666 M 327.318 168.464 L 398.000 229.428 398.000 263.714 C 398.000 284.313 397.627 298.000 397.065 298.000 C 396.551 298.000 394.976 297.561 393.565 297.025 C 391.068 296.075 391.000 295.806 391.000 286.839 C 391.000 278.759 390.733 277.345 388.826 275.314 C 386.684 273.034 386.333 273.000 365.140 273.000 C 344.430 273.000 343.543 273.081 341.314 275.174 C 339.215 277.147 339.000 278.218 339.000 286.706 C 339.000 294.746 338.754 296.138 337.250 296.600 C 336.288 296.896 332.204 298.523 328.176 300.217 L 320.852 303.296 314.447 296.948 C 304.505 287.094 304.374 287.134 285.892 305.616 C 267.583 323.925 267.620 323.810 276.848 333.420 C 280.231 336.944 283.000 340.334 283.000 340.953 C 283.000 341.573 282.150 343.749 281.111 345.790 C 280.073 347.830 278.664 351.371 277.981 353.658 L 276.739 357.816 267.282 358.158 C 258.355 358.481 257.689 358.657 255.412 361.306 C 253.030 364.077 253.000 364.367 253.000 384.945 C 253.000 411.221 252.509 410.279 266.579 411.000 C 273.126 411.335 276.477 411.912 276.754 412.750 C 277.082 413.743 260.003 414.000 193.583 414.000 L 110.000 414.000 110.060 321.250 L 110.120 228.500 181.805 166.865 C 241.529 115.516 253.754 105.420 255.064 106.365 C 255.929 106.989 288.443 134.934 327.318 168.464 M 376.000 296.500 C 376.000 306.878 376.714 307.807 387.110 310.964 C 391.175 312.199 397.975 315.022 402.221 317.238 C 411.412 322.033 412.841 321.776 420.563 313.936 L 425.440 308.984 433.190 316.689 L 440.940 324.393 434.970 330.610 C 428.168 337.693 427.802 339.370 431.607 346.000 C 434.617 351.245 438.431 360.688 439.985 366.743 C 441.442 372.424 444.591 374.000 454.484 374.000 L 462.068 374.000 461.784 384.750 L 461.500 395.500 452.898 396.000 C 448.002 396.285 443.621 397.062 442.728 397.806 C 441.866 398.524 440.189 402.349 439.002 406.306 C 437.814 410.263 435.078 416.797 432.921 420.827 C 430.765 424.857 429.000 429.289 429.000 430.676 C 429.000 432.403 430.880 435.139 434.961 439.350 L 440.922 445.500 433.265 453.220 L 425.607 460.940 419.390 454.970 C 415.166 450.914 412.368 449.000 410.663 449.000 C 409.283 449.000 404.857 450.762 400.827 452.915 C 396.797 455.068 390.253 457.782 386.284 458.947 C 377.030 461.662 376.000 463.092 376.000 473.223 L 376.000 481.000 365.000 481.000 L 354.000 481.000 354.000 473.223 C 354.000 463.147 352.950 461.665 343.900 458.970 C 340.032 457.818 333.443 455.104 329.258 452.938 C 325.073 450.772 320.563 449.000 319.237 449.000 C 317.653 449.000 314.695 451.047 310.610 454.970 L 304.393 460.940 296.689 453.190 L 288.984 445.440 293.936 440.563 C 302.057 432.564 302.143 431.756 296.211 419.211 C 293.426 413.320 290.823 406.726 290.426 404.557 C 290.030 402.388 288.667 399.576 287.398 398.307 C 285.349 396.258 284.137 396.000 276.545 396.000 L 268.000 396.000 268.000 385.000 L 268.000 374.000 275.453 374.000 C 279.552 374.000 284.040 373.483 285.427 372.851 C 287.891 371.729 288.319 370.860 292.620 358.250 C 293.511 355.638 295.761 350.727 297.620 347.338 C 299.479 343.948 301.000 340.197 301.000 339.001 C 301.000 337.706 298.586 334.313 295.030 330.610 L 289.060 324.393 296.810 316.689 L 304.560 308.984 309.437 313.936 C 317.159 321.776 318.588 322.033 327.779 317.238 C 332.025 315.022 338.650 312.249 342.500 311.076 C 346.350 309.903 349.995 308.619 350.600 308.222 C 352.965 306.670 354.000 302.819 354.000 295.566 L 354.000 288.000 365.000 288.000 L 376.000 288.000 376.000 296.500 M 353.750 121.437 C 407.238 167.503 451.000 205.495 451.000 205.862 C 451.000 206.877 427.788 233.500 426.903 233.500 C 426.479 233.500 388.287 200.879 342.032 161.010 C 295.777 121.140 256.982 88.168 255.821 87.738 C 254.660 87.309 252.848 87.231 251.794 87.565 C 250.741 87.900 212.424 120.422 166.646 159.837 C 120.868 199.251 82.684 232.086 81.792 232.802 C 80.373 233.941 78.691 232.398 68.335 220.458 C 61.826 212.953 56.500 206.410 56.500 205.918 C 56.500 205.427 100.825 166.813 155.000 120.111 C 238.016 48.545 253.736 35.392 255.000 36.438 C 255.825 37.121 300.263 75.370 353.750 121.437 M 171.970 74.750 L 171.941 85.500 148.220 105.836 L 124.500 126.172 124.236 95.086 L 123.972 64.000 147.986 64.000 L 172.000 64.000 171.970 74.750 "/></g>
<g fill="#000000FF" stroke="#000000FF">
<path d="M 180.861 219.911 L 178.500 221.823 178.230 292.333 L 177.961 362.843 180.394 365.671 L 182.827 368.500 210.002 368.500 L 237.177 368.500 239.088 366.139 C 241.529 363.125 241.530 358.876 239.090 355.861 C 237.205 353.530 236.902 353.496 215.590 353.195 L 194.000 352.890 194.000 326.945 L 194.000 301.000 220.000 301.000 L 246.000 301.000 246.032 319.250 C 246.066 338.858 246.342 340.039 251.331 341.936 C 254.587 343.174 258.443 341.909 259.939 339.114 C 260.575 337.926 261.000 329.888 261.000 319.066 L 261.000 301.000 269.545 301.000 C 277.285 301.000 278.322 300.769 280.545 298.545 C 283.674 295.417 283.753 291.056 280.733 288.219 C 278.854 286.453 277.011 286.038 269.983 285.794 L 261.500 285.500 261.233 259.250 L 260.967 233.000 287.483 233.000 L 314.000 233.000 314.000 255.000 C 314.000 275.667 314.121 277.121 316.000 279.000 C 318.978 281.978 324.330 281.667 326.927 278.365 C 328.905 275.851 329.000 274.524 329.000 249.320 L 329.000 222.909 326.545 220.455 L 324.091 218.000 253.656 218.000 C 185.801 218.000 183.135 218.070 180.861 219.911 M 246.000 259.500 L 246.000 286.000 220.000 286.000 L 194.000 286.000 194.000 259.500 L 194.000 233.000 220.000 233.000 L 246.000 233.000 246.000 259.500 "/></g>
<g fill="#000000FF" stroke="#000000FF">
<path d="M 350.691 332.501 C 341.413 335.051 334.715 339.124 326.975 346.920 C 315.917 358.059 311.000 369.723 311.000 384.816 C 311.000 420.010 343.869 445.750 377.840 437.160 C 388.483 434.468 395.943 430.208 403.633 422.427 C 416.499 409.409 421.764 390.348 417.494 372.240 C 413.088 353.550 398.330 338.331 379.068 332.612 C 372.499 330.662 357.593 330.603 350.691 332.501 M 381.246 349.734 C 406.277 361.448 411.569 394.484 391.372 412.943 C 374.893 428.004 351.573 427.107 336.507 410.834 C 329.115 402.850 326.579 396.144 326.549 384.500 C 326.528 376.450 326.859 374.793 329.687 368.799 C 336.713 353.910 350.166 345.705 366.545 346.319 C 373.057 346.563 375.859 347.214 381.246 349.734 "/></g>
</svg>
