<?xml version="1.0" encoding="utf-8"?>
<!DOCTYPE svg PUBLIC "-//W3C//DTD SVG 20010904//EN" "http://www.w3.org/TR/2001/REC-SVG-20010904/DTD/svg10.dtd">
<svg version="1.0" xmlns="http://www.w3.org/2000/svg" width="514pt" height="514pt" viewBox="0 0 514 514" style="" preserveAspectRatio="xMidYMid meet">
<g fill="#000000FF" stroke="#000000FF">
<path d="M 34.713 258.422 C 28.473 260.100 23.121 264.524 20.004 270.580 L 17.500 275.447 17.500 377.000 L 17.500 478.553 20.055 483.517 C 23.252 489.731 29.373 494.485 36.006 495.908 C 43.199 497.450 470.801 497.450 477.994 495.908 C 484.627 494.485 490.748 489.731 493.945 483.517 L 496.500 478.553 496.500 377.000 L 496.500 275.447 493.945 270.483 C 490.748 264.269 484.627 259.515 477.994 258.092 C 470.007 256.379 41.123 256.699 34.713 258.422 M 443.061 277.225 C 447.265 292.838 460.241 306.091 475.750 310.612 L 481.000 312.142 481.000 377.032 L 481.000 441.923 476.775 443.061 C 460.785 447.366 447.366 460.785 443.061 476.775 L 441.923 481.000 257.032 481.000 L 72.142 481.000 70.612 475.750 C 66.091 460.241 52.838 447.265 37.225 443.061 L 33.000 441.923 33.000 377.032 L 33.000 312.142 38.250 310.612 C 44.557 308.773 54.296 303.098 58.697 298.697 C 63.098 294.296 68.773 284.557 70.612 278.250 L 72.142 273.000 257.032 273.000 L 441.923 273.000 443.061 277.225 M 481.000 467.186 C 481.000 475.240 480.732 476.656 478.826 478.686 C 476.852 480.786 475.784 481.000 467.258 481.000 C 457.985 481.000 457.874 480.971 458.536 478.750 C 459.807 474.489 463.932 468.267 467.646 465.006 C 470.950 462.105 478.211 458.082 480.250 458.022 C 480.663 458.010 481.000 462.133 481.000 467.186 M 40.237 460.645 C 46.627 463.896 53.454 472.013 55.464 478.750 C 56.126 480.970 56.010 481.000 46.882 481.000 C 38.758 481.000 37.346 480.735 35.314 478.826 C 33.214 476.852 33.000 475.784 33.000 467.258 C 33.000 456.826 32.903 456.915 40.237 460.645 M 478.686 275.174 C 480.786 277.148 481.000 278.216 481.000 286.742 C 481.000 296.015 480.971 296.126 478.750 295.464 C 470.008 292.855 461.302 284.140 458.559 275.250 C 457.874 273.029 457.984 273.000 467.118 273.000 C 475.242 273.000 476.654 273.265 478.686 275.174 M 55.441 275.250 C 52.698 284.140 43.992 292.855 35.250 295.464 C 33.030 296.126 33.000 296.010 33.000 286.882 C 33.000 278.758 33.265 277.346 35.174 275.314 C 37.148 273.214 38.216 273.000 46.742 273.000 C 56.022 273.000 56.126 273.027 55.441 275.250 "/></g>
<g fill="#000000FF" stroke="#000000FF">
<path d="M 246.971 290.036 C 236.542 291.186 222.012 296.070 212.500 301.622 C 202.338 307.554 187.925 321.774 182.162 331.554 C 164.852 360.929 165.361 396.190 183.503 424.578 C 188.641 432.618 200.079 444.229 208.146 449.595 C 242.529 472.465 287.443 468.617 317.126 440.258 C 335.184 423.005 344.167 402.043 344.233 377.000 C 344.297 352.396 335.480 331.481 317.837 314.394 C 298.625 295.787 273.409 287.120 246.971 290.036 M 279.500 308.390 C 301.668 315.943 318.083 332.360 325.601 354.500 C 329.451 365.837 330.101 382.209 327.162 393.833 C 318.791 426.932 290.726 449.000 257.000 449.000 C 216.758 449.000 185.000 417.242 185.000 377.000 C 185.000 343.639 206.577 315.769 239.224 306.960 C 250.168 304.007 268.550 304.660 279.500 308.390 "/></g>
<g fill="#000000FF" stroke="#000000FF">
<path d="M 254.500 17.958 C 250.577 19.587 194.296 68.761 193.686 71.092 C 192.889 74.139 194.889 78.133 198.000 79.706 C 199.605 80.518 204.888 80.976 212.750 80.985 L 225.000 81.000 225.000 93.000 L 225.000 105.000 222.291 105.000 C 220.148 105.000 216.804 107.778 206.291 118.291 C 191.739 132.843 191.027 134.253 194.971 140.720 L 196.934 143.940 192.983 145.123 C 185.660 147.317 185.500 147.829 185.500 169.000 C 185.500 190.171 185.660 190.683 192.983 192.877 L 196.934 194.060 194.971 197.280 C 191.027 203.747 191.739 205.157 206.291 219.709 C 220.843 234.261 222.253 234.973 228.720 231.029 L 231.940 229.066 233.123 233.017 C 235.317 240.340 235.829 240.500 257.000 240.500 C 278.171 240.500 278.683 240.340 280.877 233.017 L 282.060 229.066 285.280 231.029 C 291.747 234.973 293.157 234.261 307.709 219.709 C 322.261 205.157 322.973 203.747 319.029 197.280 L 317.066 194.060 321.017 192.877 C 328.340 190.683 328.500 190.171 328.500 169.000 C 328.500 147.829 328.340 147.317 321.017 145.123 L 317.066 143.940 319.029 140.720 C 322.973 134.253 322.261 132.843 307.709 118.291 C 297.196 107.778 293.852 105.000 291.709 105.000 L 289.000 105.000 289.000 93.000 L 289.000 81.000 301.250 80.985 C 309.112 80.976 314.395 80.518 316.000 79.706 C 319.447 77.962 321.283 73.876 320.063 70.665 C 319.088 68.103 265.038 20.945 260.156 18.398 C 257.146 16.828 257.209 16.832 254.500 17.958 M 268.537 118.767 C 269.188 121.664 270.529 124.927 271.516 126.017 C 274.138 128.915 279.139 128.542 284.753 125.030 L 289.500 122.060 296.720 129.280 L 303.940 136.500 300.970 141.247 C 297.484 146.818 297.087 151.864 299.931 154.437 C 300.992 155.398 304.255 156.716 307.181 157.366 L 312.500 158.547 312.500 169.000 L 312.500 179.453 307.181 180.634 C 304.255 181.284 300.992 182.602 299.931 183.563 C 297.087 186.136 297.484 191.182 300.970 196.753 L 303.940 201.500 296.720 208.720 L 289.500 215.940 284.753 212.970 C 279.139 209.458 274.138 209.085 271.516 211.983 C 270.529 213.073 269.188 216.336 268.535 219.233 L 267.349 224.500 257.000 224.500 L 246.651 224.500 245.465 219.233 C 244.812 216.336 243.471 213.073 242.484 211.983 C 239.862 209.085 234.861 209.458 229.247 212.970 L 224.500 215.940 217.280 208.720 L 210.060 201.500 213.030 196.753 C 216.873 190.611 216.987 185.922 213.365 183.073 C 211.916 181.933 210.228 180.997 209.615 180.994 C 209.002 180.991 206.813 180.520 204.750 179.947 L 201.000 178.906 201.000 169.000 L 201.000 159.094 204.750 158.053 C 206.813 157.480 209.002 157.009 209.615 157.006 C 210.228 157.003 211.916 156.067 213.365 154.927 C 216.987 152.078 216.873 147.389 213.030 141.247 L 210.060 136.500 217.280 129.280 L 224.500 122.060 229.247 125.030 C 238.009 130.512 243.963 128.205 245.532 118.721 C 245.916 116.399 246.440 114.147 246.695 113.716 C 246.951 113.285 251.704 113.060 257.256 113.216 L 267.353 113.500 268.537 118.767 M 274.765 50.250 L 291.442 64.500 284.664 65.085 C 274.147 65.992 273.576 66.907 273.173 83.525 L 272.845 97.000 257.000 97.000 L 241.155 97.000 240.827 83.525 C 240.424 66.910 239.852 65.992 229.344 65.085 L 222.575 64.500 239.038 50.323 C 248.092 42.525 256.082 36.112 256.794 36.073 C 257.505 36.033 265.592 42.413 274.765 50.250 "/></g>
<g fill="#000000FF" stroke="#000000FF">
<path d="M 430.500 49.967 C 426.602 51.568 370.298 100.754 369.686 103.092 C 368.889 106.139 370.889 110.133 374.000 111.706 C 375.604 112.517 380.883 112.976 388.728 112.985 L 400.955 113.000 401.228 174.473 L 401.500 235.945 403.778 238.223 C 406.035 240.480 406.295 240.500 433.000 240.500 C 459.705 240.500 459.965 240.480 462.222 238.223 L 464.500 235.945 464.772 174.473 L 465.045 113.000 477.272 112.985 C 485.117 112.976 490.396 112.517 492.000 111.706 C 495.105 110.135 497.111 106.140 496.318 103.106 C 495.861 101.359 457.111 67.042 438.000 51.460 C 435.769 49.641 432.755 49.041 430.500 49.967 M 450.231 81.750 L 467.385 96.500 460.636 97.085 C 455.538 97.526 453.350 98.206 451.693 99.862 L 449.500 102.055 449.228 163.527 L 448.955 225.000 433.000 225.000 L 417.045 225.000 416.772 163.527 L 416.500 102.055 414.307 99.862 C 412.650 98.206 410.462 97.526 405.365 97.085 L 398.617 96.500 415.559 81.816 C 424.876 73.740 432.630 67.102 432.788 67.066 C 432.946 67.030 440.795 73.638 450.231 81.750 "/></g>
<g fill="#000000FF" stroke="#000000FF">
<path d="M 78.500 49.967 C 74.602 51.568 18.298 100.754 17.686 103.092 C 16.889 106.139 18.889 110.133 22.000 111.706 C 23.604 112.517 28.883 112.976 36.728 112.985 L 48.955 113.000 49.228 174.473 L 49.500 235.945 51.778 238.223 C 54.035 240.480 54.295 240.500 81.000 240.500 C 107.705 240.500 107.965 240.480 110.222 238.223 L 112.500 235.945 112.772 174.473 L 113.045 113.000 125.272 112.985 C 133.117 112.976 138.396 112.517 140.000 111.706 C 143.105 110.135 145.111 106.140 144.318 103.106 C 143.861 101.359 105.111 67.042 86.000 51.460 C 83.769 49.641 80.755 49.041 78.500 49.967 M 98.231 81.750 L 115.385 96.500 108.636 97.085 C 103.538 97.526 101.350 98.206 99.693 99.862 L 97.500 102.055 97.228 163.527 L 96.955 225.000 81.000 225.000 L 65.045 225.000 64.772 163.527 L 64.500 102.055 62.307 99.862 C 60.650 98.206 58.462 97.526 53.365 97.085 L 46.617 96.500 63.559 81.816 C 72.876 73.740 80.630 67.102 80.788 67.066 C 80.946 67.030 88.795 73.638 98.231 81.750 "/></g>
<g fill="#000000FF" stroke="#000000FF">
<path d="M 249.081 138.537 C 242.074 140.488 237.992 143.066 233.083 148.643 C 225.873 156.834 223.706 168.912 227.460 179.990 C 230.039 187.602 238.443 195.990 246.006 198.502 C 258.485 202.647 270.125 200.035 279.080 191.080 C 291.707 178.453 291.707 159.547 279.080 146.920 C 270.796 138.636 259.783 135.559 249.081 138.537 M 266.665 155.911 C 275.284 162.283 275.024 175.778 266.155 182.468 C 262.605 185.146 254.794 185.662 250.069 183.531 C 243.891 180.745 241.500 176.691 241.500 169.000 C 241.500 161.523 243.700 157.421 249.218 154.607 C 253.884 152.227 262.560 152.875 266.665 155.911 "/></g>
<g fill="#000000FF" stroke="#000000FF">
<path d="M 249.000 328.961 L 249.000 336.923 245.053 337.986 C 239.928 339.366 235.339 344.029 233.920 349.297 C 233.291 351.633 232.955 357.920 233.162 363.498 C 233.782 380.245 237.769 384.185 254.750 384.835 L 265.000 385.227 265.000 393.113 L 265.000 401.000 249.000 401.000 L 233.000 401.000 233.000 409.000 L 233.000 417.000 241.000 417.000 L 249.000 417.000 249.000 425.000 L 249.000 433.000 257.000 433.000 L 265.000 433.000 265.000 425.039 L 265.000 417.077 268.947 416.014 C 274.072 414.634 278.661 409.971 280.080 404.703 C 280.709 402.367 281.045 396.080 280.838 390.502 C 280.218 373.755 276.231 369.815 259.250 369.165 L 249.000 368.773 249.000 360.887 L 249.000 353.000 265.000 353.000 L 281.000 353.000 281.000 345.000 L 281.000 337.000 273.000 337.000 L 265.000 337.000 265.000 329.000 L 265.000 321.000 257.000 321.000 L 249.000 321.000 249.000 328.961 "/></g>
</svg>
