<?xml version="1.0" encoding="utf-8"?>
<!DOCTYPE svg PUBLIC "-//W3C//DTD SVG 20010904//EN" "http://www.w3.org/TR/2001/REC-SVG-20010904/DTD/svg10.dtd">
<svg version="1.0" xmlns="http://www.w3.org/2000/svg" width="514pt" height="514pt" viewBox="0 0 514 514" style="" preserveAspectRatio="xMidYMid meet">
<g fill="#000000FF" stroke="#000000FF">
<path d="M 254.500 17.947 C 253.400 18.400 202.544 63.554 141.487 118.291 C 65.322 186.572 29.758 219.086 28.194 221.868 C 25.261 227.087 24.366 234.666 25.996 240.487 C 27.576 246.128 34.075 253.675 39.461 256.122 C 44.516 258.417 53.600 258.544 58.974 256.394 C 61.256 255.481 70.220 248.414 79.744 240.019 L 96.500 225.251 96.762 260.997 L 97.025 296.743 91.821 297.243 C 84.153 297.980 82.556 300.294 81.011 312.913 C 80.331 318.461 79.540 323.000 79.253 323.000 C 78.965 323.000 74.909 320.075 70.240 316.500 C 64.842 312.368 60.808 310.000 59.165 310.000 C 55.441 310.000 30.000 335.432 30.000 339.155 C 30.000 340.794 32.357 344.775 36.489 350.114 C 40.057 354.727 42.982 358.787 42.989 359.138 C 42.995 359.488 38.461 360.331 32.913 361.011 C 24.987 361.982 22.254 362.737 20.163 364.537 L 17.500 366.827 17.500 385.000 L 17.500 403.173 20.163 405.463 C 22.254 407.263 24.987 408.018 32.913 408.989 C 38.461 409.669 42.995 410.512 42.989 410.862 C 42.982 411.213 40.057 415.273 36.489 419.886 C 32.357 425.225 30.000 429.206 30.000 430.845 C 30.000 434.559 55.441 460.000 59.155 460.000 C 60.794 460.000 64.775 457.643 70.114 453.511 C 74.727 449.943 78.787 447.018 79.138 447.011 C 79.488 447.005 80.331 451.539 81.011 457.087 C 82.551 469.659 84.166 472.021 91.716 472.747 L 96.815 473.237 97.158 482.592 C 97.456 490.736 97.795 492.242 99.778 494.224 L 102.056 496.500 297.000 496.500 L 491.944 496.500 494.222 494.223 C 496.487 491.960 496.502 491.760 496.790 459.236 C 496.966 439.464 496.658 423.804 496.013 419.644 C 494.625 410.699 490.843 403.128 484.686 396.972 C 476.210 388.496 465.782 385.024 448.750 385.008 L 441.000 385.000 441.000 375.184 L 441.000 365.368 444.750 363.246 C 450.118 360.207 457.463 352.322 460.349 346.500 C 463.935 339.267 465.001 331.704 464.992 313.566 C 464.980 287.823 462.516 278.802 452.857 269.143 C 445.111 261.396 433.558 257.033 420.725 257.008 L 416.950 257.000 417.225 241.124 L 417.500 225.249 434.256 240.018 C 443.781 248.414 452.743 255.480 455.026 256.394 C 460.400 258.544 469.484 258.417 474.539 256.122 C 479.925 253.675 486.424 246.128 488.004 240.487 C 489.633 234.667 488.739 227.087 485.807 221.871 C 484.308 219.203 468.069 203.959 438.296 177.268 L 393.063 136.718 392.782 95.386 L 392.500 54.054 390.222 51.777 C 387.965 49.520 387.703 49.500 361.000 49.500 C 327.400 49.500 329.733 48.264 329.000 66.454 L 328.500 78.857 294.553 48.429 C 275.883 31.693 260.282 18.000 259.885 18.000 C 259.488 18.000 258.564 17.803 257.832 17.563 C 257.099 17.322 255.600 17.495 254.500 17.947 M 329.774 147.500 L 400.990 210.500 400.745 234.351 L 400.500 258.203 396.079 259.697 C 382.795 264.186 372.743 276.077 370.094 290.434 C 368.683 298.083 368.678 327.873 370.086 335.566 C 370.683 338.830 372.288 343.750 373.651 346.500 C 376.537 352.322 383.882 360.207 389.250 363.246 L 393.000 365.368 393.000 375.184 L 393.000 385.000 385.250 385.008 C 368.202 385.024 357.699 388.587 348.972 397.314 C 343.049 403.237 339.469 410.378 338.056 419.086 C 337.483 422.614 337.012 437.988 337.008 453.250 L 337.000 481.000 225.000 481.000 L 113.000 481.000 113.000 477.127 L 113.000 473.254 118.191 472.756 C 125.845 472.020 127.444 469.700 128.989 457.087 C 129.669 451.539 130.512 447.005 130.862 447.011 C 131.213 447.018 135.273 449.943 139.886 453.511 C 145.225 457.643 149.206 460.000 150.845 460.000 C 154.559 460.000 180.000 434.559 180.000 430.845 C 180.000 429.206 177.643 425.225 173.511 419.886 C 169.943 415.273 167.018 411.213 167.011 410.862 C 167.005 410.512 171.539 409.669 177.087 408.989 C 185.013 408.018 187.746 407.263 189.837 405.463 L 192.500 403.173 192.500 385.000 L 192.500 366.827 189.837 364.537 C 187.746 362.737 185.013 361.982 177.087 361.011 C 171.539 360.331 167.005 359.488 167.011 359.138 C 167.018 358.787 169.943 354.727 173.511 350.114 C 177.643 344.775 180.000 340.794 180.000 339.155 C 180.000 335.441 154.559 310.000 150.845 310.000 C 149.206 310.000 145.225 312.357 139.886 316.489 C 135.273 320.057 131.218 322.982 130.873 322.989 C 130.529 322.995 129.700 318.656 129.032 313.346 C 128.363 308.036 127.346 302.658 126.770 301.396 C 125.588 298.801 121.319 297.000 116.351 297.000 L 113.000 297.000 113.018 253.750 L 113.036 210.500 184.268 147.314 C 223.446 112.561 256.188 84.211 257.029 84.314 C 257.869 84.416 290.605 112.850 329.774 147.500 M 114.787 322.843 C 115.422 328.256 116.248 333.483 116.623 334.459 C 117.472 336.672 126.524 340.977 130.356 340.990 C 132.366 340.997 135.731 339.034 141.711 334.364 L 150.209 327.729 156.240 333.760 L 162.271 339.791 155.636 348.289 C 150.966 354.269 149.003 357.634 149.010 359.644 C 149.023 363.455 153.323 372.526 155.515 373.367 C 156.476 373.736 161.704 374.543 167.131 375.160 L 177.000 376.282 177.000 384.957 L 177.000 393.632 167.157 394.787 C 161.744 395.422 156.517 396.248 155.541 396.623 C 153.328 397.472 149.023 406.524 149.010 410.356 C 149.003 412.366 150.966 415.731 155.636 421.711 L 162.271 430.209 156.240 436.240 L 150.209 442.271 141.711 435.636 C 135.731 430.966 132.366 429.003 130.356 429.010 C 126.524 429.023 117.472 433.328 116.623 435.541 C 116.248 436.517 115.422 441.744 114.787 447.157 L 113.632 457.000 105.000 457.000 L 96.368 457.000 95.213 447.157 C 94.578 441.744 93.752 436.517 93.377 435.541 C 92.528 433.328 83.476 429.023 79.644 429.010 C 77.634 429.003 74.269 430.966 68.289 435.636 L 59.791 442.271 53.760 436.240 L 47.729 430.209 54.364 421.711 C 59.034 415.731 60.997 412.366 60.990 410.356 C 60.977 406.524 56.672 397.472 54.459 396.623 C 53.483 396.248 48.256 395.422 42.843 394.787 L 33.000 393.632 33.000 385.000 L 33.000 376.368 42.843 375.213 C 48.256 374.578 53.483 373.752 54.459 373.377 C 56.672 372.528 60.977 363.476 60.990 359.644 C 60.997 357.634 59.034 354.269 54.364 348.289 L 47.729 339.791 53.760 333.760 L 59.791 327.729 68.289 334.364 C 74.269 339.034 77.634 340.997 79.644 340.990 C 83.476 340.977 92.528 336.672 93.377 334.459 C 93.752 333.483 94.578 328.256 95.213 322.843 L 96.368 313.000 105.000 313.000 L 113.632 313.000 114.787 322.843 M 364.681 131.782 C 423.431 184.463 472.093 228.801 472.818 230.311 C 476.743 238.486 465.883 246.629 458.647 240.937 C 457.204 239.802 412.256 200.151 358.762 152.822 C 305.268 105.494 260.488 66.384 259.250 65.910 C 257.993 65.429 256.007 65.429 254.750 65.910 C 253.513 66.384 208.732 105.494 155.238 152.822 C 101.744 200.151 56.796 239.802 55.353 240.937 C 48.117 246.629 37.257 238.486 41.182 230.311 C 42.473 227.621 255.304 36.000 257.000 36.000 C 257.474 36.000 305.931 79.102 364.681 131.782 M 378.962 423.386 C 383.456 436.867 386.852 445.461 388.150 446.636 C 390.052 448.357 392.264 448.500 417.000 448.500 C 441.736 448.500 443.948 448.357 445.850 446.636 C 447.148 445.461 450.544 436.867 455.038 423.386 C 460.808 406.076 462.510 402.000 463.970 402.000 C 467.824 402.000 475.423 408.348 478.250 413.929 L 481.000 419.359 481.000 450.179 L 481.000 481.000 417.000 481.000 L 353.000 481.000 353.010 450.250 C 353.019 420.035 353.061 419.413 355.377 414.500 C 357.888 409.176 360.651 406.218 365.500 403.662 C 371.409 400.546 371.292 400.374 378.962 423.386 M 426.756 309.250 C 429.989 312.385 430.445 312.512 439.635 312.849 L 449.163 313.199 448.831 324.933 C 448.520 335.967 448.319 336.959 445.474 341.557 C 443.604 344.578 440.578 347.604 437.557 349.474 C 432.817 352.407 432.239 352.510 418.683 352.828 C 407.427 353.092 403.842 352.829 400.310 351.480 C 394.133 349.122 390.092 345.394 387.367 339.541 C 385.365 335.241 385.018 332.919 385.010 323.750 L 385.000 313.000 393.250 312.963 C 399.905 312.933 403.433 312.275 411.500 309.558 C 417.000 307.706 421.929 306.148 422.452 306.095 C 422.976 306.043 424.913 307.463 426.756 309.250 M 445.748 402.250 C 445.491 402.938 443.092 410.138 440.416 418.250 L 435.552 433.000 417.000 433.000 L 398.448 433.000 393.584 418.250 C 390.908 410.138 388.509 402.938 388.252 402.250 C 387.886 401.268 394.047 401.000 417.000 401.000 C 439.953 401.000 446.114 401.268 445.748 402.250 M 376.765 93.445 L 376.500 121.890 360.750 107.782 L 345.000 93.674 345.000 79.337 L 345.000 65.000 361.015 65.000 L 377.031 65.000 376.765 93.445 M 435.000 275.084 C 437.475 276.206 440.572 278.109 441.882 279.312 C 444.902 282.085 448.977 290.650 448.990 294.250 C 449.000 296.982 448.955 297.000 442.187 297.000 C 435.866 297.000 435.162 296.776 432.437 293.899 C 427.444 288.628 426.227 288.573 412.608 293.004 C 402.633 296.249 398.885 297.000 392.662 297.000 C 385.130 297.000 385.000 296.957 385.000 294.468 C 385.000 287.606 391.227 278.734 398.383 275.402 C 402.984 273.260 404.861 273.021 417.000 273.032 C 428.434 273.042 431.189 273.356 435.000 275.084 M 425.000 377.000 L 425.000 385.000 417.000 385.000 L 409.000 385.000 409.000 377.000 L 409.000 369.000 417.000 369.000 L 425.000 369.000 425.000 377.000 "/></g>
<g fill="#000000FF" stroke="#000000FF">
<path d="M 194.713 170.422 C 188.474 172.100 183.122 176.523 180.004 182.577 L 177.500 187.441 177.178 226.971 L 176.856 266.500 172.493 269.171 C 169.649 270.912 167.067 273.696 165.075 277.171 C 157.129 291.027 164.597 308.419 180.000 311.926 C 186.138 313.324 327.874 313.322 334.000 311.924 C 340.345 310.476 345.713 306.429 349.086 300.548 C 355.173 289.936 351.658 275.386 341.507 269.171 L 337.144 266.500 336.822 226.971 L 336.500 187.441 333.945 182.480 C 330.747 176.268 324.626 171.514 317.994 170.092 C 310.258 168.433 201.023 168.725 194.713 170.422 M 318.686 187.174 L 321.000 189.349 321.000 227.174 L 321.000 265.000 296.750 265.015 C 270.537 265.031 268.548 265.373 266.195 270.279 C 264.939 272.900 264.601 273.000 257.000 273.000 C 249.399 273.000 249.061 272.900 247.805 270.279 C 245.452 265.373 243.463 265.031 217.250 265.015 L 193.000 265.000 193.000 227.314 C 193.000 189.998 193.021 189.606 195.174 187.314 L 197.349 185.000 256.860 185.000 L 316.371 185.000 318.686 187.174 M 234.195 283.721 C 236.423 288.366 239.049 288.971 257.000 288.971 C 274.951 288.971 277.577 288.366 279.805 283.721 L 281.109 281.000 306.740 281.000 C 331.680 281.000 332.434 281.059 334.686 283.174 C 337.739 286.043 337.805 291.514 334.826 294.686 L 332.651 297.000 257.140 297.000 L 181.629 297.000 179.314 294.826 C 176.261 291.957 176.195 286.486 179.174 283.314 C 181.338 281.011 181.474 281.000 207.120 281.000 L 232.891 281.000 234.195 283.721 "/></g>
<g fill="#000000FF" stroke="#000000FF">
<path d="M 97.000 346.369 C 76.282 350.896 62.382 371.046 66.044 391.243 C 71.862 423.328 110.267 435.633 132.829 412.640 C 155.366 389.672 143.313 351.950 111.566 346.094 C 104.563 344.803 104.133 344.811 97.000 346.369 M 117.593 364.552 C 133.981 374.683 132.367 399.433 114.828 406.979 C 99.444 413.597 82.380 403.406 81.186 386.888 C 80.082 371.633 90.905 360.496 106.119 361.231 C 111.380 361.485 113.735 362.166 117.593 364.552 "/></g>
<g fill="#000000FF" stroke="#000000FF">
<path d="M 249.000 369.000 L 249.000 377.000 229.000 377.000 L 209.000 377.000 209.000 385.048 L 209.000 393.096 234.474 392.798 C 266.603 392.422 264.358 393.777 264.827 374.475 L 265.155 361.000 257.077 361.000 L 249.000 361.000 249.000 369.000 "/></g>
<g fill="#000000FF" stroke="#000000FF">
<path d="M 249.000 337.000 L 249.000 345.000 257.000 345.000 L 265.000 345.000 265.000 337.000 L 265.000 329.000 257.000 329.000 L 249.000 329.000 249.000 337.000 "/></g>
<g fill="#000000FF" stroke="#000000FF">
<path d="M 281.000 225.000 L 281.000 233.000 289.000 233.000 L 297.000 233.000 297.000 225.000 L 297.000 217.000 289.000 217.000 L 281.000 217.000 281.000 225.000 "/></g>
<g fill="#000000FF" stroke="#000000FF">
<path d="M 249.000 225.000 L 249.000 233.000 257.000 233.000 L 265.000 233.000 265.000 225.000 L 265.000 217.000 257.000 217.000 L 249.000 217.000 249.000 225.000 "/></g>
<g fill="#000000FF" stroke="#000000FF">
<path d="M 217.000 225.000 L 217.000 233.000 225.000 233.000 L 233.000 233.000 233.000 225.000 L 233.000 217.000 225.000 217.000 L 217.000 217.000 217.000 225.000 "/></g>
</svg>
