<?xml version='1.0' encoding='utf-8'?>
<!DOCTYPE svg PUBLIC "-//W3C//DTD SVG 1.1//EN" "http://www.w3.org/Graphics/SVG/1.1/DTD/svg11.dtd">
<!-- Creator: CorelDRAW -->
<svg xmlns="http://www.w3.org/2000/svg" xmlns:xlink="http://www.w3.org/1999/xlink" xml:space="preserve" width="256px" height="256px" style="shape-rendering:geometricPrecision; text-rendering:geometricPrecision; image-rendering:optimizeQuality; fill-rule:evenodd; clip-rule:evenodd" viewBox="0 0 24 24" version="1.1" preserveAspectRatio="xMidYMid meet">
 <defs>
  <style type="text/css">
   <![CDATA[
    .fil1 {fill:none}
    .fil0 {fill:black}
   ]]>
  </style>
 </defs>
 <g id="Layer_x0020_1" fill="#ffffff">
  <metadata id="CorelCorpid_0Corel-Layer"/>
  <g id="_461231800" fill="#ffffff">
   <path id="_461232808" class="fil0" d="M5.86057 5.37239l-4.89307 0c-0.0360906,0 -0.0666772,-0.029189 -0.0666772,-0.0666772l0 -2.66393c0,-0.0360866 0.029189,-0.0666772 0.0666772,-0.0666772l4.89307 0c0.0360866,0 0.0666772,0.029189 0.0666772,0.0666772l0 2.66389c0,0.0361339 -0.0305906,0.0667244 -0.0666772,0.0667244zm-4.82645 -0.131953l4.76118 0 0 -2.53198 -4.76118 0 0 2.53198z" fill="#ffffff"/>
   <path id="_461232688" class="fil0" d="M3.4147 4.68624c-0.393059,0 -0.712492,-0.319433 -0.712492,-0.712488 0,-0.393059 0.319433,-0.712492 0.712492,-0.712492 0.393055,0 0.712492,0.319433 0.712492,0.712492 -0.00135039,0.393055 -0.320835,0.712488 -0.712492,0.712488zm0 -1.29303c-0.319437,0 -0.580539,0.259709 -0.580539,0.580543 0,0.320831 0.259705,0.580539 0.580539,0.580539 0.320831,0 0.580539,-0.259709 0.580539,-0.580539 0,-0.320835 -0.261106,-0.580543 -0.580539,-0.580543z" fill="#ffffff"/>
   <path id="_461231632" class="fil0" d="M3.42025 4.35571l-0.161091 0c-0.0360866,0 -0.0666772,-0.029189 -0.0666772,-0.0666772 0,-0.0374843 0.029189,-0.0666772 0.0666772,-0.0666772l0.161091 0c0.0527795,0 0.0944646,-0.0430315 0.0944646,-0.0944646 0,-0.0527795 -0.0430354,-0.0944646 -0.0944646,-0.0944646 -0.125004,0 -0.22637,-0.101413 -0.22637,-0.22637 0,-0.124953 0.101413,-0.226366 0.22637,-0.226366l0.161142 0c0.0360866,0 0.0666772,0.029189 0.0666772,0.0666772 0,0.0374843 -0.0291929,0.0666732 -0.0666772,0.0666732l-0.161142 0c-0.0527795,0 -0.0944646,0.0430354 -0.0944646,0.0944685 0,0.0514291 0.0430315,0.0944646 0.0944646,0.0944646 0.125004,0 0.226366,0.101413 0.226366,0.226366 5.11811e-005,0.124957 -0.101362,0.22637 -0.226366,0.22637z" fill="#ffffff"/>
   <path id="_461232112" class="fil0" d="M3.43969 3.71265c-0.0360866,0 -0.0666732,-0.029189 -0.0666732,-0.0666772l0 -0.126406c0,-0.0360866 0.029189,-0.0666732 0.0666732,-0.0666732 0.0374882,0 0.0666772,0.029189 0.0666772,0.0666732l0 0.126406c0,0.0374882 -0.0291378,0.0666772 -0.0666772,0.0666772z" fill="#ffffff"/>
   <path id="_461231680" class="fil0" d="M3.43969 4.48207c-0.0360866,0 -0.0666732,-0.029189 -0.0666732,-0.0666772l0 -0.127752c0,-0.0360866 0.029189,-0.0666772 0.0666732,-0.0666772 0.0374882,0 0.0666772,0.029189 0.0666772,0.0666772l0 0.127752c0,0.0375354 -0.0291378,0.0666772 -0.0666772,0.0666772z" fill="#ffffff"/>
   <path id="_461231992" class="fil0" d="M4.9397 4.97933l-3.0528 0c-0.0360866,0 -0.0666732,-0.029189 -0.0666732,-0.0666732 0,-0.181937 -0.148598,-0.330583 -0.330583,-0.330583 -0.0360866,0 -0.0666732,-0.029189 -0.0666732,-0.0666732l0 -1.08471c0,-0.0360866 0.029189,-0.0666772 0.0666732,-0.0666772 0.181937,0 0.330583,-0.148594 0.330583,-0.330579 0,-0.0360866 0.029189,-0.0666772 0.0666732,-0.0666772l3.0528 5.11811e-005c0.0360866,0 0.0666772,0.029189 0.0666772,0.0666772 0,0.181933 0.148594,0.330579 0.330579,0.330579 0.0360866,0 0.0666772,0.029189 0.0666772,0.0666772l0 1.0847c0,0.0360866 -0.029189,0.0666772 -0.0666772,0.0666772 -0.181933,0 -0.330579,0.148594 -0.330579,0.330579 0,0.037437 -0.0291417,0.066626 -0.0666772,0.066626zm-2.99027 -0.131953l2.92919 0c0.029189,-0.202776 0.190283,-0.363866 0.393059,-0.393055l0 -0.961102c-0.202776,-0.029189 -0.36387,-0.19028 -0.393059,-0.393059l-2.92919 -4.72441e-005c-0.029189,0.202776 -0.19028,0.363866 -0.393055,0.393055l0 0.961154c0.202776,0.0291378 0.363866,0.19028 0.393055,0.393055z" fill="#ffffff"/>
   <path id="_461231896" class="fil0" d="M5.9203 2.35983l-5.01393 0c-0.0360866,0 -0.0666772,-0.029189 -0.0666772,-0.0666772 0,-0.0374843 0.0291929,-0.0666732 0.0666772,-0.0666732l5.01393 4.72441e-005c0.0360866,0 0.0666772,0.0291929 0.0666772,0.0666772 0,0.0374882 -0.029189,0.066626 -0.0666772,0.066626z" fill="#ffffff"/>
   <path id="_461231488" class="fil0" d="M5.9203 1.98622l-5.01393 0c-0.0360866,0 -0.0666772,-0.029189 -0.0666772,-0.0666772 0,-0.0374843 0.0291929,-0.0666732 0.0666772,-0.0666732l5.01393 4.72441e-005c0.0360866,0 0.0666772,0.029189 0.0666772,0.0666772 0,0.0374882 -0.029189,0.066626 -0.0666772,0.066626z" fill="#ffffff"/>
   <path id="_461231848" class="fil0" d="M5.9203 1.58761l-5.01393 0c-0.0360866,0 -0.0666772,-0.029189 -0.0666772,-0.0666732 0,-0.0374882 0.0291929,-0.0666772 0.0666772,-0.0666772l5.01393 5.11811e-005c0.0360866,0 0.0666772,0.029189 0.0666772,0.0666732 0,0.0374882 -0.029189,0.066626 -0.0666772,0.066626z" fill="#ffffff"/>
  </g>
 </g>
 <rect class="fil1" width="256" height="256" fill="#ffffff"/>
</svg>
