<?xml version='1.0' encoding='utf-8'?>
<svg xmlns="http://www.w3.org/2000/svg" width="256px" height="256px" viewBox="0 0 24 24" fill="#ffffff" preserveAspectRatio="xMidYMid meet">
  <path fill-rule="evenodd" clip-rule="evenodd" d="M16.6746 0.435397C16.861 0.162926 17.1699 0 17.5 0H32C32.3214 0 32.6233 0.154521 32.8112 0.41529C32.9992 0.676058 33.0503 1.01128 32.9487 1.31623L30.3874 9H34.9108C36.8931 9 38.5 10.6069 38.5 12.5892C38.5 13.5904 38.0886 14.5011 37.4209 15.1547C38.0848 15.7437 38.5 16.6028 38.5 17.5533C38.5 18.5635 38.0299 19.4749 37.2858 20.0654C38.0337 20.7146 38.5 21.6712 38.5 22.7258C38.5 24.0333 37.7838 25.1876 36.7064 25.7948C37.2021 26.3501 37.5 27.0815 37.5 27.8755C37.5 29.2001 36.6758 30.3322 35.5122 30.7868C36.63 32.1507 37.9214 33.9316 39.0543 35.9014C40.6465 38.6696 42 41.9375 42 45C42 48.7837 40.2573 53.0145 37.3058 56.294C34.3408 59.5884 30.0847 62 25 62C14.8693 62 8 52.9704 8 45C8 41.7958 9.06256 38.5193 10.3433 35.7658C11.3954 33.5037 12.6207 31.5395 13.6058 30.1825L10.1569 27.5H7.5V28.5C7.5 29.0523 7.05228 29.5 6.5 29.5H1C0.447715 29.5 0 29.0523 0 28.5C0 27.9477 0.447715 27.5 1 27.5H5.5V8.5H1C0.447715 8.5 0 8.05228 0 7.5C0 6.94772 0.447715 6.5 1 6.5H6.5C7.05228 6.5 7.5 6.94772 7.5 7.5V8H11.0037C11.4583 7.42995 12.067 6.77339 12.7389 6.15092C13.5789 5.37278 14.5748 4.59456 15.5528 4.10557C16.3514 3.70626 16.9063 3.44637 17.3146 3.28229L16.568 1.36245C16.4483 1.05477 16.4882 0.707868 16.6746 0.435397ZM34.3755 29H15.3431L11.1139 25.7106C10.9384 25.5741 10.7224 25.5 10.5 25.5H7.5V10H11.5C11.823 10 12.126 9.84403 12.3137 9.58124C12.6825 9.06499 13.3297 8.32993 14.0981 7.61809C14.8704 6.90257 15.7078 6.26412 16.4472 5.89443C17.227 5.50455 17.7158 5.27772 18.0395 5.14644L20.068 10.3624C20.2175 10.7468 20.5876 11 21 11H34.9108C35.7885 11 36.5 11.7115 36.5 12.5892C36.5 13.4229 35.8557 14.1149 35.0241 14.1743L33.9288 14.2525C33.4054 14.2899 33 14.7254 33 15.25C33 15.7746 33.4054 16.2101 33.9288 16.2475L35.3807 16.3512C36.0114 16.3962 36.5 16.921 36.5 17.5533C36.5 18.1611 36.0474 18.6738 35.4443 18.7492L33.376 19.0077C32.8755 19.0703 32.5 19.4957 32.5 20C32.5 20.5043 32.8755 20.9297 33.376 20.9923L35.1674 21.2162C35.9287 21.3114 36.5 21.9585 36.5 22.7258C36.5 23.5055 35.9106 24.1589 35.135 24.2391L32.5796 24.5032C32.0492 24.4604 31.5744 24.8428 31.5077 25.376C31.4392 25.924 31.8279 26.4238 32.376 26.4923L32.4491 26.5014L32.4506 26.5016L34.515 26.7597C35.0777 26.83 35.5 27.3084 35.5 27.8755C35.5 28.4965 34.9965 29 34.3755 29ZM33.0609 31H15.4891C14.5478 32.2432 13.2538 34.2506 12.1567 36.6092C10.9374 39.2307 10 42.2042 10 45C10 52.0296 16.1307 60 25 60C29.4153 60 33.1592 57.9116 35.8192 54.956C38.4927 51.9855 40 48.2163 40 45C40 42.4625 38.8535 39.5638 37.3207 36.8986C35.9183 34.4603 34.2546 32.3238 33.0609 31ZM28.2792 9L30.6126 2H18.9618L21.6841 9H28.2792ZM25.6923 35.5556C25.6923 34.9726 25.2102 34.5 24.6154 34.5C24.0206 34.5 23.5385 34.9726 23.5385 35.5556V37.6667H23.2692C21.1875 37.6667 19.5 39.3207 19.5 41.3611C19.5 43.4015 21.1875 45.0556 23.2692 45.0556H25.6923C26.7332 45.0556 27.5769 45.8826 27.5769 46.9028C27.5769 47.923 26.7332 48.75 25.6923 48.75H20.5769C19.9822 48.75 19.5 49.2226 19.5 49.8056C19.5 50.3885 19.9822 50.8611 20.5769 50.8611H23.5385V52.4444C23.5385 53.0274 24.0206 53.5 24.6154 53.5C25.2102 53.5 25.6923 53.0274 25.6923 52.4444V50.8611C27.9227 50.8611 29.7308 49.0889 29.7308 46.9028C29.7308 44.7167 27.9227 42.9444 25.6923 42.9444H23.2692C22.3771 42.9444 21.6538 42.2356 21.6538 41.3611C21.6538 40.4867 22.3771 39.7778 23.2692 39.7778H28.6538C29.2486 39.7778 29.7308 39.3052 29.7308 38.7222C29.7308 38.1393 29.2486 37.6667 28.6538 37.6667H25.6923V35.5556Z" fill="#ffffff"/>
</svg>
