<?xml version='1.0' encoding='utf-8'?>
<!DOCTYPE svg PUBLIC "-//W3C//DTD SVG 20010904//EN" "http://www.w3.org/TR/2001/REC-SVG-20010904/DTD/svg10.dtd">
<svg xmlns="http://www.w3.org/2000/svg" version="1.0" width="512px" height="512px" viewBox="0 0 514 514" style="" preserveAspectRatio="xMidYMid meet">
  <g fill="#ffffff" stroke="#000000FF">
    <path d="M 359.585 2.242 C 353.732 3.789 347.577 10.425 346.036 16.852 C 345.352 19.703 345.058 23.096 345.384 24.392 C 345.911 26.494 345.563 26.814 342.159 27.359 C 337.046 28.176 330.515 33.069 328.027 37.947 C 324.440 44.978 325.191 49.604 333.493 71.625 C 337.614 82.556 340.989 92.096 340.993 92.825 C 341.001 94.421 330.768 109.043 329.866 108.724 C 329.517 108.601 326.734 103.661 323.682 97.746 C 300.718 53.247 259.860 22.791 209.755 12.823 C 194.857 9.860 167.554 9.648 152.616 12.381 C 117.741 18.761 87.483 35.051 63.130 60.559 C 22.287 103.337 8.323 163.965 26.175 221.000 C 27.811 226.225 32.035 236.350 35.563 243.500 C 57.313 287.580 96.299 318.123 145.500 329.629 C 156.716 332.251 158.937 332.436 179.500 332.448 C 198.643 332.460 202.831 332.170 211.749 330.212 C 237.904 324.471 262.095 313.192 280.845 297.997 C 284.334 295.170 287.287 293.001 287.406 293.178 C 294.493 303.679 304.929 314.227 314.881 320.945 C 327.855 329.703 344.387 335.968 364.264 339.658 C 377.421 342.101 409.759 342.061 423.500 339.586 C 468.993 331.390 500.168 305.800 510.098 268.500 C 514.437 252.203 512.375 226.730 504.798 203.000 C 494.686 171.329 474.073 132.282 450.889 100.878 C 448.200 97.235 446.000 93.761 446.000 93.157 C 446.000 92.553 449.375 83.032 453.500 72.000 C 459.167 56.845 461.000 50.717 461.000 46.931 C 461.000 41.452 458.638 35.846 454.834 32.298 C 452.109 29.757 445.982 27.000 443.057 27.000 C 441.359 27.000 441.143 26.537 441.652 23.990 C 443.333 15.587 435.709 4.423 426.751 2.168 C 420.885 0.690 365.220 0.752 359.585 2.242 M 172.000 66.365 C 172.000 73.446 174.593 77.000 179.758 77.000 C 185.522 77.000 188.000 73.941 188.000 66.826 C 188.000 59.990 187.804 60.056 200.750 62.512 C 211.567 64.564 221.151 67.944 231.679 73.421 C 240.997 78.269 251.961 85.847 251.985 87.458 C 251.993 87.985 250.335 90.121 248.300 92.205 C 243.742 96.872 243.179 102.107 246.911 105.129 C 250.814 108.290 255.432 107.564 260.367 103.015 L 264.690 99.031 269.341 105.265 C 275.616 113.679 282.381 126.925 285.897 137.685 C 288.966 147.077 291.556 161.291 290.508 162.988 C 290.163 163.544 287.434 164.000 284.441 164.000 C 278.676 164.000 275.123 166.138 274.885 169.750 C 274.431 176.648 277.795 180.000 285.172 180.000 C 290.986 180.000 290.934 178.660 285.676 193.025 C 283.759 198.264 280.979 207.714 279.500 214.025 C 276.208 228.066 275.463 229.847 269.538 237.866 L 264.834 244.231 261.667 241.236 C 255.639 235.534 251.926 234.697 247.635 238.073 C 243.664 241.196 243.989 246.363 248.481 251.511 C 250.395 253.705 251.970 255.826 251.981 256.224 C 252.020 257.691 237.230 267.369 228.500 271.590 C 223.550 273.983 215.589 277.057 210.810 278.421 C 201.937 280.953 189.390 283.057 188.496 282.163 C 188.223 281.890 188.000 279.074 188.000 275.906 C 188.000 270.874 187.667 269.883 185.365 268.073 C 181.799 265.267 177.491 265.418 174.455 268.455 C 172.424 270.485 172.000 271.891 172.000 276.598 L 172.000 282.287 165.129 281.649 C 150.816 280.318 133.530 273.821 119.646 264.552 C 106.352 255.678 107.018 256.789 111.847 251.550 C 116.813 246.163 117.323 242.232 113.545 238.455 C 109.768 234.677 105.837 235.187 100.450 240.153 C 95.201 244.991 96.406 245.740 87.075 231.839 C 78.288 218.750 71.365 199.932 69.751 184.750 L 69.246 180.000 74.076 180.000 C 80.028 180.000 83.437 178.532 84.890 175.343 C 86.500 171.808 86.265 169.606 83.964 166.682 C 82.226 164.472 81.020 164.050 75.714 163.797 L 69.500 163.500 69.817 159.000 C 70.647 147.225 77.026 127.877 84.020 115.925 C 88.008 109.109 94.799 100.000 95.893 100.000 C 96.348 100.000 98.390 101.575 100.431 103.500 C 105.257 108.051 110.751 108.404 113.927 104.365 C 117.101 100.331 116.569 96.928 111.946 91.676 L 107.891 87.070 114.696 82.042 C 129.947 70.773 153.808 61.526 168.750 61.094 L 172.000 61.000 172.000 66.365 M 441.500 116.030 C 459.923 142.616 475.283 170.586 484.336 194.033 C 501.241 237.817 499.925 268.083 480.048 292.649 C 461.326 315.788 422.103 328.537 380.340 325.059 C 338.933 321.610 310.143 304.899 296.917 276.635 C 286.933 255.302 289.933 223.874 305.473 187.000 C 315.453 163.318 337.095 126.184 352.245 106.750 L 355.168 103.000 393.834 103.021 L 432.500 103.042 441.500 116.030 M 205.259 28.474 C 247.339 35.870 285.421 62.778 306.522 100.024 C 311.529 108.862 318.202 124.669 317.816 126.776 C 317.382 129.146 306.679 147.951 305.750 147.978 C 305.338 147.990 305.000 147.150 305.000 146.112 C 305.000 142.241 299.733 126.198 295.579 117.414 C 267.830 58.738 201.432 30.314 139.500 50.597 C 120.167 56.929 102.206 68.599 87.000 84.710 C 27.957 147.269 47.408 249.870 125.330 286.902 C 142.435 295.031 160.346 298.992 180.000 298.992 C 212.589 298.992 241.295 287.896 266.328 265.624 L 274.703 258.173 277.106 267.956 L 279.509 277.738 275.426 281.289 C 257.334 297.027 233.363 308.847 208.688 314.196 C 193.999 317.380 166.001 317.380 151.312 314.196 C 92.900 301.534 49.778 258.336 37.316 200.000 C 34.702 187.766 34.728 155.029 37.360 143.000 C 40.281 129.650 44.690 117.472 51.138 104.943 C 73.756 60.990 116.557 32.185 167.500 26.630 C 174.695 25.846 196.310 26.901 205.259 28.474 M 424.416 22.500 C 424.370 24.700 423.969 29.103 423.524 32.285 C 422.789 37.552 422.924 38.290 425.033 40.535 C 427.060 42.693 428.208 43.000 434.240 43.000 C 441.287 43.000 444.982 44.126 445.023 46.285 C 445.036 46.953 441.787 56.393 437.803 67.262 L 430.559 87.024 393.548 86.762 L 356.537 86.500 351.961 74.500 C 349.443 67.900 346.060 58.753 344.442 54.174 C 341.555 46.005 341.537 45.821 343.441 44.424 C 344.683 43.513 347.900 43.000 352.377 43.000 C 363.520 43.000 365.513 39.945 362.832 26.968 C 360.836 17.301 358.599 17.934 393.724 18.236 L 424.500 18.500 424.416 22.500 " fill="#ffffff"/>
  </g>
  <g fill="#ffffff" stroke="#000000FF">
    <path d="M 232.230 344.550 C 224.983 346.501 222.225 348.039 209.000 357.499 C 202.675 362.023 195.970 366.237 194.101 366.862 C 192.025 367.557 183.125 368.000 171.245 368.000 L 151.788 368.000 149.726 365.379 C 145.448 359.940 146.254 360.000 77.418 360.000 L 13.772 360.000 9.837 362.212 C 7.672 363.428 4.911 366.016 3.701 367.962 C 1.515 371.477 1.500 371.810 1.500 418.500 C 1.500 470.973 1.395 470.100 8.320 475.117 L 12.300 478.000 77.200 478.000 C 147.370 478.000 144.689 478.199 149.924 472.595 L 152.349 470.000 174.092 470.000 L 195.835 470.000 222.168 479.411 C 236.650 484.587 262.421 493.825 279.435 499.941 C 298.215 506.691 313.039 511.438 317.162 512.023 C 329.198 513.730 343.095 510.768 354.500 504.064 C 357.250 502.448 388.745 477.566 424.489 448.771 C 485.753 399.418 489.642 396.095 492.352 390.798 C 497.551 380.631 495.908 368.687 488.201 360.630 C 480.374 352.447 467.019 349.538 457.378 353.916 C 455.112 354.945 444.238 362.360 433.214 370.394 C 422.190 378.427 412.731 385.000 412.194 385.000 C 411.656 385.000 410.948 383.929 410.620 382.621 C 409.699 378.951 401.510 370.458 396.761 368.246 C 394.005 366.963 379.083 364.073 354.500 360.063 C 333.600 356.654 301.559 351.420 283.299 348.432 C 248.689 342.770 241.012 342.186 232.230 344.550 M 302.251 368.031 C 332.638 372.999 364.475 378.200 373.000 379.591 C 388.963 382.194 391.798 383.236 394.614 387.533 C 396.871 390.979 395.850 396.820 392.478 399.750 L 389.888 402.000 327.694 402.002 C 270.463 402.003 265.225 402.143 262.060 403.752 C 257.819 405.906 256.306 409.780 258.178 413.685 C 260.416 418.353 263.042 418.969 280.754 418.985 L 297.007 419.000 315.550 434.750 C 325.749 443.413 335.309 451.042 336.796 451.705 C 340.698 453.444 345.061 453.263 349.118 451.195 C 351.065 450.202 377.550 431.240 407.973 409.056 C 470.502 363.461 468.681 364.481 475.473 371.273 C 479.523 375.323 480.129 379.739 477.245 384.197 C 475.793 386.440 370.628 471.718 350.225 487.197 C 341.699 493.665 332.627 496.430 322.164 495.747 C 315.430 495.308 309.039 493.280 269.500 479.041 C 244.750 470.127 219.550 460.983 213.500 458.720 L 202.500 454.606 178.500 454.053 L 154.500 453.500 154.237 419.250 L 153.974 385.000 170.737 384.983 C 188.549 384.964 197.875 383.641 204.644 380.173 C 206.765 379.086 213.440 374.582 219.478 370.163 C 230.406 362.166 236.784 359.254 243.751 359.081 C 245.539 359.036 271.864 363.064 302.251 368.031 M 138.000 419.000 L 138.000 462.000 78.000 462.000 L 18.000 462.000 18.000 419.000 L 18.000 376.000 78.000 376.000 L 138.000 376.000 138.000 419.000 M 354.977 427.472 C 348.665 432.132 343.243 435.957 342.929 435.972 C 342.393 435.998 327.234 423.519 324.036 420.419 C 322.770 419.192 325.544 419.000 344.513 419.000 L 366.455 419.000 354.977 427.472 " fill="#ffffff"/>
  </g>
  <g fill="#ffffff" stroke="#000000FF">
    <path d="M 387.970 140.532 C 386.108 142.513 385.502 144.454 385.184 149.450 L 384.778 155.835 378.431 158.959 C 367.299 164.440 361.009 174.140 360.248 187.000 C 359.671 196.745 362.369 204.342 368.877 211.299 C 374.887 217.725 381.554 221.014 390.923 222.177 C 395.051 222.690 399.947 223.830 401.803 224.711 C 410.083 228.640 413.338 241.504 408.017 249.270 C 404.670 254.155 399.351 257.000 393.564 257.000 C 384.698 257.000 377.558 250.686 376.380 241.804 C 375.545 235.515 372.541 232.000 368.000 232.000 C 363.258 232.000 360.000 235.836 360.000 241.417 C 360.000 247.104 363.173 255.685 367.108 260.636 C 370.789 265.268 378.174 270.660 381.983 271.496 C 384.668 272.086 384.796 272.389 385.173 279.061 C 385.645 287.414 387.838 290.400 393.500 290.400 C 399.156 290.400 401.355 287.412 401.825 279.086 C 402.194 272.563 402.369 272.126 404.858 271.531 C 408.482 270.665 417.153 264.637 419.668 261.235 C 425.310 253.604 426.494 249.921 426.497 240.000 C 426.500 232.158 426.106 229.701 424.245 225.924 C 418.813 214.900 408.468 207.630 396.500 206.425 C 387.552 205.524 384.494 204.290 380.639 200.022 C 369.816 188.043 380.683 168.599 396.539 171.573 C 404.086 172.989 410.954 180.992 411.032 188.462 C 411.110 195.895 419.524 199.567 424.676 194.415 C 427.052 192.039 427.219 191.319 426.750 185.480 C 425.816 173.843 419.160 164.173 408.458 158.905 L 402.000 155.725 402.000 150.297 C 402.000 142.078 399.213 138.092 393.424 138.032 C 391.398 138.011 389.537 138.864 387.970 140.532 " fill="#ffffff"/>
  </g>
  <g fill="#ffffff" stroke="#000000FF">
    <path d="M 174.455 106.455 L 172.000 108.909 172.000 140.907 C 172.000 173.542 172.368 177.106 175.885 178.555 C 182.913 181.449 203.977 188.000 206.254 188.000 C 209.570 188.000 214.000 184.049 214.000 181.093 C 214.000 175.041 211.374 173.109 196.750 168.403 L 188.000 165.588 188.000 136.968 L 188.000 108.349 185.686 106.174 C 182.512 103.193 177.593 103.316 174.455 106.455 " fill="#ffffff"/>
  </g>
</svg>
