<?xml version='1.0' encoding='utf-8'?>
<!-- Generator: Adobe Illustrator 24.3.0, SVG Export Plug-In . SVG Version: 6.00 Build 0)  -->
<svg xmlns="http://www.w3.org/2000/svg" xmlns:xlink="http://www.w3.org/1999/xlink" version="1.1" id="Layer_1" x="0px" y="0px" viewBox="0 0 24 24" enable-background="new 0 0 64 64" xml:space="preserve" width="256px" height="256px" preserveAspectRatio="xMidYMid meet">
<path d="M5,49c-1.7,0-3,1.3-3,3s1.3,3,3,3h1v6c0,0.6,0.4,1,1,1h43c0.6,0,1-0.4,1-1V3c0-0.6-0.4-1-1-1H7C6.4,2,6,2.4,6,3v6H5  c-1.7,0-3,1.3-3,3s1.3,3,3,3h1v4H5c-1.7,0-3,1.3-3,3s1.3,3,3,3h1v4H5c-1.7,0-3,1.3-3,3s1.3,3,3,3h1v4H5c-1.7,0-3,1.3-3,3s1.3,3,3,3  h1v4H5z M5,53c-0.6,0-1-0.4-1-1s0.4-1,1-1h1v2H5z M8,51h3c0.6,0,1,0.4,1,1s-0.4,1-1,1H8V51z M5,13c-0.6,0-1-0.4-1-1s0.4-1,1-1h1v2H5  z M8,11h3c0.6,0,1,0.4,1,1s-0.4,1-1,1H8V11z M5,23c-0.6,0-1-0.4-1-1s0.4-1,1-1h1v2H5z M8,21h3c0.6,0,1,0.4,1,1s-0.4,1-1,1H8V21z   M5,33c-0.6,0-1-0.4-1-1s0.4-1,1-1h1v2H5z M8,31h3c0.6,0,1,0.4,1,1s-0.4,1-1,1H8V31z M5,43c-0.6,0-1-0.4-1-1s0.4-1,1-1h1v2H5z M8,41  h3c0.6,0,1,0.4,1,1s-0.4,1-1,1H8V41z M8,45h3c1.7,0,3-1.3,3-3s-1.3-3-3-3H8v-4h3c1.7,0,3-1.3,3-3s-1.3-3-3-3H8v-4h3c1.7,0,3-1.3,3-3  s-1.3-3-3-3H8v-4h3c1.7,0,3-1.3,3-3s-1.3-3-3-3H8V4h41v56H8v-5h3c1.7,0,3-1.3,3-3s-1.3-3-3-3H8V45z" fill="#ffffff"/>
<path d="M58,2c-2.2,0-4,1.8-4,4v21v4v27c0,0.3,0.1,0.5,0.3,0.7l3,3c0.2,0.2,0.5,0.3,0.7,0.3s0.5-0.1,0.7-0.3l3-3  c0.2-0.2,0.3-0.4,0.3-0.7V31v-4V6C62,3.8,60.2,2,58,2z M58,4c1.1,0,2,0.9,2,2v20h-4V6C56,4.9,56.9,4,58,4z M60,28v2h-4v-2H60z   M58,59.6l-2-2V32h4v25.6L58,59.6z" fill="#ffffff"/>
<rect x="57" y="8" width="256" height="256" fill="#ffffff"/>
<path d="M32,36c6.1,0,11-4.9,11-11s-4.9-11-11-11s-11,4.9-11,11S25.9,36,32,36z M32,16c5,0,9,4,9,9s-4,9-9,9s-9-4-9-9S27,16,32,16z" fill="#ffffff"/>
<path d="M31,30.9V33h2v-2.1c1.7-0.2,3-1.7,3-3.4c0-1.9-1.6-3.5-3.5-3.5h-1c-0.8,0-1.5-0.7-1.5-1.5s0.7-1.5,1.5-1.5h1  c0.8,0,1.5,0.7,1.5,1.5v0.2h2v-0.2c0-1.8-1.3-3.2-3-3.4V17h-2v2.1c-1.7,0.2-3,1.7-3,3.4c0,1.9,1.6,3.5,3.5,3.5h1  c0.8,0,1.5,0.7,1.5,1.5S33.3,29,32.5,29h-1c-0.8,0-1.5-0.7-1.5-1.5v-0.2h-2v0.2C28,29.3,29.3,30.7,31,30.9z" fill="#ffffff"/>
<rect x="20" y="40" width="256" height="256" fill="#ffffff"/>
<rect x="20" y="44" width="256" height="256" fill="#ffffff"/>
</svg>
