<?xml version='1.0' encoding='utf-8'?>
<!DOCTYPE svg PUBLIC "-//W3C//DTD SVG 20010904//EN" "http://www.w3.org/TR/2001/REC-SVG-20010904/DTD/svg10.dtd">
<svg xmlns="http://www.w3.org/2000/svg" version="1.0" width="512px" height="512px" viewBox="0 0 514 514" style="" preserveAspectRatio="xMidYMid meet">
  <g fill="#ffffff" stroke="#000000FF">
    <path d="M 160.750 23.398 L 129.000 37.777 129.000 34.038 C 129.000 29.068 127.217 24.186 124.961 22.979 C 123.907 22.415 112.529 22.000 98.138 22.000 L 73.145 22.000 71.073 24.635 C 69.143 27.088 69.000 28.565 69.000 46.015 L 69.000 64.760 42.107 76.951 C 27.317 83.656 14.297 90.123 13.174 91.321 C 8.245 96.584 8.414 104.220 13.567 109.065 C 15.942 111.298 17.166 111.541 28.328 112.000 L 40.500 112.500 40.756 196.250 L 41.011 280.000 29.940 280.000 C 23.851 280.000 18.045 280.441 17.039 280.979 C 13.799 282.713 13.000 287.664 13.000 306.000 C 13.000 324.066 13.791 329.173 16.820 330.670 C 17.744 331.126 58.961 331.725 108.412 332.000 L 198.325 332.500 199.629 338.895 C 204.934 364.906 220.024 388.694 241.500 404.905 C 250.986 412.065 268.365 420.423 280.500 423.660 C 289.473 426.054 292.246 426.328 307.500 426.328 C 322.670 426.328 325.553 426.047 334.277 423.715 C 344.969 420.857 359.610 414.336 367.958 408.714 L 373.286 405.126 384.194 415.313 L 395.102 425.500 394.498 429.696 C 393.108 439.347 393.343 439.625 445.057 489.693 C 460.238 504.391 463.317 506.069 471.215 503.942 C 476.494 502.521 477.004 502.098 491.170 487.429 C 504.369 473.761 505.951 470.663 503.898 462.511 C 502.843 458.320 500.195 455.438 472.847 428.715 C 456.404 412.647 441.091 398.488 438.818 397.250 C 434.643 394.977 430.161 394.492 426.507 395.919 C 424.876 396.555 422.463 394.779 413.257 386.165 C 407.066 380.372 402.000 375.245 402.000 374.771 C 402.000 374.296 404.010 369.766 406.467 364.704 C 420.997 334.762 420.909 297.996 406.237 268.500 C 394.996 245.903 374.466 225.943 352.741 216.488 L 345.982 213.547 346.241 163.024 L 346.500 112.500 358.672 112.000 C 369.834 111.541 371.058 111.298 373.433 109.065 C 374.857 107.726 376.493 104.883 377.068 102.748 C 377.951 99.468 377.790 98.198 376.031 94.565 C 374.137 90.652 373.072 89.858 364.225 85.760 C 337.568 73.411 194.230 9.001 193.426 9.010 C 192.917 9.015 178.213 15.490 160.750 23.398 M 271.681 60.625 C 313.932 79.668 348.928 95.643 349.450 96.125 C 350.001 96.632 347.353 97.000 343.155 97.000 C 336.795 97.000 335.609 97.300 333.455 99.455 L 331.000 101.909 331.000 155.489 L 331.000 209.069 325.750 208.284 C 322.863 207.853 313.525 207.544 305.000 207.598 C 291.704 207.681 288.120 208.063 279.794 210.279 C 246.693 219.090 218.445 243.568 205.970 274.250 L 203.632 280.000 193.816 280.000 L 184.000 280.000 184.000 228.649 C 184.000 175.711 183.745 172.004 179.961 169.979 C 178.846 169.383 161.396 169.012 135.316 169.032 C 98.705 169.059 92.210 169.283 90.500 170.574 C 88.555 172.044 88.486 173.558 88.000 225.793 L 87.500 279.500 71.750 279.775 L 56.000 280.051 56.000 190.980 L 56.000 101.909 53.545 99.455 C 51.402 97.312 50.165 96.993 43.795 96.941 C 38.540 96.899 36.919 96.600 38.000 95.871 C 40.985 93.858 191.544 26.135 193.181 26.068 C 194.106 26.031 229.431 41.581 271.681 60.625 M 323.295 223.492 C 359.783 229.855 388.759 256.242 399.192 292.605 C 402.281 303.374 402.504 328.746 399.603 339.500 C 389.022 378.725 357.581 406.241 317.819 411.075 C 289.330 414.539 257.596 402.751 238.158 381.483 C 227.708 370.049 220.257 356.778 215.953 341.933 C 213.258 332.638 212.149 310.123 213.924 300.742 C 220.464 266.169 244.898 237.698 277.125 227.099 C 292.613 222.005 307.914 220.810 323.295 223.492 M 168.000 232.000 L 168.000 280.000 135.500 280.000 L 103.000 280.000 103.000 232.000 L 103.000 184.000 135.500 184.000 L 168.000 184.000 168.000 232.000 M 198.667 299.750 C 198.343 302.363 197.776 307.313 197.409 310.750 L 196.742 317.000 112.871 317.000 L 29.000 317.000 29.000 306.000 L 29.000 295.000 114.129 295.000 L 199.258 295.000 198.667 299.750 M 467.250 444.589 C 479.213 456.194 489.000 466.116 489.000 466.638 C 489.000 468.099 468.999 489.000 467.601 489.000 C 466.621 489.000 438.898 462.786 412.557 436.952 L 408.614 433.084 419.989 421.554 L 431.365 410.024 438.433 416.756 C 442.320 420.459 455.288 432.983 467.250 444.589 M 112.807 41.109 L 112.500 45.217 99.500 51.079 C 92.350 54.304 85.938 56.955 85.250 56.971 C 84.331 56.992 84.000 54.349 84.000 47.000 L 84.000 37.000 98.557 37.000 L 113.115 37.000 112.807 41.109 M 408.740 410.727 L 405.003 414.464 395.502 405.002 C 390.276 399.797 386.000 395.102 386.000 394.567 C 386.000 394.033 387.449 392.100 389.220 390.273 L 392.439 386.952 402.458 396.970 L 412.477 406.989 408.740 410.727 " fill="#ffffff"/>
  </g>
  <g fill="#ffffff" stroke="#000000FF">
    <path d="M 292.075 237.026 C 261.932 243.355 238.272 265.061 229.430 294.500 C 225.787 306.627 225.538 325.246 228.856 337.442 C 241.478 383.840 290.378 409.305 335.380 392.915 C 360.384 383.808 379.026 363.079 386.113 336.500 C 389.039 325.524 389.058 307.711 386.155 296.797 C 380.305 274.806 364.884 255.374 345.195 245.183 C 332.348 238.533 325.406 236.806 310.000 236.428 C 302.575 236.246 294.509 236.515 292.075 237.026 M 321.500 252.499 C 339.781 256.324 357.716 270.278 365.847 287.000 C 371.283 298.179 373.000 305.376 373.000 316.980 C 373.000 327.524 370.677 337.854 366.512 345.839 C 362.319 353.877 362.472 353.838 359.430 347.625 C 355.812 340.236 347.501 331.137 339.735 326.063 C 336.325 323.835 333.121 321.874 332.616 321.705 C 332.111 321.537 333.128 319.426 334.875 317.013 C 341.434 307.960 342.676 295.090 338.033 284.298 C 335.479 278.362 326.993 269.731 321.422 267.403 C 304.361 260.274 285.655 266.989 277.371 283.216 C 271.935 293.861 273.471 309.464 280.811 318.188 C 282.616 320.333 283.065 321.478 282.212 321.763 C 281.522 321.993 278.295 323.959 275.042 326.131 C 267.641 331.073 260.099 339.255 255.623 347.199 L 252.180 353.307 248.574 346.147 C 243.890 336.847 241.784 327.659 241.776 316.500 C 241.764 298.417 247.746 284.221 260.974 270.941 C 277.723 254.126 298.711 247.731 321.500 252.499 M 320.068 333.609 C 327.684 335.865 332.929 339.174 338.904 345.493 C 344.047 350.930 349.998 361.681 349.999 365.538 C 350.000 366.940 347.989 368.898 343.559 371.810 C 326.376 383.108 305.527 385.762 286.289 379.100 C 277.196 375.951 265.000 368.397 265.000 365.914 C 265.000 362.841 267.905 355.983 271.500 350.566 C 281.413 335.631 302.290 328.342 320.068 333.609 M 316.039 282.020 C 328.664 288.461 328.664 307.539 316.039 313.980 C 308.979 317.582 298.848 315.915 293.788 310.320 C 291.279 307.545 288.997 301.541 289.022 297.782 C 289.048 293.900 291.942 287.189 294.611 284.819 C 300.434 279.651 309.160 278.511 316.039 282.020 " fill="#ffffff"/>
  </g>
  <g fill="#ffffff" stroke="#000000FF">
    <path d="M 205.405 130.103 C 203.642 132.050 203.477 134.336 203.187 160.853 C 202.846 191.967 203.310 195.909 207.538 197.835 C 209.348 198.660 221.862 199.000 250.412 199.000 C 289.687 199.000 290.798 198.946 293.365 196.927 L 296.000 194.855 296.000 163.427 C 296.000 133.333 295.915 131.915 294.000 130.000 C 292.063 128.063 290.667 128.000 249.655 128.000 C 207.887 128.000 207.284 128.029 205.405 130.103 M 281.000 163.500 L 281.000 184.000 250.000 184.000 L 219.000 184.000 219.000 163.500 L 219.000 143.000 250.000 143.000 L 281.000 143.000 281.000 163.500 " fill="#ffffff"/>
  </g>
</svg>
