<?xml version='1.0' encoding='utf-8'?>
<svg xmlns="http://www.w3.org/2000/svg" clip-rule="evenodd" fill-rule="evenodd" stroke-linejoin="round" stroke-miterlimit="2" viewBox="0 0 24 24" width="256px" height="256px" preserveAspectRatio="xMidYMid meet">
  <path d="m20 20.011h-15.25c-.414 0-.75.336-.75.75s.336.75.75.75h15.75c.53 0 1-.469 1-1v-15.75c0-.414-.336-.75-.75-.75s-.75.336-.75.75zm-1-17c0-.478-.379-1-1-1h-15c-.62 0-1 .519-1 1v15c0 .621.52 1 1 1h15c.478 0 1-.379 1-1zm-15.5.5h14v14h-14zm10.75 6.25h-7.5c-.414 0-.75.336-.75.75s.336.75.75.75h7.5c.414 0 .75-.336.75-.75s-.336-.75-.75-.75z" fill-rule="nonzero" fill="#ffffff" style="fill:#ffffff"/>
</svg>
