<?xml version='1.0' encoding='utf-8'?>
<!DOCTYPE svg PUBLIC "-//W3C//DTD SVG 20010904//EN" "http://www.w3.org/TR/2001/REC-SVG-20010904/DTD/svg10.dtd">
<svg xmlns="http://www.w3.org/2000/svg" version="1.0" width="512px" height="512px" viewBox="0 0 514 514" style="" preserveAspectRatio="xMidYMid meet">
  <g fill="#ffffff" stroke="#000000FF">
    <path d="M 203.000 21.634 C 172.527 24.703 146.985 36.282 129.847 54.798 C 117.993 67.604 115.985 75.695 116.023 110.500 C 116.038 124.250 115.623 138.313 115.101 141.752 C 112.864 156.478 118.056 171.703 129.506 184.000 C 132.239 186.936 132.874 188.547 133.447 194.000 C 134.372 202.819 139.232 217.029 144.186 225.403 C 146.433 229.199 151.585 235.774 155.635 240.014 C 159.686 244.253 163.000 248.176 163.000 248.731 C 163.000 249.346 156.651 249.955 146.750 250.289 C 128.300 250.912 122.515 252.153 110.417 258.083 C 91.374 267.417 77.406 283.977 70.842 305.000 L 68.500 312.500 68.500 387.500 L 68.500 462.500 71.934 468.834 C 75.870 476.094 81.549 481.191 89.195 484.325 C 94.498 486.499 94.541 486.500 190.500 486.789 C 257.925 486.991 288.492 486.744 293.193 485.958 C 297.552 485.229 301.866 483.646 305.564 481.419 C 308.687 479.539 311.582 478.000 311.997 478.000 C 312.412 478.000 315.170 479.059 318.126 480.353 C 332.469 486.631 353.595 488.160 369.500 484.069 C 385.799 479.877 402.924 469.113 413.053 456.691 C 419.600 448.663 426.480 434.700 429.136 424.050 C 431.968 412.694 431.424 392.206 428.005 381.500 C 422.043 362.826 409.408 345.760 394.635 336.426 L 390.004 333.500 390.002 313.756 L 390.000 294.013 382.750 285.873 C 378.763 281.396 374.527 276.535 373.338 275.071 L 371.176 272.410 380.588 261.955 C 392.708 248.492 392.744 248.074 382.750 236.926 C 378.763 232.478 374.524 227.637 373.332 226.169 L 371.164 223.500 380.579 213.000 C 393.502 198.589 393.523 198.910 378.750 184.719 C 357.789 164.584 352.270 160.000 348.990 160.000 C 346.484 160.000 343.123 162.718 328.510 176.561 C 318.895 185.669 310.347 194.095 309.514 195.283 C 308.242 197.100 308.000 202.351 308.000 228.167 L 308.000 258.890 302.603 256.503 C 292.802 252.169 286.125 250.908 269.750 250.301 C 257.936 249.862 254.000 249.397 254.000 248.438 C 254.000 247.735 256.614 244.537 259.809 241.330 C 272.926 228.164 280.344 213.097 282.976 194.275 C 283.895 187.695 284.379 186.639 288.394 182.450 C 297.423 173.027 302.686 158.464 301.561 146.020 C 301.236 142.434 300.609 125.550 300.167 108.500 C 299.268 73.783 298.943 71.917 291.960 61.274 C 282.403 46.709 261.467 32.894 239.148 26.426 C 227.315 22.997 210.977 20.831 203.000 21.634 M 163.171 277.750 C 163.452 288.639 163.838 291.185 165.813 295.195 C 168.764 301.187 174.813 307.236 180.805 310.187 C 185.290 312.397 186.507 312.500 208.000 312.500 C 229.788 312.500 230.656 312.423 235.423 310.077 C 241.713 306.981 247.618 301.071 250.336 295.149 C 252.021 291.478 252.578 287.871 252.985 278.000 L 253.500 265.500 263.500 265.182 C 280.151 264.653 293.118 267.518 303.299 273.975 L 308.000 276.956 308.000 305.262 L 308.000 333.569 304.945 335.374 C 299.394 338.653 289.990 347.051 285.410 352.820 C 272.415 369.190 266.371 387.896 267.138 409.376 L 267.500 419.500 204.500 419.500 L 141.500 419.500 141.000 380.277 C 140.506 341.553 140.472 341.026 138.306 338.860 C 135.430 335.986 130.569 335.986 127.694 338.861 C 125.501 341.055 125.500 341.076 125.500 385.500 L 125.500 429.944 127.777 432.222 L 130.054 434.500 175.027 434.780 L 220.000 435.059 220.000 453.052 L 220.000 471.044 157.172 470.772 L 94.343 470.500 90.662 467.692 C 88.638 466.148 86.069 463.095 84.953 460.908 C 82.963 457.007 82.931 455.604 83.231 385.216 L 83.537 313.500 85.838 307.317 C 92.372 289.757 105.251 276.228 121.855 269.481 C 129.992 266.174 136.048 265.257 150.671 265.117 L 162.841 265.000 163.171 277.750 M 360.727 188.793 L 371.955 199.500 362.480 210.000 C 349.980 223.852 349.978 223.472 362.601 237.432 L 372.201 248.049 365.351 255.659 C 353.327 269.017 353.083 269.353 353.041 272.671 C 353.007 275.330 354.775 277.796 364.000 287.955 L 375.000 300.069 375.000 320.100 C 375.000 331.231 375.434 340.943 375.977 341.957 C 376.515 342.962 379.327 345.123 382.227 346.760 C 402.335 358.113 416.000 381.423 416.000 404.370 C 416.000 434.519 395.063 461.436 365.593 469.173 C 357.847 471.207 342.413 471.599 335.000 469.950 C 329.307 468.684 320.000 465.005 320.000 464.020 C 320.000 463.609 320.437 460.971 320.970 458.158 C 322.124 452.074 320.800 443.489 317.803 437.613 C 312.753 427.716 300.573 420.000 289.998 420.000 C 283.377 420.000 282.614 418.450 282.610 405.000 C 282.606 392.575 284.427 384.654 289.710 374.114 C 294.481 364.595 305.430 352.842 314.428 347.580 C 318.099 345.433 321.530 342.879 322.051 341.904 C 322.623 340.836 323.000 312.733 323.000 271.157 L 323.000 202.182 335.750 190.112 C 342.763 183.474 348.725 178.053 349.000 178.065 C 349.275 178.077 354.552 182.905 360.727 188.793 M 226.026 103.012 C 237.166 104.343 243.386 105.797 249.597 108.520 C 254.463 110.653 254.723 110.965 255.329 115.381 C 257.029 127.785 268.200 137.922 280.231 137.978 C 285.313 138.002 284.872 137.483 286.476 145.327 C 287.211 148.927 285.395 158.181 282.919 163.449 C 281.689 166.065 277.903 170.986 274.505 174.383 L 268.328 180.561 267.724 189.030 C 267.028 198.776 263.680 209.579 258.821 217.759 C 251.656 229.819 233.523 244.361 219.688 249.142 C 213.020 251.446 202.980 251.446 196.312 249.142 C 187.821 246.208 175.133 237.973 167.577 230.494 C 155.598 218.634 149.684 205.953 148.080 188.682 L 147.261 179.864 141.727 174.589 C 134.060 167.281 130.795 160.539 130.212 150.815 C 129.496 138.893 129.779 138.372 137.280 137.770 C 144.621 137.180 148.560 135.383 153.373 130.428 C 157.405 126.276 159.911 121.414 160.706 116.199 C 161.017 114.165 161.937 111.732 162.751 110.793 C 165.296 107.859 177.672 104.479 192.500 102.666 C 199.084 101.862 218.031 102.057 226.026 103.012 M 231.000 39.920 C 247.203 44.156 265.592 54.409 274.693 64.283 C 283.364 73.689 285.000 80.162 285.000 105.049 L 285.000 123.000 281.750 122.996 C 274.809 122.988 271.228 118.862 269.581 108.974 C 268.192 100.640 257.950 93.699 241.500 89.945 C 221.411 85.361 183.496 86.474 166.513 92.147 C 154.370 96.203 146.006 104.129 145.996 111.588 C 145.988 117.747 140.667 123.000 134.435 123.000 L 132.000 123.000 132.000 102.126 C 132.000 86.384 132.359 80.234 133.460 77.115 C 139.303 60.553 163.870 44.242 191.625 38.497 C 201.604 36.431 220.230 37.105 231.000 39.920 M 295.929 436.752 C 297.815 437.713 300.740 440.229 302.429 442.343 C 305.181 445.786 305.500 446.894 305.500 453.000 C 305.500 459.106 305.181 460.214 302.429 463.657 C 296.654 470.884 296.059 470.997 263.750 470.998 L 235.000 471.000 235.000 453.000 L 235.000 435.000 263.750 435.002 C 289.145 435.003 292.900 435.207 295.929 436.752 M 182.790 259.887 C 198.224 267.739 217.241 267.979 231.984 260.508 C 234.706 259.129 237.206 258.000 237.539 258.000 C 237.872 258.000 237.999 264.638 237.822 272.750 C 237.523 286.448 237.329 287.740 235.099 290.867 C 230.804 296.889 226.734 297.953 207.907 297.978 C 192.492 297.998 191.006 297.837 186.960 295.697 C 183.984 294.123 181.877 292.016 180.303 289.040 C 178.232 285.124 178.000 283.343 178.000 271.343 C 178.000 264.004 178.243 258.000 178.540 258.000 C 178.837 258.000 180.749 258.849 182.790 259.887 " fill="#ffffff"/>
  </g>
  <g fill="#ffffff" stroke="#000000FF">
    <path d="M 338.882 374.321 C 330.104 377.602 323.344 383.797 319.648 391.949 C 316.752 398.336 316.768 410.698 319.680 417.122 C 322.769 423.938 328.671 429.920 335.500 433.155 C 347.824 438.995 363.383 435.987 372.363 426.029 C 378.419 419.312 380.470 413.866 380.470 404.500 C 380.470 395.157 378.416 389.680 372.426 383.050 C 366.619 376.622 360.100 373.728 350.500 373.314 C 345.416 373.095 341.181 373.462 338.882 374.321 M 355.316 389.120 C 362.373 392.739 366.841 400.766 365.453 407.334 C 362.322 422.156 342.721 425.993 334.886 413.316 C 331.911 408.502 331.758 400.899 334.540 396.166 C 338.453 389.512 349.062 385.913 355.316 389.120 " fill="#ffffff"/>
  </g>
</svg>
