<?xml version='1.0' encoding='utf-8'?>
<!DOCTYPE svg PUBLIC "-//W3C//DTD SVG 20010904//EN" "http://www.w3.org/TR/2001/REC-SVG-20010904/DTD/svg10.dtd">
<svg xmlns="http://www.w3.org/2000/svg" version="1.0" width="512px" height="512px" viewBox="0 0 514 514" style="" preserveAspectRatio="xMidYMid meet">
  <g fill="#ffffff" stroke="#000000FF">
    <path d="M 154.000 96.995 C 139.104 100.154 122.828 106.978 110.925 115.054 C 107.859 117.135 102.125 122.290 98.185 126.509 C 89.340 135.981 84.309 145.610 83.158 155.273 C 82.151 163.737 83.506 184.788 85.500 191.648 C 86.601 195.436 87.000 201.895 87.000 215.946 C 87.000 229.475 87.463 237.343 88.581 242.792 C 91.955 259.246 99.497 273.283 111.375 285.217 L 119.250 293.128 118.801 300.874 C 118.228 310.777 117.799 311.458 113.714 308.967 C 107.954 305.455 92.421 306.725 77.180 311.955 C 56.403 319.084 36.909 336.309 26.765 356.500 C 15.931 378.064 9.000 424.691 9.000 476.007 L 9.000 494.855 11.647 496.937 L 14.295 499.020 161.236 498.760 L 308.177 498.500 310.225 496.000 C 312.199 493.590 312.250 492.700 311.621 471.251 C 310.161 421.483 305.437 386.458 297.359 365.500 C 284.354 331.764 254.613 309.453 219.775 307.302 C 210.447 306.725 209.887 306.809 206.061 309.341 L 202.072 311.981 201.101 308.240 C 200.566 306.183 199.831 302.406 199.465 299.846 C 198.838 295.446 198.984 295.038 202.151 292.374 C 214.264 282.180 223.688 269.367 228.546 256.488 C 232.843 245.097 234.000 236.583 234.000 216.363 L 234.000 197.902 240.019 185.701 C 249.437 166.612 249.843 159.027 242.267 143.737 C 239.534 138.223 236.601 134.477 229.944 128.000 C 223.162 121.401 220.592 118.096 218.455 113.223 C 215.520 106.529 210.908 101.695 205.169 99.297 C 194.467 94.826 169.521 93.703 154.000 96.995 M 112.111 326.056 C 139.633 346.774 156.026 358.000 158.755 358.000 C 160.968 358.000 168.410 353.389 188.031 339.865 L 214.340 321.730 221.920 322.325 C 247.435 324.329 271.839 342.670 282.410 367.786 C 289.955 385.712 294.855 419.397 296.589 465.250 L 297.298 484.000 274.149 484.000 L 251.000 484.000 251.000 445.955 L 251.000 407.909 248.545 405.455 C 245.601 402.510 242.071 402.312 238.861 404.911 L 236.500 406.822 236.216 445.411 L 235.932 484.000 159.966 484.000 L 84.000 484.000 84.000 445.573 L 84.000 407.145 81.365 405.073 C 78.081 402.489 74.919 402.435 71.861 404.911 L 69.500 406.822 69.216 445.411 L 68.932 484.000 45.922 484.000 L 22.912 484.000 23.511 469.750 C 25.970 411.283 31.063 379.805 41.116 360.936 C 52.694 339.204 78.819 322.274 101.111 322.055 C 106.159 322.006 107.264 322.407 112.111 326.056 M 127.112 191.870 C 136.795 196.221 145.279 198.060 158.500 198.674 C 172.825 199.340 184.654 197.584 199.114 192.645 L 208.729 189.361 214.457 193.930 L 220.185 198.500 219.659 217.500 C 219.056 239.320 217.590 246.216 210.773 259.320 C 197.761 284.330 169.270 296.847 144.376 288.490 C 140.264 287.110 135.685 285.211 134.200 284.270 C 118.385 274.250 108.403 260.716 103.932 243.234 C 102.368 237.118 102.000 232.191 102.000 217.357 L 102.000 199.034 106.750 196.585 C 109.363 195.238 113.075 193.003 115.000 191.617 C 116.925 190.232 119.000 189.076 119.612 189.049 C 120.223 189.022 123.598 190.292 127.112 191.870 M 185.425 110.039 C 190.334 110.601 196.296 111.922 198.675 112.974 C 202.503 114.668 203.385 115.725 206.364 122.194 C 209.127 128.190 211.280 130.962 218.377 137.656 C 233.194 151.631 235.714 160.770 228.763 175.327 L 225.025 183.154 222.263 181.168 C 220.743 180.076 218.178 177.792 216.563 176.091 C 212.854 172.188 210.186 172.159 201.331 175.927 C 189.717 180.869 179.547 183.138 166.383 183.722 C 151.149 184.398 142.064 182.605 129.440 176.431 C 124.458 173.994 119.233 172.000 117.831 172.000 C 116.313 172.000 113.505 173.541 110.891 175.808 C 108.476 177.903 104.828 180.630 102.784 181.869 L 99.068 184.121 98.378 181.371 C 97.999 179.858 97.646 172.968 97.594 166.060 C 97.511 155.004 97.758 153.018 99.654 149.479 C 103.238 142.787 109.606 134.927 115.203 130.288 C 126.090 121.265 149.123 112.012 165.500 110.084 C 175.465 108.910 175.572 108.910 185.425 110.039 M 141.000 303.093 C 152.885 306.874 168.045 306.659 182.500 302.504 C 184.296 301.988 184.726 302.866 186.714 311.118 C 187.932 316.172 188.710 320.660 188.444 321.091 C 188.177 321.522 181.430 326.386 173.450 331.899 L 158.940 341.924 144.402 331.276 C 132.076 322.247 129.958 320.313 130.482 318.564 C 130.821 317.429 131.854 313.013 132.777 308.750 C 133.701 304.488 134.466 301.006 134.478 301.013 C 134.490 301.020 137.425 301.956 141.000 303.093 " fill="#ffffff"/>
  </g>
  <g fill="#ffffff" stroke="#000000FF">
    <path d="M 278.878 16.898 L 276.500 18.823 276.234 107.781 C 275.976 194.284 276.022 196.805 277.892 199.120 C 279.650 201.294 280.754 201.543 290.658 202.000 L 301.500 202.500 301.750 225.500 C 301.989 247.528 302.088 248.574 304.110 250.250 C 307.015 252.658 311.411 252.442 314.318 249.750 C 315.655 248.513 325.377 237.263 335.924 224.750 L 355.099 202.000 420.939 202.000 C 484.274 202.000 486.868 201.927 489.139 200.088 L 491.500 198.177 491.500 108.624 C 491.500 23.990 491.402 18.973 489.714 17.286 C 488.027 15.598 482.261 15.486 384.592 15.236 C 283.876 14.979 281.195 15.021 278.878 16.898 M 477.000 108.500 L 477.000 187.000 413.111 187.000 C 353.686 187.000 349.083 187.122 347.239 188.750 C 346.149 189.713 338.787 198.135 330.878 207.466 L 316.500 224.432 316.226 207.770 C 315.953 191.141 315.947 191.103 313.341 189.054 C 311.108 187.297 309.302 187.000 300.865 187.000 L 291.000 187.000 291.000 108.500 L 291.000 30.000 384.000 30.000 L 477.000 30.000 477.000 108.500 " fill="#ffffff"/>
  </g>
  <g fill="#ffffff" stroke="#000000FF">
    <path d="M 372.655 235.829 C 369.856 238.921 370.740 243.189 378.000 261.642 C 381.850 271.427 385.000 279.831 385.000 280.318 C 385.000 280.804 382.333 284.518 379.073 288.570 C 359.518 312.877 345.956 338.751 338.485 366.000 C 335.340 377.473 334.219 392.969 335.938 401.219 C 340.802 424.571 364.266 443.253 394.500 447.845 C 413.564 450.741 440.261 449.909 455.551 445.944 C 476.877 440.413 492.630 428.297 500.822 411.127 C 503.982 404.503 504.387 402.686 504.806 393.246 C 505.375 380.464 504.085 372.556 498.758 356.179 C 491.450 333.709 476.005 305.905 460.978 288.169 L 454.766 280.837 462.024 262.169 C 466.016 251.901 469.294 242.268 469.308 240.763 C 469.376 233.428 460.152 231.663 449.475 236.969 C 446.189 238.601 442.528 239.951 441.340 239.969 C 440.152 239.986 436.327 238.650 432.840 237.001 C 427.821 234.626 425.146 234.002 420.000 234.002 C 414.854 234.002 412.179 234.626 407.160 237.001 C 403.673 238.650 400.001 240.000 399.000 240.000 C 397.999 240.000 394.327 238.650 390.840 237.001 C 383.214 233.393 375.320 232.884 372.655 235.829 M 449.611 297.750 C 471.975 324.067 490.200 365.107 490.386 389.567 C 490.448 397.804 490.164 399.223 487.284 405.067 C 478.021 423.865 459.098 433.173 427.099 434.669 C 405.197 435.693 387.338 432.723 373.534 425.762 C 366.161 422.044 356.205 412.200 353.040 405.500 C 342.865 383.961 359.508 336.433 390.772 297.750 L 396.227 291.000 420.051 291.000 L 443.875 291.000 449.611 297.750 M 429.500 251.830 C 433.466 253.848 436.004 254.382 441.772 254.410 C 447.862 254.439 448.953 254.693 448.485 255.972 C 448.179 256.813 446.293 261.663 444.295 266.750 L 440.662 276.000 420.062 276.000 L 399.461 276.000 395.365 265.250 L 391.269 254.500 398.477 254.449 C 404.150 254.409 406.837 253.838 411.093 251.770 C 419.974 247.454 420.905 247.457 429.500 251.830 " fill="#ffffff"/>
  </g>
  <g fill="#ffffff" stroke="#000000FF">
    <path d="M 352.374 73.099 C 336.493 86.353 322.263 98.363 320.750 99.786 C 317.245 103.085 317.131 107.222 320.455 110.545 C 323.305 113.396 324.982 113.578 329.050 111.474 L 332.000 109.949 332.000 136.339 C 332.000 161.524 332.095 162.851 334.073 165.365 L 336.145 168.000 354.398 168.000 C 378.666 168.000 377.000 169.719 377.000 144.686 L 377.000 126.000 384.000 126.000 L 391.000 126.000 391.000 144.826 C 391.000 169.674 389.385 168.000 413.360 168.000 C 430.852 168.000 431.124 167.967 433.545 165.545 L 436.000 163.091 436.000 136.520 L 436.000 109.949 438.950 111.474 C 440.573 112.313 442.618 113.000 443.496 113.000 C 446.169 113.000 450.000 108.365 450.000 105.130 C 450.000 101.699 450.428 102.094 412.152 70.153 C 392.525 53.774 386.177 49.000 384.026 49.000 C 381.864 49.000 374.843 54.345 352.374 73.099 M 403.250 82.231 L 421.000 97.070 421.000 125.035 L 421.000 153.000 413.500 153.000 L 406.000 153.000 406.000 135.547 C 406.000 116.318 405.408 113.686 400.713 112.050 C 396.804 110.687 371.196 110.687 367.287 112.050 C 362.592 113.686 362.000 116.318 362.000 135.547 L 362.000 153.000 354.484 153.000 L 346.969 153.000 347.234 124.813 L 347.500 96.625 365.500 81.430 C 375.400 73.073 383.950 66.496 384.500 66.814 C 385.050 67.132 393.488 74.069 403.250 82.231 " fill="#ffffff"/>
  </g>
  <g fill="#ffffff" stroke="#000000FF">
    <path d="M 415.189 329.039 C 413.702 330.424 412.997 332.269 412.990 334.789 C 412.980 338.338 412.722 338.620 407.072 341.248 C 397.146 345.866 393.491 355.185 397.974 364.446 C 400.811 370.307 405.434 373.025 418.500 376.514 C 430.678 379.766 433.000 381.104 433.000 384.868 C 433.000 389.783 429.893 391.500 421.000 391.500 C 412.233 391.500 410.284 390.432 406.881 383.766 C 403.923 377.969 398.754 377.394 395.414 382.492 C 391.794 388.016 398.055 398.174 407.491 402.085 C 412.808 404.289 413.000 404.501 413.000 408.184 C 413.000 418.412 425.962 418.903 427.539 408.735 C 428.159 404.736 428.520 404.352 434.024 401.840 C 444.512 397.053 448.755 386.323 444.025 376.551 C 441.142 370.595 436.168 367.697 422.472 363.992 C 410.733 360.817 409.000 359.845 409.000 356.434 C 409.000 352.901 412.599 351.000 419.288 351.000 C 426.477 351.000 428.448 351.998 430.952 356.905 C 432.028 359.016 433.878 360.996 435.062 361.306 C 438.189 362.124 441.853 360.417 443.168 357.530 C 445.500 352.413 438.496 342.639 430.640 340.046 C 428.283 339.268 427.287 338.416 427.645 337.482 C 428.469 335.335 426.067 329.106 423.986 327.992 C 421.042 326.417 417.558 326.831 415.189 329.039 " fill="#ffffff"/>
  </g>
</svg>
