<?xml version='1.0' encoding='utf-8'?>
<!DOCTYPE svg PUBLIC "-//W3C//DTD SVG 20010904//EN" "http://www.w3.org/TR/2001/REC-SVG-20010904/DTD/svg10.dtd">
<svg xmlns="http://www.w3.org/2000/svg" version="1.0" width="256px" height="256px" viewBox="0 0 24 24" style="" preserveAspectRatio="xMidYMid meet">
  <g fill="#ffffff" stroke="#FFFFFFFF">
    <path d="M 77.994 55.879 C 70.922 58.187 65.208 63.075 62.719 68.944 C 62.123 70.350 61.380 76.450 61.068 82.500 L 60.500 93.500 38.500 94.000 C 20.537 94.408 15.950 94.805 13.500 96.161 C 9.725 98.251 5.774 102.476 3.364 107.000 C 1.567 110.374 1.500 116.438 1.500 276.000 L 1.500 441.500 3.658 445.500 C 6.184 450.180 10.101 454.027 15.000 456.636 C 18.387 458.440 26.211 458.500 257.000 458.500 L 495.500 458.500 499.500 456.342 C 504.180 453.816 508.027 449.899 510.636 445.000 C 512.433 441.626 512.500 435.562 512.500 276.000 C 512.500 116.438 512.433 110.374 510.636 107.000 C 508.226 102.476 504.275 98.251 500.500 96.161 C 498.050 94.805 493.463 94.408 475.500 94.000 L 453.500 93.500 452.942 82.500 C 452.363 71.104 451.118 67.088 446.633 62.153 C 438.653 53.371 422.347 53.371 414.367 62.153 C 409.882 67.088 408.637 71.104 408.058 82.500 L 407.500 93.500 372.500 93.500 L 337.500 93.500 336.979 82.000 C 336.386 68.921 335.346 66.164 328.938 60.679 C 318.915 52.099 303.505 54.243 296.228 65.228 C 293.734 68.992 293.457 70.384 293.000 81.423 L 292.500 93.500 257.400 93.763 L 222.301 94.025 221.713 82.871 C 220.991 69.189 218.850 64.141 211.733 59.342 C 203.101 53.522 192.822 54.037 185.062 60.679 C 178.654 66.164 177.614 68.921 177.021 82.000 L 176.500 93.500 141.500 93.500 L 106.500 93.500 105.942 82.500 C 105.363 71.104 104.118 67.088 99.633 62.153 C 94.956 57.006 84.144 53.871 77.994 55.879 M 497.760 310.500 C 497.943 398.842 497.698 437.283 496.943 439.120 C 496.350 440.561 494.749 442.249 493.385 442.870 C 489.873 444.470 24.169 444.490 20.657 442.890 C 19.317 442.279 17.721 440.683 17.110 439.343 C 15.882 436.647 15.447 185.886 16.669 184.665 C 17.037 184.297 125.374 184.109 257.419 184.248 L 497.500 184.500 497.760 310.500 M 61.000 112.557 C 61.000 120.735 62.950 125.957 67.912 131.071 C 77.275 140.722 91.046 140.361 100.183 130.227 C 104.363 125.591 105.986 120.849 105.994 113.250 L 106.000 108.000 141.500 108.000 L 177.000 108.000 177.000 114.032 C 177.000 121.152 178.902 126.236 183.301 130.872 C 191.488 139.501 204.247 140.374 213.279 132.924 C 218.449 128.659 221.019 123.167 221.712 114.899 L 222.292 107.975 257.396 108.237 L 292.500 108.500 293.059 115.673 C 293.813 125.358 297.412 131.304 304.880 135.206 C 311.978 138.914 317.814 138.927 325.064 135.250 C 333.073 131.189 336.251 126.104 336.951 116.233 L 337.500 108.500 372.611 108.237 L 407.721 107.975 408.404 114.737 C 409.611 126.688 415.218 134.401 424.607 137.030 C 439.396 141.171 453.000 130.322 453.000 114.386 L 453.000 108.000 472.066 108.000 C 491.318 108.000 494.046 108.433 496.718 111.913 C 497.608 113.072 497.945 121.121 497.968 141.750 L 498.000 170.000 257.000 170.000 L 16.000 170.000 16.000 142.223 C 16.000 112.351 16.207 111.070 21.357 108.992 C 22.536 108.516 31.938 108.098 42.250 108.063 L 61.000 108.000 61.000 112.557 M 435.545 72.455 L 438.000 74.909 438.000 96.640 C 438.000 117.576 437.920 118.456 435.826 120.686 C 432.752 123.957 427.782 123.809 425.073 120.365 C 423.122 117.886 423.000 116.466 423.000 96.320 C 423.000 74.921 423.001 74.908 425.455 72.455 C 426.805 71.105 429.075 70.000 430.500 70.000 C 431.925 70.000 434.195 71.105 435.545 72.455 M 319.686 72.174 C 321.971 74.321 322.000 74.631 322.000 96.674 C 322.000 117.667 321.881 119.119 320.000 121.000 C 317.474 123.526 312.922 123.567 309.861 121.090 C 307.541 119.213 307.495 118.832 307.190 98.898 C 307.019 87.742 307.143 77.565 307.465 76.282 C 308.958 70.336 315.417 68.164 319.686 72.174 M 88.545 72.455 L 91.000 74.909 91.000 96.640 C 91.000 117.576 90.920 118.456 88.826 120.686 C 85.752 123.957 80.782 123.809 78.073 120.365 C 76.122 117.886 76.000 116.466 76.000 96.320 C 76.000 74.921 76.001 74.908 78.455 72.455 C 79.805 71.105 82.075 70.000 83.500 70.000 C 84.925 70.000 87.195 71.105 88.545 72.455 M 204.139 71.910 C 206.473 73.798 206.503 74.072 206.804 95.901 L 207.108 117.983 204.600 120.491 C 201.493 123.598 197.406 123.730 194.314 120.826 C 192.030 118.679 192.000 118.366 192.000 96.398 L 192.000 74.145 194.635 72.073 C 197.919 69.489 201.080 69.435 204.139 71.910 " fill="#ffffff"/>
  </g>
  <g fill="#ffffff" stroke="#FFFFFFFF">
    <path d="M 195.455 209.455 L 193.000 211.909 193.000 256.000 L 193.000 300.091 195.455 302.545 L 197.909 305.000 257.000 305.000 L 316.091 305.000 318.545 302.545 L 321.000 300.091 321.000 256.000 L 321.000 211.909 318.545 209.455 L 316.091 207.000 257.000 207.000 L 197.909 207.000 195.455 209.455 M 306.000 256.000 L 306.000 290.000 257.000 290.000 L 208.000 290.000 208.000 256.000 L 208.000 222.000 257.000 222.000 L 306.000 222.000 306.000 256.000 " fill="#ffffff"/>
  </g>
  <g fill="#ffffff" stroke="#FFFFFFFF">
    <path d="M 346.861 208.912 L 344.500 210.823 344.500 255.876 C 344.500 297.788 344.624 301.053 346.285 302.714 C 347.953 304.382 351.986 304.518 407.371 304.773 C 466.263 305.044 466.691 305.031 469.336 302.950 L 472.000 300.855 472.000 256.000 L 472.000 211.145 469.365 209.073 C 466.767 207.029 465.902 207.000 407.976 207.000 C 351.617 207.000 349.125 207.078 346.861 208.912 M 457.763 255.750 L 457.500 289.500 408.250 289.759 L 359.000 290.019 359.000 256.009 L 359.000 222.000 408.513 222.000 L 458.027 222.000 457.763 255.750 " fill="#ffffff"/>
  </g>
  <g fill="#ffffff" stroke="#FFFFFFFF">
    <path d="M 44.635 209.073 L 42.000 211.145 42.000 256.000 L 42.000 300.855 44.664 302.950 C 47.309 305.031 47.737 305.044 106.629 304.773 C 162.014 304.518 166.047 304.382 167.715 302.714 C 169.376 301.053 169.500 297.788 169.500 255.876 L 169.500 210.823 167.139 208.912 C 164.875 207.078 162.383 207.000 106.024 207.000 C 48.098 207.000 47.233 207.029 44.635 209.073 M 155.000 256.009 L 155.000 290.019 105.750 289.759 L 56.500 289.500 56.237 255.750 L 55.973 222.000 105.487 222.000 L 155.000 222.000 155.000 256.009 " fill="#ffffff"/>
  </g>
  <g fill="#ffffff" stroke="#FFFFFFFF">
    <path d="M 195.000 326.000 C 193.060 327.940 193.000 329.333 193.000 372.311 C 193.000 415.523 193.051 416.677 195.039 418.811 L 197.078 421.000 257.000 421.000 L 316.922 421.000 318.961 418.811 C 320.949 416.678 321.000 415.522 321.000 372.500 C 321.000 329.478 320.949 328.322 318.961 326.189 L 316.922 324.000 256.961 324.000 C 198.333 324.000 196.956 324.044 195.000 326.000 M 306.000 372.500 L 306.000 407.000 257.000 407.000 L 208.000 407.000 208.000 372.500 L 208.000 338.000 257.000 338.000 L 306.000 338.000 306.000 372.500 " fill="#ffffff"/>
  </g>
  <g fill="#ffffff" stroke="#FFFFFFFF">
    <path d="M 346.073 326.635 C 344.048 329.208 344.000 330.279 344.000 372.500 C 344.000 414.721 344.048 415.792 346.073 418.365 L 348.145 421.000 408.073 421.000 C 466.667 421.000 468.044 420.956 470.000 419.000 C 471.940 417.060 472.000 415.667 472.000 372.500 C 472.000 329.333 471.940 327.940 470.000 326.000 C 468.044 324.044 466.667 324.000 408.073 324.000 L 348.145 324.000 346.073 326.635 M 457.500 372.500 L 457.500 406.500 408.250 406.759 L 359.000 407.019 359.000 372.500 L 359.000 337.981 408.250 338.241 L 457.500 338.500 457.500 372.500 " fill="#ffffff"/>
  </g>
  <g fill="#ffffff" stroke="#FFFFFFFF">
    <path d="M 44.000 326.000 C 42.060 327.940 42.000 329.333 42.000 372.500 C 42.000 415.667 42.060 417.060 44.000 419.000 C 45.956 420.956 47.333 421.000 105.927 421.000 L 165.855 421.000 167.927 418.365 C 169.952 415.792 170.000 414.721 170.000 372.500 C 170.000 330.279 169.952 329.208 167.927 326.635 L 165.855 324.000 105.927 324.000 C 47.333 324.000 45.956 324.044 44.000 326.000 M 155.000 372.509 L 155.000 407.019 105.750 406.759 L 56.500 406.500 56.236 373.508 C 56.091 355.362 56.189 339.949 56.455 339.258 C 56.833 338.271 67.508 338.000 105.969 338.000 L 155.000 338.000 155.000 372.509 " fill="#ffffff"/>
  </g>
  <g fill="#ffffff" stroke="#FFFFFFFF">
    <path d="M 238.364 234.170 C 235.651 235.483 233.749 239.595 234.574 242.365 C 234.923 243.539 237.735 247.088 240.823 250.250 L 246.437 256.000 240.823 261.750 C 237.735 264.913 234.923 268.461 234.574 269.635 C 233.161 274.383 238.617 279.839 243.365 278.426 C 244.539 278.077 248.088 275.265 251.250 272.177 L 257.000 266.563 262.750 272.177 C 265.913 275.265 269.461 278.077 270.635 278.426 C 274.889 279.692 280.000 275.293 280.000 270.366 C 280.000 269.520 277.229 265.941 273.841 262.413 L 267.683 256.000 273.841 249.587 C 280.079 243.091 280.458 242.310 279.359 238.210 C 278.589 235.336 273.642 232.676 270.700 233.553 C 269.490 233.914 265.926 236.722 262.781 239.793 L 257.062 245.376 250.617 239.188 C 244.160 232.987 242.343 232.243 238.364 234.170 " fill="#ffffff"/>
  </g>
  <g fill="#ffffff" stroke="#FFFFFFFF">
    <path d="M 388.000 352.000 C 384.218 355.782 385.315 359.755 392.002 366.502 L 398.004 372.558 392.002 378.498 C 387.092 383.357 386.000 385.034 386.000 387.719 C 386.000 391.900 389.017 395.000 393.087 395.000 C 395.497 395.000 397.537 393.691 402.394 389.026 L 408.615 383.053 414.526 389.026 C 421.274 395.845 424.969 396.791 428.826 392.686 C 432.548 388.724 431.687 385.511 425.069 378.664 L 419.137 372.527 425.069 366.350 C 431.785 359.355 432.664 355.912 428.686 352.174 C 424.724 348.452 421.511 349.313 414.664 355.931 L 408.527 361.863 402.350 355.931 C 395.498 349.352 391.691 348.309 388.000 352.000 " fill="#ffffff"/>
  </g>
  <g fill="#ffffff" stroke="#FFFFFFFF">
    <path d="M 415.169 246.368 C 407.603 253.865 400.966 260.000 400.422 260.000 C 399.877 260.000 396.987 257.525 394.000 254.500 C 387.897 248.321 383.723 247.277 380.000 251.000 C 376.025 254.975 377.263 258.279 386.225 267.614 C 395.200 276.963 398.747 279.353 402.317 278.457 C 403.601 278.134 412.245 270.267 421.526 260.974 C 437.022 245.458 438.400 243.788 438.400 240.525 C 438.400 236.299 436.644 234.279 432.200 233.390 C 429.057 232.761 428.381 233.277 415.169 246.368 " fill="#ffffff"/>
  </g>
  <g fill="#ffffff" stroke="#FFFFFFFF">
    <path d="M 111.853 363.681 L 98.047 377.362 91.610 371.181 C 84.989 364.824 83.443 364.171 79.684 366.150 C 76.688 367.727 76.033 368.939 76.015 372.942 C 76.002 375.960 77.147 377.532 85.308 385.692 C 98.608 398.992 97.079 399.357 118.718 377.718 C 133.934 362.502 136.000 360.052 136.000 357.218 C 136.000 353.063 132.958 350.000 128.830 350.000 C 126.098 350.000 123.755 351.887 111.853 363.681 " fill="#ffffff"/>
  </g>
  <g fill="#ffffff" stroke="#FFFFFFFF">
    <path d="M 263.080 363.427 L 249.500 376.854 243.223 370.927 C 236.340 364.427 233.884 363.730 229.635 367.073 C 227.770 368.539 227.000 370.080 227.000 372.341 C 227.000 375.054 228.478 377.010 236.768 385.269 C 244.662 393.133 247.097 395.000 249.461 395.000 C 251.912 395.000 255.213 392.186 269.848 377.617 C 285.777 361.761 287.303 359.939 287.216 356.875 C 287.099 352.794 284.053 350.000 279.719 350.000 C 277.133 350.000 274.560 352.077 263.080 363.427 " fill="#ffffff"/>
  </g>
  <g fill="#ffffff" stroke="#FFFFFFFF">
    <path d="M 125.500 234.199 C 124.400 234.826 117.977 240.887 111.227 247.669 C 104.477 254.451 98.667 260.000 98.317 260.000 C 97.967 260.000 95.086 257.525 91.915 254.500 C 87.228 250.030 85.508 249.000 82.729 249.000 C 78.431 249.000 76.000 251.564 76.000 256.098 C 76.000 259.113 77.170 260.705 85.436 268.936 C 98.676 282.121 96.931 282.543 118.573 260.927 C 133.859 245.660 136.000 243.130 136.000 240.333 C 136.000 238.080 135.227 236.537 133.365 235.073 C 130.410 232.748 128.434 232.529 125.500 234.199 " fill="#ffffff"/>
  </g>
</svg>
