<?xml version='1.0' encoding='utf-8'?>
<!DOCTYPE svg PUBLIC "-//W3C//DTD SVG 20010904//EN" "http://www.w3.org/TR/2001/REC-SVG-20010904/DTD/svg10.dtd">
<svg xmlns="http://www.w3.org/2000/svg" version="1.0" width="256px" height="256px" viewBox="0 0 512 512" style="" preserveAspectRatio="xMidYMid meet">
  <g fill="#ffffff" stroke="#FFFFFFFF">
    <path d="M 72.863 1.669 C 67.708 2.533 59.698 8.296 56.536 13.416 C 53.632 18.118 53.486 18.892 53.171 31.166 L 52.841 44.000 46.131 44.000 C 32.764 44.000 21.453 48.655 12.935 57.662 C 6.953 63.988 3.491 71.098 2.060 80.000 C 0.627 88.915 0.612 407.950 2.044 417.000 C 4.701 433.791 16.889 447.131 33.535 451.467 C 38.679 452.807 56.064 453.000 171.523 453.000 L 303.625 453.000 309.845 462.500 C 332.384 496.926 371.601 515.773 412.688 511.925 C 444.817 508.917 475.158 490.886 493.880 463.674 C 498.783 456.548 505.673 441.441 508.436 431.759 C 514.595 410.172 513.569 384.840 505.685 363.896 C 498.117 343.790 484.628 325.820 467.812 313.441 L 461.500 308.794 461.000 192.095 L 460.500 75.395 456.734 67.776 C 449.161 52.454 434.993 44.000 416.890 44.000 L 410.201 44.000 409.821 31.250 C 409.405 17.274 408.615 14.769 402.790 8.944 C 393.148 -0.698 376.852 -0.698 367.210 8.944 C 361.385 14.769 360.595 17.274 360.179 31.250 L 359.799 44.000 333.900 44.000 L 308.000 44.000 308.000 34.182 C 308.000 22.111 306.121 15.246 301.380 9.999 C 291.318 -1.139 273.581 -1.259 263.919 9.745 C 258.856 15.511 257.716 19.336 257.212 32.250 L 256.753 44.000 230.877 44.000 L 205.000 44.000 205.000 32.468 C 205.000 16.304 202.091 10.089 191.939 4.563 C 182.681 -0.475 171.520 0.832 163.712 7.871 C 156.977 13.942 155.021 19.534 155.010 32.750 L 155.000 44.000 129.103 44.000 L 103.206 44.000 102.816 31.750 C 102.383 18.115 101.079 14.284 94.838 8.301 C 89.523 3.207 80.300 0.423 72.863 1.669 M 445.000 223.000 C 445.000 265.350 444.888 300.000 444.750 299.999 C 444.613 299.999 442.250 299.150 439.500 298.111 C 436.750 297.073 431.060 295.464 426.856 294.535 L 419.211 292.846 418.536 287.444 C 417.083 275.809 409.226 265.282 398.243 260.254 C 390.476 256.698 379.524 256.698 371.757 260.254 C 359.831 265.714 351.855 277.193 351.621 289.232 C 351.555 292.680 351.853 297.159 352.283 299.186 L 353.067 302.873 345.996 307.003 C 331.947 315.207 318.107 328.548 309.169 342.500 C 306.703 346.350 304.602 349.617 304.500 349.759 C 304.399 349.901 301.472 348.551 297.997 346.759 C 289.587 342.422 279.368 341.748 270.798 344.966 C 263.327 347.772 255.845 354.580 252.300 361.797 C 249.863 366.761 249.500 368.667 249.500 376.500 C 249.500 384.310 249.866 386.246 252.270 391.142 C 255.505 397.727 262.206 404.283 268.824 407.334 C 272.529 409.042 275.400 409.491 282.649 409.495 L 291.798 409.500 292.425 415.043 C 292.770 418.091 293.887 424.088 294.907 428.370 C 296.260 434.048 296.448 436.275 295.602 436.599 C 294.964 436.844 236.630 436.922 165.971 436.772 C 46.095 436.518 37.252 436.383 33.787 434.752 C 28.024 432.039 22.907 426.994 20.351 421.507 L 18.020 416.500 18.010 281.250 L 18.000 146.000 231.500 146.000 L 445.000 146.000 445.000 223.000 M 425.863 310.957 C 454.733 319.241 477.545 338.863 488.477 364.815 C 494.308 378.656 495.473 384.838 495.485 402.000 C 495.494 415.032 495.132 418.854 493.208 426.000 C 484.588 458.018 458.120 484.618 426.500 493.043 C 416.270 495.768 397.746 496.717 387.390 495.047 C 355.727 489.939 327.799 468.249 315.631 439.316 C 309.729 425.283 308.513 418.756 308.587 401.500 C 308.648 387.118 308.926 384.612 311.332 376.718 C 322.180 341.138 350.678 315.511 386.660 308.982 C 395.116 307.447 417.576 308.579 425.863 310.957 M 53.027 73.000 C 53.602 86.627 54.257 88.945 59.088 94.448 C 68.506 105.174 85.369 105.684 95.504 95.549 C 101.325 89.728 103.000 84.202 103.000 70.822 L 103.000 60.000 129.000 60.000 L 155.000 60.000 155.000 70.822 C 155.000 84.202 156.675 89.728 162.496 95.549 C 172.631 105.684 189.494 105.174 198.912 94.448 C 203.685 89.012 204.331 86.713 204.943 73.000 L 205.500 60.500 231.126 60.233 L 256.752 59.967 257.212 71.733 C 257.725 84.876 259.124 89.437 264.301 94.838 C 269.576 100.341 274.531 102.416 282.500 102.461 C 290.388 102.505 294.751 100.827 299.938 95.757 C 306.066 89.766 307.385 85.827 307.817 72.233 L 308.207 59.967 333.853 60.233 L 359.500 60.500 360.000 73.083 C 360.470 84.913 360.681 85.960 363.529 90.583 C 373.584 106.904 396.416 106.904 406.471 90.583 C 409.319 85.960 409.530 84.913 410.000 73.083 L 410.500 60.500 418.112 60.613 C 424.472 60.707 426.606 61.201 431.077 63.613 C 437.048 66.834 442.382 73.115 443.954 78.775 C 444.530 80.847 444.991 92.820 444.994 105.750 L 445.000 129.000 231.500 129.000 L 18.000 129.000 18.010 104.750 C 18.019 81.343 18.102 80.326 20.383 75.500 C 22.523 70.973 25.145 67.943 30.306 64.031 C 33.207 61.832 41.060 60.075 47.000 60.296 L 52.500 60.500 53.027 73.000 M 186.548 20.646 L 189.000 23.292 189.000 52.011 C 189.000 79.274 188.898 80.860 186.988 83.288 C 182.926 88.452 174.610 87.302 172.095 81.229 C 171.250 79.189 170.993 70.358 171.204 50.594 L 171.500 22.824 174.306 20.412 C 178.200 17.064 183.319 17.162 186.548 20.646 M 83.694 20.412 L 86.500 22.824 86.796 50.594 C 87.007 70.358 86.750 79.189 85.905 81.229 C 83.390 87.302 75.074 88.452 71.012 83.288 C 69.102 80.860 69.000 79.274 69.000 52.011 L 69.000 23.292 71.452 20.646 C 74.681 17.162 79.800 17.064 83.694 20.412 M 391.411 21.077 L 394.000 24.153 394.000 51.512 C 394.000 66.906 393.573 79.994 393.023 81.440 C 392.485 82.854 390.460 84.767 388.523 85.691 C 385.224 87.264 384.776 87.264 381.477 85.691 C 379.540 84.767 377.515 82.854 376.977 81.440 C 376.427 79.994 376.000 66.906 376.000 51.512 L 376.000 24.153 378.589 21.077 C 382.254 16.721 387.746 16.721 391.411 21.077 M 288.465 20.374 C 291.794 23.704 292.189 27.918 291.821 56.229 L 291.500 80.958 288.777 83.679 C 284.992 87.462 279.641 87.446 276.370 83.644 L 274.000 80.888 274.000 51.899 L 274.000 22.909 276.455 20.455 C 279.757 17.152 285.207 17.116 288.465 20.374 M 289.500 360.881 C 291.700 361.891 294.336 363.658 295.358 364.807 C 297.170 366.844 297.165 367.100 295.146 375.198 C 294.008 379.764 292.808 385.222 292.479 387.326 C 291.984 390.490 291.291 391.398 288.473 392.576 C 283.693 394.573 280.126 394.355 274.970 391.750 C 261.831 385.112 262.096 366.948 275.421 360.896 C 280.572 358.557 284.430 358.553 289.500 360.881 M 395.508 277.439 C 399.405 280.410 402.000 285.220 402.000 289.468 C 402.000 291.914 401.782 292.000 395.588 292.000 C 392.061 292.000 385.649 292.722 381.338 293.606 C 366.489 296.647 368.000 296.877 368.000 291.581 C 368.000 280.389 375.155 273.560 386.152 274.256 C 390.462 274.529 392.684 275.284 395.508 277.439 " fill="#ffffff"/>
  </g>
  <g fill="#ffffff" stroke="#FFFFFFFF">
    <path d="M 172.383 172.890 C 162.436 175.453 153.800 182.827 149.342 192.564 C 143.993 204.248 146.812 219.567 156.058 229.060 C 169.559 242.921 191.811 242.692 204.839 228.559 C 211.274 221.578 213.339 216.138 213.403 206.000 C 213.448 198.854 213.038 196.600 210.830 191.852 C 205.502 180.394 194.563 172.989 182.094 172.399 C 178.467 172.227 174.097 172.448 172.383 172.890 M 184.493 189.103 C 193.431 191.353 199.355 201.253 197.000 210.001 C 193.009 224.823 172.764 227.682 165.287 214.480 C 159.854 204.887 164.240 193.172 174.655 189.459 C 179.420 187.760 179.193 187.768 184.493 189.103 " fill="#ffffff"/>
  </g>
  <g fill="#ffffff" stroke="#FFFFFFFF">
    <path d="M 276.132 258.049 C 265.151 260.279 255.057 268.925 251.058 279.525 C 247.730 288.348 248.438 298.290 253.006 306.859 C 259.145 318.378 269.265 324.406 282.500 324.430 C 289.160 324.441 291.505 323.978 296.500 321.664 C 315.698 312.772 322.007 288.954 309.847 271.278 C 303.036 261.378 288.269 255.583 276.132 258.049 M 291.566 276.486 C 304.835 284.262 301.355 304.649 286.174 308.074 C 277.721 309.981 268.223 304.255 265.972 295.895 C 261.869 280.660 277.920 268.489 291.566 276.486 " fill="#ffffff"/>
  </g>
  <g fill="#ffffff" stroke="#FFFFFFFF">
    <path d="M 71.355 258.039 C 61.288 260.032 51.050 268.247 46.697 277.824 C 45.077 281.387 44.563 284.523 44.536 291.000 C 44.505 298.315 44.888 300.290 47.281 305.164 C 50.822 312.373 56.638 318.186 63.832 321.706 C 68.571 324.025 70.791 324.476 77.495 324.484 C 84.217 324.492 86.501 324.032 91.747 321.611 C 109.254 313.535 116.196 293.184 107.503 275.417 C 103.048 266.310 94.476 260.114 83.535 258.091 C 77.004 256.884 77.190 256.885 71.355 258.039 M 86.480 276.287 C 92.309 279.588 95.170 285.087 94.735 292.152 C 93.795 307.415 76.683 313.918 65.882 303.118 C 59.166 296.401 58.701 287.074 64.727 279.913 C 69.934 273.724 79.221 272.176 86.480 276.287 " fill="#ffffff"/>
  </g>
  <g fill="#ffffff" stroke="#FFFFFFFF">
    <path d="M 375.951 173.298 C 369.653 175.085 364.861 178.249 359.614 184.084 C 342.454 203.171 353.838 234.811 379.303 238.804 C 400.038 242.055 418.348 226.938 418.430 206.500 C 418.447 202.273 417.740 197.416 416.645 194.238 C 414.294 187.417 406.544 178.902 399.586 175.498 C 393.170 172.359 382.697 171.385 375.951 173.298 M 389.277 189.060 C 393.891 190.341 399.320 194.945 401.000 199.000 C 402.811 203.372 401.835 212.018 399.097 215.864 C 391.785 226.133 374.963 224.871 369.641 213.655 C 367.629 209.417 367.514 201.835 369.405 198.200 C 371.445 194.280 375.261 191.025 379.655 189.459 C 384.384 187.773 384.608 187.763 389.277 189.060 " fill="#ffffff"/>
  </g>
  <g fill="#ffffff" stroke="#FFFFFFFF">
    <path d="M 172.972 258.329 C 155.394 262.209 144.362 278.626 147.195 296.690 C 148.933 307.776 155.939 316.735 166.880 321.865 C 175.022 325.683 186.173 325.618 194.168 321.706 C 201.429 318.154 207.630 311.956 210.884 305.000 C 214.346 297.598 214.533 284.930 211.285 277.783 C 204.723 263.343 188.220 254.964 172.972 258.329 M 187.329 275.364 C 191.578 277.140 195.676 282.082 197.012 287.045 C 200.081 298.441 188.400 310.726 176.976 308.117 C 171.835 306.943 169.416 305.412 166.347 301.389 C 162.482 296.321 161.994 288.090 165.229 282.520 C 169.501 275.165 179.277 272.000 187.329 275.364 " fill="#ffffff"/>
  </g>
  <g fill="#ffffff" stroke="#FFFFFFFF">
    <path d="M 66.230 344.827 C 58.563 347.561 52.142 353.430 48.000 361.489 C 44.846 367.625 44.500 369.102 44.500 376.420 C 44.500 383.584 44.888 385.331 47.792 391.229 C 51.372 398.502 56.488 403.581 63.924 407.245 C 67.703 409.107 70.155 409.499 78.000 409.495 C 86.335 409.491 88.115 409.166 92.520 406.845 C 98.509 403.689 106.252 395.707 108.518 390.353 C 115.685 373.422 108.871 354.603 92.546 346.243 C 85.711 342.742 73.862 342.105 66.230 344.827 M 83.685 360.064 C 90.093 362.485 95.000 369.613 95.000 376.500 C 95.000 387.976 83.297 396.563 72.509 393.003 C 64.780 390.452 58.995 381.114 60.530 373.666 C 62.703 363.126 74.088 356.438 83.685 360.064 " fill="#ffffff"/>
  </g>
  <g fill="#ffffff" stroke="#FFFFFFFF">
    <path d="M 171.000 343.877 C 150.676 350.552 141.054 372.245 149.987 391.250 C 153.076 397.821 161.282 405.210 168.525 407.942 C 173.378 409.773 175.908 410.112 182.000 409.752 C 195.017 408.982 204.550 402.722 210.208 391.229 C 213.102 385.351 213.500 383.571 213.499 376.521 C 213.499 369.946 213.023 367.487 210.864 362.880 C 204.919 350.197 195.379 343.826 181.608 343.341 C 177.149 343.184 172.375 343.426 171.000 343.877 M 187.684 360.943 C 198.341 365.782 200.860 380.073 192.526 388.408 C 181.292 399.642 163.000 391.944 163.000 375.982 C 163.000 371.219 164.699 367.564 168.661 363.807 C 174.046 358.700 180.577 357.717 187.684 360.943 " fill="#ffffff"/>
  </g>
  <g fill="#ffffff" stroke="#FFFFFFFF">
    <path d="M 273.286 173.390 C 263.298 176.655 257.200 181.865 252.219 191.393 C 249.943 195.744 249.544 197.758 249.524 205.000 C 249.494 215.776 251.679 221.723 258.205 228.623 C 269.948 241.039 288.610 242.868 302.415 232.954 C 310.878 226.876 315.177 218.683 315.770 207.500 C 316.292 197.658 313.924 190.468 307.914 183.640 C 299.824 174.449 284.198 169.824 273.286 173.390 M 291.492 190.855 C 297.490 194.358 300.916 202.305 299.555 209.560 C 298.770 213.740 293.248 220.240 288.978 222.009 C 284.940 223.682 276.512 222.769 273.176 220.298 C 266.808 215.582 263.867 207.724 265.914 200.894 C 267.337 196.145 272.841 190.408 277.256 189.074 C 281.392 187.824 287.640 188.606 291.492 190.855 " fill="#ffffff"/>
  </g>
  <g fill="#ffffff" stroke="#FFFFFFFF">
    <path d="M 398.500 352.208 C 394.295 354.619 394.065 355.808 394.032 375.250 L 394.000 394.000 375.189 394.000 C 357.674 394.000 356.227 394.140 354.201 396.028 C 353.004 397.143 351.757 399.119 351.431 400.420 C 350.741 403.166 353.177 408.470 355.545 409.379 C 356.435 409.720 365.452 410.000 375.582 410.000 L 394.000 410.000 394.000 428.418 C 394.000 438.548 394.280 447.565 394.621 448.455 C 395.604 451.017 400.755 453.213 404.072 452.484 C 409.544 451.282 410.000 449.457 410.000 428.777 L 410.000 410.000 428.777 410.000 C 449.457 410.000 451.282 409.544 452.484 404.072 C 453.213 400.755 451.017 395.604 448.455 394.621 C 447.565 394.280 438.548 394.000 428.418 394.000 L 410.000 394.000 410.000 375.582 C 410.000 365.452 409.720 356.435 409.379 355.545 C 408.715 353.816 403.954 350.980 401.800 351.030 C 401.085 351.047 399.600 351.577 398.500 352.208 " fill="#ffffff"/>
  </g>
</svg>
