<?xml version='1.0' encoding='utf-8'?>
<!DOCTYPE svg PUBLIC "-//W3C//DTD SVG 20010904//EN" "http://www.w3.org/TR/2001/REC-SVG-20010904/DTD/svg10.dtd">
<svg xmlns="http://www.w3.org/2000/svg" version="1.0" width="512px" height="512px" viewBox="0 0 514 514" style="" preserveAspectRatio="xMidYMid meet">
  <g fill="#ffffff" stroke="#000000FF">
    <path d="M 162.734 4.023 C 153.041 6.475 144.499 14.010 141.345 22.891 C 139.779 27.301 139.167 28.000 136.871 28.000 C 132.182 28.000 120.705 32.040 113.694 36.159 C 100.730 43.773 91.593 55.291 86.444 70.510 C 83.997 77.743 83.692 80.281 83.229 97.302 L 82.717 116.104 79.108 117.955 C 74.881 120.123 71.955 123.142 69.375 128.000 C 66.570 133.280 66.849 150.421 69.866 158.153 C 74.212 169.294 81.489 176.258 93.219 180.502 L 99.500 182.774 100.237 188.637 C 103.313 213.101 120.401 238.812 141.238 250.329 L 146.976 253.500 146.988 260.614 L 147.000 267.728 142.278 269.532 C 136.076 271.900 128.726 278.884 126.161 284.847 L 124.108 289.621 89.897 297.261 C 61.386 303.628 54.338 305.552 47.593 308.808 C 31.156 316.742 18.833 329.070 11.091 345.326 C 3.382 361.511 3.666 358.213 3.250 436.234 L 2.877 505.968 5.403 508.494 L 7.929 511.020 251.215 510.760 C 486.534 510.509 494.615 510.439 498.000 508.633 C 502.969 505.983 505.885 503.101 508.256 498.500 C 511.954 491.323 510.625 480.909 505.224 474.750 C 503.845 473.177 503.845 472.823 505.224 471.250 C 508.492 467.524 510.323 462.405 510.323 457.000 C 510.323 451.595 508.492 446.476 505.224 442.750 C 503.845 441.177 503.845 440.823 505.224 439.250 C 512.511 430.939 511.852 416.641 503.847 409.367 C 497.595 403.685 496.628 403.525 466.649 403.179 L 438.799 402.857 446.174 398.654 C 486.303 375.786 510.200 335.017 510.155 289.500 C 510.134 267.334 506.492 251.634 496.921 232.435 C 462.198 162.787 371.679 141.816 309.237 188.953 C 280.541 210.616 263.124 242.557 259.926 279.387 C 259.350 286.024 258.692 291.642 258.464 291.869 C 258.236 292.097 255.323 291.705 251.991 290.998 C 246.079 289.744 245.881 289.595 243.858 284.892 C 241.276 278.889 233.941 271.907 227.722 269.532 L 223.000 267.728 223.012 260.614 L 223.024 253.500 228.762 250.340 C 249.197 239.086 265.580 214.872 269.378 190.310 L 270.545 182.762 276.803 180.496 C 288.510 176.257 295.629 169.399 300.155 158.000 C 303.153 150.453 303.422 133.265 300.625 128.000 C 298.046 123.144 295.120 120.123 290.896 117.957 L 287.292 116.108 286.725 96.304 C 286.047 72.675 284.504 65.391 277.017 50.500 C 268.465 33.490 256.282 21.295 239.500 12.948 C 223.511 4.995 217.596 3.858 190.000 3.432 C 177.043 3.233 164.811 3.497 162.734 4.023 M 412.386 177.919 C 433.128 183.405 449.338 192.594 464.572 207.500 C 480.442 223.029 489.619 238.677 495.733 260.634 C 498.286 269.801 498.477 271.810 498.438 289.000 C 498.399 305.752 498.147 308.414 495.775 317.170 C 484.629 358.319 454.319 388.629 413.170 399.775 C 404.414 402.147 401.752 402.399 385.000 402.438 C 367.810 402.477 365.801 402.286 356.634 399.733 C 334.677 393.619 319.029 384.442 303.500 368.572 C 288.475 353.216 279.420 337.164 273.771 315.869 C 271.852 308.637 271.555 304.988 271.578 289.000 C 271.603 272.220 271.849 269.601 274.225 260.830 C 279.866 240.005 289.488 223.267 304.377 208.377 C 321.023 191.732 338.838 182.136 362.785 176.916 C 374.773 174.304 400.699 174.828 412.386 177.919 M 124.000 304.606 C 124.000 308.453 126.856 318.790 129.203 323.440 C 134.275 333.489 148.611 356.354 150.695 357.720 C 153.781 359.742 155.037 358.867 168.394 345.396 L 179.000 334.700 179.000 416.850 L 179.000 499.000 125.061 499.000 L 71.122 499.000 70.776 443.250 C 70.440 388.938 70.374 387.331 68.230 380.928 C 64.910 371.014 59.654 363.885 44.406 348.612 L 30.540 334.724 36.001 329.909 C 42.549 324.136 51.655 318.607 58.191 316.436 C 64.548 314.325 117.748 302.232 121.250 302.102 C 123.572 302.016 124.000 302.405 124.000 304.606 M 169.000 92.174 C 177.598 97.034 186.072 99.772 195.926 100.875 C 204.971 101.887 217.352 100.846 223.947 98.519 C 228.485 96.918 230.000 97.194 230.000 99.622 C 230.000 103.151 235.741 112.476 240.708 117.016 C 245.262 121.178 254.563 126.000 258.038 126.000 C 258.633 126.000 259.000 137.568 259.000 156.340 C 259.000 190.923 258.266 195.927 251.052 210.500 C 243.719 225.313 232.745 236.102 217.500 243.486 C 204.958 249.561 195.707 251.401 181.110 250.725 C 153.477 249.445 130.937 234.696 118.317 209.636 C 111.696 196.488 111.000 191.480 111.000 156.951 L 111.000 126.223 114.750 125.534 C 123.689 123.891 129.998 119.447 146.000 103.525 C 154.525 95.042 161.725 88.191 162.000 88.301 C 162.275 88.410 165.425 90.153 169.000 92.174 M 254.949 303.178 C 258.813 304.070 260.145 304.858 260.439 306.428 C 262.162 315.640 265.724 328.771 268.189 335.000 C 278.744 361.662 298.273 384.073 323.404 398.362 L 331.309 402.856 303.404 403.178 C 273.366 403.525 272.407 403.684 266.153 409.367 C 258.148 416.641 257.489 430.939 264.776 439.250 C 266.155 440.823 266.155 441.177 264.776 442.750 C 261.508 446.476 259.677 451.595 259.677 457.000 C 259.677 462.405 261.508 467.524 264.776 471.250 C 266.155 472.823 266.155 473.177 264.776 474.750 C 260.007 480.189 258.013 491.419 260.869 496.754 L 262.070 499.000 226.535 499.000 L 191.000 499.000 191.000 416.801 L 191.000 334.602 203.339 346.801 C 210.126 353.511 216.101 359.000 216.617 359.000 C 219.221 359.000 222.606 354.707 230.552 341.327 C 242.067 321.937 245.954 312.727 245.988 304.750 C 246.002 301.565 247.117 301.370 254.949 303.178 M 217.303 16.584 C 221.261 17.456 228.550 20.127 233.500 22.521 C 249.156 30.092 259.888 40.825 267.475 56.500 C 273.695 69.351 275.000 76.452 275.000 97.447 L 275.000 115.000 267.866 115.000 C 258.030 115.000 253.363 113.369 247.896 108.019 C 243.400 103.619 241.330 99.485 238.996 90.247 C 238.352 87.699 236.974 85.374 235.556 84.445 C 233.369 83.011 232.750 83.080 227.345 85.351 C 218.853 88.920 210.320 90.315 200.282 89.776 C 189.656 89.206 182.000 86.715 170.133 79.967 C 165.328 77.235 161.031 75.000 160.584 75.000 C 160.137 75.000 152.016 82.608 142.538 91.906 C 121.483 112.561 118.797 114.189 104.750 114.805 L 95.000 115.233 95.012 98.366 C 95.027 76.651 96.733 69.880 104.939 58.958 C 113.815 47.145 128.778 39.048 141.795 39.012 C 147.158 38.997 151.000 35.651 151.000 30.996 C 151.000 25.830 155.498 19.475 161.500 16.164 C 164.830 14.327 208.542 14.656 217.303 16.584 M 38.860 358.544 C 48.925 368.966 52.696 373.633 55.220 378.794 L 58.500 385.500 58.782 442.250 L 59.063 499.000 37.032 499.000 L 15.000 499.000 15.000 434.549 C 15.000 391.265 15.364 368.358 16.108 364.799 C 17.641 357.462 22.913 345.000 24.484 345.000 C 25.197 345.000 31.667 351.095 38.860 358.544 M 496.077 481.923 C 500.193 486.039 500.193 491.961 496.077 496.077 L 493.154 499.000 385.000 499.000 L 276.846 499.000 273.923 496.077 C 271.631 493.784 271.000 492.258 271.000 489.000 C 271.000 485.742 271.631 484.216 273.923 481.923 L 276.846 479.000 385.000 479.000 L 493.154 479.000 496.077 481.923 M 496.077 449.923 C 500.193 454.039 500.193 459.961 496.077 464.077 L 493.154 467.000 385.000 467.000 L 276.846 467.000 273.923 464.077 C 271.631 461.784 271.000 460.258 271.000 457.000 C 271.000 453.742 271.631 452.216 273.923 449.923 L 276.846 447.000 385.000 447.000 L 493.154 447.000 496.077 449.923 M 496.077 417.923 C 500.193 422.039 500.193 427.961 496.077 432.077 L 493.154 435.000 385.000 435.000 L 276.846 435.000 273.923 432.077 C 271.631 429.784 271.000 428.258 271.000 425.000 C 271.000 421.742 271.631 420.216 273.923 417.923 L 276.846 415.000 385.000 415.000 L 493.154 415.000 496.077 417.923 M 149.467 284.899 C 154.620 300.415 168.423 310.271 185.000 310.271 C 201.577 310.271 215.380 300.415 220.533 284.899 C 221.462 282.105 222.769 280.000 223.577 280.000 C 226.018 280.000 232.834 286.966 234.076 290.730 C 235.698 295.646 234.701 308.198 232.160 314.850 C 229.797 321.035 216.958 343.000 215.706 343.000 C 215.243 343.000 208.862 337.080 201.528 329.844 C 194.193 322.608 187.484 316.291 186.619 315.806 C 183.983 314.331 180.176 317.198 167.180 330.444 C 160.404 337.350 154.554 342.993 154.180 342.985 C 153.018 342.960 140.075 320.701 137.879 314.952 C 135.304 308.212 134.292 295.675 135.924 290.730 C 137.166 286.966 143.982 280.000 146.423 280.000 C 147.231 280.000 148.538 282.105 149.467 284.899 M 166.688 260.605 C 170.871 261.591 177.938 262.211 185.000 262.211 C 192.062 262.211 199.129 261.591 203.312 260.605 C 207.059 259.722 210.321 259.000 210.562 259.000 C 210.803 259.000 211.000 263.637 211.000 269.304 C 211.000 278.373 210.691 280.227 208.422 284.780 C 203.794 294.068 195.735 298.942 184.946 298.978 C 174.010 299.015 165.424 293.495 160.867 283.500 C 159.488 280.474 159.039 277.004 159.022 269.250 C 159.010 263.613 159.197 259.000 159.438 259.000 C 159.679 259.000 162.941 259.722 166.688 260.605 M 288.077 129.923 C 290.896 132.742 291.000 133.183 291.000 142.309 C 291.000 150.691 290.686 152.372 288.250 157.028 C 285.253 162.756 280.603 167.042 274.750 169.471 L 271.000 171.027 271.000 149.013 L 271.000 127.000 278.077 127.000 C 284.565 127.000 285.397 127.243 288.077 129.923 M 99.000 149.013 L 99.000 171.027 95.250 169.471 C 89.397 167.042 84.747 162.756 81.750 157.028 C 79.314 152.372 79.000 150.691 79.000 142.309 C 79.000 133.183 79.104 132.742 81.923 129.923 C 84.603 127.243 85.435 127.000 91.923 127.000 L 99.000 127.000 99.000 149.013 " fill="#ffffff"/>
  </g>
  <g fill="#ffffff" stroke="#000000FF">
    <path d="M 374.456 188.016 C 339.150 191.745 308.138 213.955 292.934 246.399 C 277.963 278.347 281.062 316.446 301.045 346.119 C 306.556 354.303 319.697 367.444 327.881 372.955 C 379.849 407.952 450.468 388.427 477.001 331.727 C 489.575 304.857 489.580 273.104 477.015 246.291 C 461.680 213.567 431.050 191.808 395.000 188.030 C 384.604 186.941 384.631 186.941 374.456 188.016 M 409.000 201.950 C 442.392 211.568 466.655 237.920 473.578 272.090 C 475.807 283.089 475.093 302.355 472.067 312.826 C 463.109 343.832 439.767 367.228 409.000 376.037 C 398.326 379.093 379.133 379.816 368.090 377.578 C 333.707 370.611 307.541 346.384 297.804 312.500 C 294.757 301.896 294.483 277.253 297.298 267.000 C 306.652 232.930 333.236 207.543 367.000 200.436 C 376.813 198.370 399.398 199.185 409.000 201.950 " fill="#ffffff"/>
  </g>
  <g fill="#ffffff" stroke="#000000FF">
    <path d="M 381.455 213.455 C 379.390 215.519 379.000 216.869 379.000 221.955 C 379.000 226.341 378.632 228.000 377.660 228.000 C 374.648 228.000 363.923 234.342 360.469 238.166 C 358.435 240.418 355.614 244.785 354.201 247.872 C 348.927 259.393 351.446 273.846 360.469 283.834 C 363.923 287.658 374.648 294.000 377.660 294.000 C 378.740 294.000 379.000 298.358 379.000 316.500 L 379.000 339.000 367.455 339.000 C 356.530 339.000 355.777 339.132 353.455 341.455 C 352.105 342.805 351.000 344.400 351.000 345.000 C 351.000 345.600 352.105 347.195 353.455 348.545 C 355.777 350.868 356.530 351.000 367.455 351.000 L 379.000 351.000 379.000 356.545 C 379.000 361.100 379.439 362.530 381.455 364.545 C 382.805 365.895 384.400 367.000 385.000 367.000 C 385.600 367.000 387.195 365.895 388.545 364.545 C 390.610 362.481 391.000 361.131 391.000 356.045 C 391.000 351.659 391.368 350.000 392.340 350.000 C 393.077 350.000 396.415 348.634 399.757 346.964 C 419.890 336.903 424.695 310.951 409.531 294.166 C 406.077 290.342 395.352 284.000 392.340 284.000 C 391.260 284.000 391.000 279.642 391.000 261.500 L 391.000 239.000 402.545 239.000 C 413.470 239.000 414.223 238.868 416.545 236.545 C 417.895 235.195 419.000 233.600 419.000 233.000 C 419.000 232.400 417.895 230.805 416.545 229.455 C 414.223 227.132 413.470 227.000 402.545 227.000 L 391.000 227.000 391.000 221.455 C 391.000 216.900 390.561 215.470 388.545 213.455 C 387.195 212.105 385.600 211.000 385.000 211.000 C 384.400 211.000 382.805 212.105 381.455 213.455 M 397.065 298.265 C 398.913 299.510 401.779 302.455 403.433 304.808 C 405.899 308.317 406.504 310.293 406.797 315.793 C 407.235 324.024 404.591 329.785 398.096 334.750 C 390.852 340.288 391.000 340.658 391.000 317.000 C 391.000 293.851 390.913 294.119 397.065 298.265 M 379.000 261.000 C 379.000 284.658 379.148 284.288 371.904 278.750 C 365.409 273.785 362.765 268.024 363.203 259.793 C 363.496 254.293 364.101 252.317 366.567 248.808 C 369.639 244.437 375.221 240.000 377.648 240.000 C 378.741 240.000 379.000 244.021 379.000 261.000 " fill="#ffffff"/>
  </g>
  <g fill="#ffffff" stroke="#000000FF">
    <path d="M 157.200 209.200 C 154.616 211.784 155.829 216.179 160.309 220.471 C 174.082 233.668 195.918 233.668 209.691 220.471 C 214.171 216.179 215.384 211.784 212.800 209.200 C 210.760 207.160 206.509 207.828 203.924 210.595 C 202.591 212.023 199.475 214.385 197.000 215.845 C 193.208 218.082 191.320 218.500 185.000 218.500 C 178.680 218.500 176.792 218.082 173.000 215.845 C 170.525 214.385 167.409 212.023 166.076 210.595 C 163.491 207.828 159.240 207.160 157.200 209.200 " fill="#ffffff"/>
  </g>
  <g fill="#ffffff" stroke="#000000FF">
    <path d="M 218.803 140.377 C 209.167 143.017 201.588 150.493 203.993 154.986 C 205.342 157.508 208.685 159.305 210.271 158.360 C 210.947 157.957 213.234 156.249 215.353 154.564 C 218.643 151.948 220.045 151.500 224.954 151.500 C 230.073 151.500 231.228 151.910 235.515 155.250 C 238.162 157.313 240.725 159.000 241.210 159.000 C 242.364 159.000 247.000 154.351 247.000 153.193 C 247.000 150.560 241.861 145.247 236.972 142.826 C 230.133 139.439 224.835 138.725 218.803 140.377 " fill="#ffffff"/>
  </g>
  <g fill="#ffffff" stroke="#000000FF">
    <path d="M 138.803 140.377 C 129.167 143.017 121.588 150.493 123.993 154.986 C 125.342 157.508 128.685 159.305 130.271 158.360 C 130.947 157.957 133.234 156.249 135.353 154.564 C 138.643 151.948 140.045 151.500 144.954 151.500 C 150.073 151.500 151.228 151.910 155.515 155.250 C 158.162 157.313 160.725 159.000 161.210 159.000 C 162.364 159.000 167.000 154.351 167.000 153.193 C 167.000 150.560 161.861 145.247 156.972 142.826 C 150.133 139.439 144.835 138.725 138.803 140.377 " fill="#ffffff"/>
  </g>
  <g fill="#ffffff" stroke="#000000FF">
    <path d="M 181.774 172.963 C 178.195 175.778 174.626 184.433 175.992 186.985 C 179.224 193.024 184.709 191.061 188.650 182.454 C 191.306 176.651 190.912 174.094 187.043 172.023 C 184.565 170.697 184.682 170.676 181.774 172.963 " fill="#ffffff"/>
  </g>
</svg>
