<?xml version='1.0' encoding='utf-8'?>
<!DOCTYPE svg PUBLIC "-//W3C//DTD SVG 20010904//EN" "http://www.w3.org/TR/2001/REC-SVG-20010904/DTD/svg10.dtd">
<svg xmlns="http://www.w3.org/2000/svg" version="1.0" width="256px" height="256px" viewBox="0 0 512 512" style="" preserveAspectRatio="xMidYMid meet">
  <g fill="#ffffff" stroke="#FFFFFFFF">
    <path d="M 170.136 4.500 C 167.967 6.884 166.072 8.000 164.194 8.000 C 162.677 8.000 158.994 8.634 156.008 9.408 C 150.967 10.716 150.409 10.680 148.156 8.908 C 146.444 7.562 144.128 7.000 140.288 7.000 C 135.607 7.000 134.438 7.408 131.923 9.923 C 129.544 12.302 129.000 13.698 129.000 17.423 C 129.000 19.940 128.587 22.000 128.083 22.000 C 126.532 22.000 110.925 37.187 106.959 42.556 C 98.488 54.022 92.331 69.992 91.313 83.140 L 90.721 90.779 85.767 91.436 C 81.742 91.970 79.916 92.934 76.017 96.581 C 70.099 102.116 68.998 105.903 69.006 120.693 C 69.012 133.976 70.172 138.407 74.871 143.106 L 78.522 146.757 78.171 158.129 C 77.868 167.915 78.122 170.306 79.994 175.285 C 84.002 185.942 95.669 196.131 107.179 199.025 C 111.629 200.144 111.891 200.405 112.533 204.351 C 113.707 211.572 119.392 225.317 124.191 232.535 C 126.738 236.366 132.032 242.599 135.955 246.387 L 143.088 253.273 142.794 259.283 L 142.500 265.294 90.996 285.430 C 57.523 298.517 37.523 306.873 33.869 309.299 C 26.661 314.083 13.476 327.938 9.123 335.304 C 7.265 338.446 4.678 343.959 3.373 347.554 L 1.000 354.091 1.000 429.850 L 1.000 505.609 4.385 509.305 L 7.770 513.000 195.189 513.000 L 382.608 513.000 385.753 509.750 C 391.842 503.459 392.000 502.365 392.000 466.567 L 392.000 434.070 388.896 430.535 C 385.994 427.229 385.405 427.000 379.819 427.000 C 374.551 427.000 373.501 427.345 370.923 429.923 L 368.000 432.846 368.000 461.341 C 368.000 477.014 367.727 490.548 367.393 491.418 C 366.874 492.772 364.419 493.000 350.393 493.000 L 334.000 493.000 333.969 457.750 C 333.952 438.363 333.503 419.150 332.972 415.055 C 331.860 406.487 328.068 397.653 322.120 389.775 C 313.655 378.563 313.541 378.013 313.179 346.750 C 312.958 327.579 313.188 319.000 313.924 319.000 C 316.698 319.000 339.152 328.783 344.263 332.219 C 355.080 339.489 363.908 353.935 366.533 368.658 C 367.350 373.244 367.945 383.487 367.965 393.327 L 368.000 410.154 370.923 413.077 C 373.501 415.655 374.551 416.000 379.819 416.000 C 385.441 416.000 385.982 415.785 388.997 412.351 L 392.201 408.701 391.744 384.601 C 391.223 357.079 390.635 353.894 383.337 339.021 C 379.361 330.919 377.294 328.153 369.093 319.968 C 362.627 313.514 357.420 309.310 353.119 307.068 C 349.610 305.240 324.410 295.098 297.119 284.531 L 247.500 265.319 247.206 259.316 L 246.913 253.312 251.489 249.563 C 257.122 244.946 265.703 234.379 269.882 226.910 C 273.169 221.036 277.230 210.014 278.373 203.863 C 278.989 200.543 279.451 200.124 283.659 199.064 C 294.110 196.433 303.641 188.839 309.077 178.813 C 312.459 172.575 312.501 172.346 312.571 159.500 L 312.642 146.500 315.931 143.027 C 317.739 141.117 319.620 138.500 320.110 137.212 C 321.628 133.217 321.214 105.310 319.589 102.200 C 316.529 96.342 308.393 91.000 302.532 91.000 C 300.332 91.000 300.000 90.566 300.000 87.684 C 300.000 77.551 294.915 60.729 288.580 49.907 C 283.778 41.704 272.518 29.017 266.080 24.555 C 262.412 22.013 262.000 21.308 262.000 17.560 C 262.000 14.158 261.394 12.805 258.702 10.196 C 255.822 7.405 254.722 7.000 250.017 7.000 C 246.035 7.000 244.082 7.513 242.535 8.968 C 240.559 10.824 240.131 10.853 234.970 9.479 C 231.962 8.679 228.273 8.018 226.774 8.012 C 224.942 8.004 223.005 6.853 220.864 4.500 L 217.679 1.000 195.500 1.000 L 173.321 1.000 170.136 4.500 M 255.000 170.790 C 255.000 195.322 254.285 199.735 248.326 212.000 C 243.325 222.291 232.401 233.187 222.000 238.259 C 207.984 245.092 196.208 246.506 182.500 243.000 C 163.425 238.121 151.013 228.474 142.527 211.930 C 136.643 200.461 135.820 195.843 135.276 171.250 L 134.783 149.000 194.891 149.000 L 255.000 149.000 255.000 170.790 M 75.742 377.533 C 74.775 380.301 71.678 385.701 68.860 389.533 C 62.715 397.891 59.529 404.687 58.078 412.536 C 57.431 416.038 57.000 433.285 57.000 455.708 L 57.000 493.048 40.250 492.774 L 23.500 492.500 23.242 433.224 C 22.957 367.829 23.142 365.289 29.042 353.278 C 36.328 338.444 44.924 331.183 64.217 323.564 L 77.500 318.318 77.500 345.409 C 77.500 368.683 77.252 373.209 75.742 377.533 M 123.000 328.322 C 123.000 359.219 123.448 361.846 129.974 369.195 C 132.076 371.563 144.128 381.375 156.755 391.000 L 179.713 408.500 161.919 409.000 L 144.126 409.500 141.063 412.437 C 138.299 415.088 138.000 415.972 138.000 421.500 C 138.000 427.029 138.299 427.912 141.063 430.563 L 144.126 433.500 163.563 433.809 L 183.000 434.119 183.000 444.559 L 183.000 455.000 132.000 455.000 L 81.000 455.000 81.000 444.558 L 81.000 434.117 101.084 433.808 L 121.168 433.500 124.084 430.234 C 126.552 427.471 127.000 426.128 127.000 421.500 C 127.000 416.873 126.552 415.529 124.084 412.766 L 121.169 409.500 103.991 409.000 L 86.814 408.500 89.922 404.593 C 94.548 398.779 96.797 394.850 99.218 388.351 C 101.269 382.846 101.431 380.314 101.949 345.526 L 102.500 308.552 112.000 304.832 C 117.225 302.786 121.838 301.087 122.250 301.056 C 122.663 301.025 123.000 313.295 123.000 328.322 M 278.500 304.945 L 288.500 308.881 289.014 346.191 C 289.506 381.832 289.629 383.748 291.761 389.049 C 293.915 394.404 297.551 400.495 302.035 406.260 L 304.181 409.020 257.596 408.760 L 211.010 408.500 235.255 389.961 C 260.310 370.803 264.676 366.427 266.967 358.177 C 267.545 356.099 267.991 342.870 267.994 327.750 C 267.997 313.038 268.113 301.002 268.250 301.004 C 268.388 301.006 273.000 302.779 278.500 304.945 M 309.000 444.500 L 309.000 455.000 258.000 455.000 L 207.000 455.000 207.000 444.500 L 207.000 434.000 258.000 434.000 L 309.000 434.000 309.000 444.500 M 297.000 120.500 L 297.000 125.000 195.500 125.000 L 94.000 125.000 94.000 120.500 L 94.000 116.000 195.500 116.000 L 297.000 116.000 297.000 120.500 M 309.000 486.500 L 309.000 493.000 258.000 493.000 L 207.000 493.000 207.000 486.500 L 207.000 480.000 258.000 480.000 L 309.000 480.000 309.000 486.500 M 183.000 486.500 L 183.000 493.000 132.000 493.000 L 81.000 493.000 81.000 486.500 L 81.000 480.000 132.000 480.000 L 183.000 480.000 183.000 486.500 M 175.500 267.520 C 185.821 270.012 211.388 269.384 221.250 266.395 C 222.703 265.955 223.000 266.511 223.000 269.668 C 223.000 273.186 222.125 274.348 211.266 285.235 C 200.094 296.436 199.334 297.000 195.430 297.000 C 191.521 297.000 190.779 296.446 179.675 285.250 C 168.982 274.467 168.021 273.191 168.011 269.750 C 168.005 267.688 168.338 266.016 168.750 266.036 C 169.163 266.055 172.200 266.723 175.500 267.520 M 231.750 35.175 L 238.000 37.370 238.000 64.185 L 238.000 91.000 231.000 91.000 L 224.000 91.000 224.000 62.000 C 224.000 46.050 224.338 32.995 224.750 32.990 C 225.163 32.984 228.313 33.968 231.750 35.175 M 166.000 62.000 L 166.000 91.000 159.500 91.000 L 153.000 91.000 153.000 64.083 L 153.000 37.167 158.750 35.162 C 161.913 34.060 164.838 33.122 165.250 33.079 C 165.663 33.036 166.000 46.050 166.000 62.000 M 200.000 56.000 L 200.000 91.000 195.500 91.000 L 191.000 91.000 191.000 56.000 L 191.000 21.000 195.500 21.000 L 200.000 21.000 200.000 56.000 M 200.350 364.154 C 201.567 381.299 201.359 383.359 198.167 385.718 L 195.335 387.813 192.167 385.334 C 189.184 382.999 189.028 382.553 189.484 377.677 C 189.750 374.830 190.241 368.563 190.574 363.750 L 191.180 355.000 195.440 355.000 L 199.701 355.000 200.350 364.154 M 121.956 91.000 C 115.687 91.000 114.921 90.797 115.345 89.250 C 115.609 88.288 116.126 85.700 116.494 83.500 C 117.396 78.096 121.652 67.602 125.416 61.500 L 128.500 56.500 128.774 73.750 L 129.047 91.000 121.956 91.000 M 268.437 67.000 C 271.384 72.679 275.000 84.307 275.000 88.105 L 275.000 91.000 268.500 91.000 L 262.000 91.000 262.007 73.750 L 262.013 56.500 264.058 59.500 C 265.182 61.150 267.153 64.525 268.437 67.000 M 244.000 299.788 L 244.000 308.575 239.214 313.289 L 234.428 318.003 229.494 312.994 L 224.560 307.984 233.008 299.492 C 237.654 294.821 242.028 291.000 242.728 291.000 C 243.661 291.000 244.000 293.343 244.000 299.788 M 157.280 299.779 L 166.018 308.558 161.223 313.280 L 156.428 318.003 151.714 313.217 L 147.000 308.431 147.000 299.716 C 147.000 294.922 147.347 291.000 147.771 291.000 C 148.195 291.000 152.474 294.950 157.280 299.779 M 244.000 344.851 C 244.000 348.788 240.968 352.811 233.616 358.629 L 225.500 365.052 224.730 359.276 C 224.306 356.099 224.081 351.700 224.230 349.500 L 224.500 345.500 233.500 344.939 C 238.450 344.630 242.838 344.293 243.250 344.189 C 243.663 344.085 244.000 344.383 244.000 344.851 M 166.152 346.308 C 166.605 347.117 166.644 351.668 166.238 356.422 L 165.500 365.066 157.805 359.283 C 150.758 353.987 147.000 349.316 147.000 345.849 C 146.999 343.823 165.003 344.254 166.152 346.308 M 203.121 323.616 C 205.468 325.865 205.699 326.566 204.765 328.616 C 203.747 330.851 203.158 331.000 195.318 331.000 C 187.270 331.000 186.912 330.902 185.765 328.382 C 184.693 326.030 184.852 325.524 187.342 323.382 C 191.412 319.881 199.345 319.998 203.121 323.616 M 110.781 161.250 L 110.500 173.500 107.340 170.417 C 105.602 168.722 103.642 165.538 102.984 163.343 C 101.897 159.713 102.026 158.882 104.411 154.175 C 106.262 150.523 107.626 149.000 109.048 149.000 C 110.972 149.000 111.049 149.545 110.781 161.250 M 284.864 150.336 C 285.474 151.071 286.665 153.633 287.510 156.028 C 288.988 160.218 288.952 160.577 286.563 165.442 C 285.198 168.224 283.162 171.066 282.040 171.758 C 280.030 172.998 280.000 172.840 280.000 161.008 C 280.000 149.928 280.145 149.000 281.878 149.000 C 282.910 149.000 284.254 149.601 284.864 150.336 " fill="#ffffff"/>
  </g>
  <g fill="#ffffff" stroke="#FFFFFFFF">
    <path d="M 389.368 118.368 L 385.000 122.737 385.000 132.235 L 385.000 141.734 377.194 146.150 L 369.388 150.565 363.528 147.141 C 354.477 141.853 344.978 141.624 339.120 146.552 C 337.504 147.912 332.203 155.882 327.341 164.262 L 318.500 179.500 318.500 186.702 C 318.500 193.753 318.584 193.990 322.494 197.995 C 324.691 200.244 328.854 203.420 331.744 205.051 L 337.000 208.017 337.000 215.895 L 337.000 223.772 330.063 227.893 C 320.503 233.573 318.500 236.623 318.500 245.500 L 318.500 252.500 327.500 267.871 C 338.595 286.820 340.462 288.500 350.422 288.500 C 356.829 288.500 358.069 288.150 363.500 284.812 L 369.500 281.124 372.500 283.101 C 374.150 284.188 377.638 286.193 380.250 287.556 L 385.000 290.034 385.000 299.556 L 385.000 309.077 388.926 313.289 L 392.853 317.500 415.545 317.804 C 438.226 318.108 438.240 318.107 441.963 315.643 C 447.326 312.094 449.000 307.843 449.000 297.770 L 449.000 289.342 453.750 287.116 C 456.363 285.891 459.605 284.055 460.956 283.035 C 463.394 281.194 463.464 281.209 470.791 285.090 C 478.881 289.377 484.483 290.105 490.282 287.623 C 494.973 285.616 497.892 281.962 505.867 268.116 L 513.000 255.732 513.000 245.553 C 513.000 235.732 512.903 235.285 510.250 232.829 C 508.738 231.429 504.913 228.765 501.750 226.908 L 496.000 223.533 496.000 215.862 L 496.000 208.191 501.750 204.985 C 504.913 203.222 508.738 200.620 510.250 199.203 C 512.904 196.716 513.000 196.266 513.000 186.375 L 513.000 176.124 505.563 163.312 C 501.473 156.265 496.520 148.946 494.556 147.047 C 491.409 144.004 490.244 143.547 484.733 143.196 C 479.018 142.832 477.834 143.134 470.990 146.705 L 463.500 150.612 458.500 147.278 C 455.750 145.444 452.488 143.682 451.250 143.363 C 449.135 142.818 449.000 142.265 449.000 134.126 C 449.000 124.159 447.327 119.886 442.001 116.250 C 438.823 114.081 437.894 114.000 416.221 114.000 L 393.737 114.000 389.368 118.368 M 425.000 146.352 C 425.000 157.476 426.703 160.082 437.516 165.502 C 441.907 167.703 447.913 171.190 450.862 173.252 C 455.858 176.744 456.712 176.998 463.362 176.969 C 469.164 176.943 471.249 176.476 474.500 174.474 C 476.700 173.119 478.957 172.008 479.516 172.005 C 480.075 172.002 482.044 174.526 483.891 177.614 C 487.526 183.692 487.592 183.445 481.500 186.654 C 479.850 187.523 477.445 189.194 476.155 190.367 C 471.504 194.597 471.181 196.359 471.345 216.561 C 471.525 238.608 471.619 238.889 480.804 244.693 C 483.937 246.673 486.625 248.389 486.778 248.508 C 487.426 249.009 480.485 259.997 479.539 259.969 C 478.968 259.952 476.700 258.829 474.500 257.474 C 471.174 255.426 469.221 255.009 462.914 255.005 C 455.813 255.000 455.046 255.218 450.914 258.403 C 448.486 260.275 442.682 263.762 438.016 266.153 C 426.651 271.976 425.000 274.449 425.000 285.648 L 425.000 294.000 417.099 294.000 L 409.199 294.000 408.849 285.054 C 408.511 276.390 408.390 275.994 405.000 272.469 C 403.075 270.467 398.701 267.551 395.279 265.990 C 391.858 264.429 386.497 261.318 383.366 259.076 C 377.981 255.220 377.293 255.001 370.587 255.018 C 364.721 255.033 362.625 255.519 358.423 257.836 L 353.346 260.636 349.828 254.484 L 346.310 248.332 351.050 245.667 C 353.658 244.201 357.188 241.411 358.895 239.466 L 362.000 235.930 362.000 216.000 L 362.000 196.070 358.863 192.497 C 357.137 190.531 353.762 187.773 351.363 186.367 C 348.963 184.961 347.000 183.443 347.000 182.995 C 347.000 182.547 348.423 179.702 350.163 176.673 L 353.326 171.167 358.494 174.083 C 362.840 176.536 364.776 177.000 370.668 177.000 C 377.250 177.000 378.015 176.756 383.286 172.982 C 386.372 170.772 391.672 167.651 395.065 166.047 C 406.285 160.741 409.000 156.747 409.000 145.550 L 409.000 138.000 417.000 138.000 L 425.000 138.000 425.000 146.352 " fill="#ffffff"/>
  </g>
  <g fill="#ffffff" stroke="#FFFFFFFF">
    <path d="M 406.650 172.049 C 399.230 173.294 391.102 177.771 384.733 184.123 C 375.296 193.534 371.322 204.812 372.266 219.500 C 373.156 233.343 379.137 244.424 390.056 252.462 C 398.522 258.695 404.526 260.237 418.751 259.834 C 429.722 259.524 431.026 259.269 437.187 256.232 C 445.166 252.300 454.090 243.165 457.911 235.019 C 460.296 229.935 460.500 228.436 460.500 216.000 C 460.500 203.412 460.317 202.110 457.791 196.719 C 454.319 189.309 445.509 180.080 438.211 176.205 C 429.331 171.492 418.485 170.063 406.650 172.049 M 423.982 198.077 C 429.672 200.658 431.706 202.520 434.279 207.500 C 440.003 218.582 432.873 232.309 419.709 235.550 C 410.108 237.914 397.093 226.823 397.022 216.218 C 396.974 209.020 402.270 201.243 409.500 197.896 C 414.655 195.509 418.425 195.556 423.982 198.077 " fill="#ffffff"/>
  </g>
</svg>
