<?xml version='1.0' encoding='utf-8'?>
<!DOCTYPE svg PUBLIC "-//W3C//DTD SVG 20010904//EN" "http://www.w3.org/TR/2001/REC-SVG-20010904/DTD/svg10.dtd">
<svg xmlns="http://www.w3.org/2000/svg" version="1.0" width="256px" height="256px" viewBox="0 0 512 512" style="" preserveAspectRatio="xMidYMid meet">
  <g fill="#ffffff" stroke="#FFFFFFFF">
    <path d="M 441.836 4.944 C 434.297 6.412 432.364 8.513 407.052 42.735 C 392.063 63.000 389.018 67.696 388.462 71.404 C 387.327 78.975 388.721 83.774 393.422 88.475 C 397.804 92.857 400.949 94.000 408.625 94.000 C 413.831 94.000 413.978 94.624 411.015 104.217 C 407.428 115.831 399.913 125.228 388.983 131.770 C 382.241 135.805 380.500 138.521 380.500 145.000 C 380.500 152.365 380.668 152.549 401.781 168.331 C 411.348 175.481 417.225 180.471 416.031 180.429 C 414.914 180.389 403.243 180.277 390.095 180.179 L 366.189 180.000 365.786 152.750 C 365.413 127.513 365.220 125.094 363.177 120.000 C 358.580 108.538 348.796 98.977 337.360 94.771 C 332.660 93.042 329.322 92.620 320.500 92.637 C 310.770 92.656 308.750 92.976 303.000 95.409 C 299.425 96.922 295.938 98.397 295.250 98.687 C 294.297 99.089 293.999 96.755 293.994 88.857 C 293.983 69.222 291.008 60.053 281.367 49.946 C 270.982 39.059 256.846 34.422 241.374 36.827 C 236.595 37.570 231.664 39.144 228.130 41.054 C 224.564 42.981 194.132 68.976 145.124 111.955 L 67.749 179.814 59.624 180.525 C 55.156 180.917 48.800 182.067 45.500 183.082 C 27.843 188.513 12.567 204.038 6.718 222.500 L 4.500 229.500 4.500 345.000 L 4.500 460.500 6.718 467.500 C 12.693 486.357 27.691 501.359 46.500 507.292 L 53.500 509.500 237.000 509.500 L 420.500 509.500 427.500 507.292 C 446.072 501.434 461.128 486.524 467.175 468.000 C 469.076 462.178 469.345 458.567 469.759 433.376 L 470.220 405.252 475.125 404.672 C 482.199 403.834 489.610 399.753 496.645 392.821 C 507.913 381.718 509.985 374.291 509.985 345.000 C 509.985 315.709 507.913 308.282 496.645 297.179 C 489.610 290.247 482.199 286.166 475.125 285.328 L 470.220 284.748 469.759 256.624 C 469.346 231.491 469.072 227.809 467.185 222.000 C 461.720 205.182 448.667 191.112 432.396 184.499 L 426.854 182.247 429.942 181.170 C 438.249 178.274 457.623 159.884 466.633 146.343 C 475.729 132.674 482.547 114.807 484.557 99.376 L 485.224 94.253 492.091 93.761 C 497.531 93.372 499.689 92.712 502.480 90.583 C 507.594 86.683 509.000 83.264 509.000 74.732 L 509.000 67.366 488.158 39.354 C 476.694 23.948 465.773 10.166 463.888 8.728 C 458.534 4.645 450.474 3.261 441.836 4.944 M 422.175 209.160 C 430.117 212.883 436.397 219.030 440.250 226.852 L 443.500 233.449 443.812 258.650 L 444.124 283.851 400.312 284.207 C 357.246 284.557 356.401 284.602 350.672 286.882 C 343.118 289.889 334.337 298.403 330.602 306.343 C 325.931 316.273 324.674 324.466 324.674 345.000 C 324.674 372.406 327.954 384.073 338.672 394.799 C 349.109 405.244 353.476 405.983 404.812 405.992 L 444.125 406.000 443.812 431.250 C 443.504 456.192 443.468 456.569 440.840 462.175 C 437.115 470.121 430.970 476.397 423.144 480.250 L 416.542 483.500 237.000 483.500 L 57.458 483.500 50.856 480.250 C 43.030 476.397 36.885 470.121 33.160 462.175 L 30.500 456.500 30.500 345.000 L 30.500 233.500 33.135 227.880 C 37.792 217.949 46.053 210.657 56.286 207.445 C 59.724 206.366 93.275 206.157 238.500 206.311 L 416.500 206.500 422.175 209.160 M 254.782 63.553 C 259.712 65.612 263.835 69.598 266.104 74.500 C 267.674 77.891 267.959 81.091 267.978 95.506 L 268.000 112.512 200.250 146.328 L 132.500 180.144 120.614 179.822 L 108.728 179.500 173.614 122.610 C 209.301 91.320 240.300 64.893 242.500 63.882 C 247.421 61.621 249.992 61.552 254.782 63.553 M 328.686 120.434 C 332.274 122.105 334.738 124.157 336.686 127.098 L 339.500 131.348 339.800 155.674 L 340.099 180.000 266.800 179.941 L 193.500 179.882 240.000 156.621 C 301.870 125.671 317.962 117.998 320.976 118.010 C 322.364 118.015 325.834 119.106 328.686 120.434 M 473.071 312.750 C 477.608 315.048 478.952 316.392 481.250 320.929 C 483.957 326.275 484.000 326.647 484.000 345.000 C 484.000 363.353 483.957 363.725 481.250 369.071 C 478.952 373.608 477.608 374.952 473.071 377.250 L 467.641 380.000 437.071 379.999 L 406.500 379.998 410.730 377.905 C 413.056 376.753 417.401 373.174 420.384 369.952 C 427.282 362.502 429.430 356.575 429.430 345.000 C 429.430 333.425 427.282 327.498 420.384 320.048 C 417.401 316.826 413.056 313.247 410.730 312.095 L 406.500 310.002 437.071 310.001 L 467.641 310.000 473.071 312.750 M 462.634 49.921 L 475.768 67.766 471.262 68.274 C 468.001 68.642 465.920 69.618 463.727 71.812 C 460.891 74.647 460.645 75.503 459.890 85.171 C 458.169 107.183 448.764 128.766 434.109 144.334 C 432.124 146.442 429.264 149.059 427.754 150.149 L 425.008 152.130 420.589 148.956 L 416.169 145.782 422.137 138.675 C 435.191 123.127 440.814 103.450 438.161 82.597 C 436.927 72.898 434.083 69.298 426.778 68.192 L 422.211 67.500 435.340 49.750 C 442.561 39.988 448.701 32.017 448.984 32.038 C 449.268 32.059 455.410 40.106 462.634 49.921 M 375.270 312.095 C 369.128 315.135 360.577 324.796 358.356 331.204 C 355.877 338.354 355.877 351.646 358.356 358.796 C 360.577 365.204 369.128 374.865 375.270 377.905 L 379.500 379.998 372.000 379.983 C 359.169 379.956 353.555 374.710 351.061 360.418 C 348.649 346.593 350.195 327.333 354.385 319.000 C 357.669 312.470 362.440 310.037 372.000 310.017 L 379.500 310.002 375.270 312.095 M 400.477 338.020 C 404.755 342.292 404.660 347.802 400.231 352.231 C 395.865 356.596 390.419 356.733 386.091 352.587 C 382.221 348.879 381.446 345.230 383.578 340.758 C 386.918 333.755 394.910 332.460 400.477 338.020 " fill="#ffffff"/>
  </g>
</svg>
