<?xml version='1.0' encoding='utf-8'?>
<!DOCTYPE svg PUBLIC "-//W3C//DTD SVG 20010904//EN" "http://www.w3.org/TR/2001/REC-SVG-20010904/DTD/svg10.dtd">
<svg xmlns="http://www.w3.org/2000/svg" version="1.0" width="256px" height="256px" viewBox="0 0 512 512" style="" preserveAspectRatio="xMidYMid meet">
  <g fill="#ffffff" stroke="#FFFFFFFF">
    <path d="M 242.184 2.104 C 230.435 3.149 214.167 7.040 204.195 11.191 C 169.798 25.506 149.522 49.523 143.276 83.350 C 141.053 95.387 141.090 123.799 143.351 141.163 C 144.258 148.128 145.000 154.315 145.000 154.913 C 145.000 155.511 143.405 156.000 141.455 156.000 C 137.298 156.000 133.749 159.049 131.259 164.760 C 128.639 170.768 129.168 185.575 132.358 195.500 C 135.181 204.284 140.332 213.576 145.386 219.000 C 147.180 220.925 152.170 229.644 156.476 238.375 C 167.030 259.775 179.896 278.877 191.987 291.096 C 206.229 305.490 219.688 313.647 236.500 318.075 C 247.704 321.026 266.296 321.026 277.500 318.075 C 309.286 309.703 335.015 284.055 357.630 238.196 C 362.362 228.601 367.047 220.613 369.683 217.645 C 378.291 207.952 384.282 191.735 384.327 178.000 C 384.373 164.319 379.938 156.000 372.599 156.000 C 368.339 156.000 368.461 156.983 370.643 140.163 C 372.666 124.565 372.920 96.266 371.129 86.000 C 368.439 70.581 364.370 59.502 357.542 49.000 C 340.548 22.863 308.044 5.367 270.336 2.059 C 257.229 0.909 255.584 0.912 242.184 2.104 M 215.639 81.937 C 247.482 111.674 282.726 124.607 342.750 128.579 L 353.000 129.258 352.982 133.879 C 352.960 139.406 350.825 154.547 348.030 168.998 C 346.914 174.772 346.000 179.934 346.000 180.470 C 346.000 181.005 347.519 178.306 349.376 174.472 C 351.232 170.637 354.159 166.176 355.880 164.559 C 358.563 162.036 359.396 161.753 361.724 162.572 C 366.412 164.221 369.000 169.330 369.000 176.938 C 369.000 189.256 365.065 199.809 357.427 207.975 C 354.725 210.864 351.272 216.475 348.437 222.583 C 324.410 274.362 309.024 292.833 282.500 301.737 C 275.032 304.244 273.337 304.422 257.000 304.422 C 240.663 304.422 238.968 304.244 231.500 301.737 C 205.774 293.101 189.210 273.821 167.963 227.779 C 162.982 216.986 159.765 211.388 156.600 208.004 C 151.574 202.630 148.924 197.873 146.610 190.068 C 144.566 183.172 144.506 171.856 146.494 168.011 C 148.062 164.979 151.607 162.000 153.646 162.000 C 156.325 162.000 161.468 167.814 164.637 174.426 C 166.487 178.286 168.000 181.088 168.000 180.652 C 168.000 180.217 166.601 172.580 164.891 163.681 C 162.535 151.417 161.658 143.616 161.267 131.454 C 160.777 116.218 160.866 115.183 163.016 110.954 C 168.791 99.599 177.543 89.161 186.393 83.073 C 191.264 79.722 202.820 75.061 206.356 75.021 C 207.376 75.009 211.554 78.121 215.639 81.937 " fill="#ffffff"/>
  </g>
  <g fill="#ffffff" stroke="#FFFFFFFF">
    <path d="M 168.500 340.159 C 165.200 341.237 149.550 345.932 133.723 350.592 C 117.896 355.252 99.671 360.887 93.223 363.114 C 75.370 369.281 55.026 379.647 45.000 387.685 C 36.538 394.469 36.468 394.564 29.319 408.801 C 20.592 426.180 19.158 431.941 17.819 455.000 C 16.041 485.633 17.574 493.718 26.936 503.090 C 37.346 513.511 12.623 512.500 257.000 512.500 C 501.377 512.500 476.654 513.511 487.064 503.090 C 496.369 493.775 497.879 485.894 496.178 455.500 C 494.863 431.982 493.459 426.281 484.681 408.801 C 477.532 394.564 477.462 394.469 469.000 387.685 C 453.900 375.578 430.684 365.400 393.036 354.382 C 371.390 348.047 341.054 338.958 339.259 338.269 C 337.960 337.771 337.854 339.139 338.457 348.597 C 339.257 361.148 337.893 374.394 334.868 383.432 C 329.987 398.013 316.020 422.162 302.221 439.874 C 290.979 454.305 273.226 470.789 259.758 479.302 C 257.105 480.980 256.895 480.959 253.250 478.658 C 246.322 474.284 233.574 463.676 226.083 456.050 C 210.385 440.071 196.530 420.256 185.890 398.570 C 176.892 380.229 175.486 374.088 175.629 353.750 C 175.689 345.088 175.460 338.045 175.119 338.100 C 174.779 338.155 171.800 339.081 168.500 340.159 " fill="#ffffff"/>
  </g>
  <g fill="#ffffff" stroke="#FFFFFFFF">
    <path d="M 234.060 343.582 C 230.222 347.202 226.803 351.045 226.462 352.121 C 225.521 355.085 231.132 363.033 239.812 371.032 L 247.377 378.002 236.688 404.759 C 230.810 419.475 226.000 432.106 226.000 432.828 C 226.000 436.931 241.171 453.430 251.459 460.517 L 256.956 464.302 261.144 461.401 C 271.035 454.548 288.000 436.537 288.000 432.889 C 288.000 432.104 283.275 419.661 277.500 405.236 C 271.725 390.812 267.001 378.670 267.003 378.255 C 267.005 377.840 271.168 373.221 276.253 367.991 C 281.339 362.761 286.132 357.260 286.905 355.768 C 288.206 353.254 288.095 352.745 285.405 348.856 C 283.807 346.547 280.322 342.935 277.660 340.829 L 272.820 337.000 256.929 337.000 L 241.037 337.000 234.060 343.582 " fill="#ffffff"/>
  </g>
</svg>
