<?xml version='1.0' encoding='utf-8'?>
<!DOCTYPE svg PUBLIC "-//W3C//DTD SVG 20010904//EN" "http://www.w3.org/TR/2001/REC-SVG-20010904/DTD/svg10.dtd">
<svg xmlns="http://www.w3.org/2000/svg" version="1.0" width="512px" height="512px" viewBox="0 0 514 514" style="" preserveAspectRatio="xMidYMid meet">
  <g fill="#ffffff" stroke="#000000FF">
    <path d="M 356.888 241.978 C 300.643 247.593 255.547 288.418 243.896 344.266 C 240.922 358.522 240.922 379.478 243.896 393.734 C 254.622 445.149 292.851 483.378 344.266 494.104 C 358.522 497.078 379.478 497.078 393.734 494.104 C 445.149 483.378 483.378 445.149 494.104 393.734 C 498.396 373.158 496.522 346.708 489.359 326.766 C 474.073 284.212 437.847 252.733 394.234 244.106 C 382.595 241.804 367.339 240.935 356.888 241.978 M 397.277 260.318 C 439.555 271.476 471.422 306.022 479.543 349.500 C 481.985 362.574 481.151 384.038 477.689 397.206 C 467.501 435.960 436.051 467.489 397.477 477.621 C 384.026 481.154 362.698 482.008 349.500 479.543 C 325.262 475.016 304.174 463.559 287.374 445.791 C 274.389 432.058 265.234 415.683 260.252 397.277 C 257.838 388.360 257.605 385.872 257.602 369.000 C 257.600 351.882 257.806 349.753 260.358 340.500 C 265.597 321.512 274.491 305.744 287.853 291.758 C 304.440 274.397 322.720 264.241 347.000 258.898 C 359.757 256.090 383.835 256.771 397.277 260.318 " fill="#ffffff"/>
  </g>
  <g fill="#ffffff" stroke="#000000FF">
    <path d="M 98.713 18.400 C 92.503 20.099 87.119 24.528 84.076 30.441 C 82.061 34.356 81.565 37.049 81.193 46.085 L 80.743 57.000 69.122 57.008 C 47.933 57.021 38.937 59.773 29.360 69.171 C 23.175 75.240 19.457 82.448 18.055 91.090 C 16.618 99.949 16.618 398.051 18.055 406.910 C 19.457 415.552 23.175 422.760 29.360 428.829 C 35.822 435.170 42.705 438.629 51.572 439.991 C 56.172 440.697 86.966 440.962 143.222 440.777 L 227.945 440.500 230.139 438.306 C 233.014 435.430 233.014 430.570 230.139 427.694 L 227.945 425.500 138.723 425.000 C 49.763 424.501 49.488 424.494 45.500 422.347 C 40.360 419.581 37.622 416.598 35.084 411.000 C 33.063 406.543 33.044 405.222 33.022 271.750 L 33.000 137.000 216.968 137.000 L 400.936 137.000 401.218 178.473 C 401.498 219.657 401.515 219.961 403.694 222.140 C 406.570 225.014 411.430 225.014 414.306 222.139 L 416.500 219.945 416.781 159.223 C 416.961 120.082 416.685 96.059 416.003 91.631 C 414.628 82.706 410.905 75.254 404.772 69.153 C 395.494 59.924 385.961 57.021 364.878 57.008 L 353.257 57.000 352.807 46.085 C 352.432 36.981 351.945 34.369 349.874 30.344 C 341.160 13.410 316.840 13.410 308.126 30.344 C 306.055 34.369 305.568 36.981 305.193 46.085 L 304.743 57.000 273.000 57.000 L 241.257 57.000 240.807 46.085 C 240.432 36.981 239.945 34.369 237.874 30.344 C 229.160 13.410 204.840 13.410 196.126 30.344 C 194.055 34.369 193.568 36.981 193.193 46.085 L 192.743 57.000 160.872 57.000 L 129.000 57.000 129.000 49.049 C 129.000 44.676 128.509 38.807 127.908 36.006 C 125.127 23.039 111.592 14.877 98.713 18.400 M 81.312 80.179 C 82.056 89.054 85.103 95.333 90.762 99.649 C 99.054 105.974 110.946 105.974 119.238 99.649 C 124.897 95.333 127.944 89.054 128.688 80.179 L 129.290 73.000 161.000 73.000 L 192.710 73.000 193.312 80.179 C 194.056 89.054 197.103 95.333 202.762 99.649 C 211.054 105.974 222.946 105.974 231.238 99.649 C 236.897 95.333 239.944 89.054 240.688 80.179 L 241.290 73.000 273.000 73.000 L 304.710 73.000 305.312 80.179 C 306.056 89.054 309.103 95.333 314.762 99.649 C 323.054 105.974 334.946 105.974 343.238 99.649 C 348.897 95.333 351.944 89.054 352.688 80.179 L 353.290 73.000 367.895 73.010 C 381.147 73.019 382.963 73.238 387.500 75.377 C 393.458 78.187 396.174 80.952 398.916 87.000 C 400.670 90.868 400.959 93.571 400.978 106.250 L 401.000 121.000 217.000 121.000 L 33.000 121.000 33.022 106.250 C 33.041 93.571 33.330 90.868 35.084 87.000 C 37.826 80.952 40.542 78.187 46.500 75.377 C 51.037 73.238 52.853 73.019 66.105 73.010 L 80.710 73.000 81.312 80.179 M 334.686 35.174 C 336.978 37.328 337.000 37.577 337.000 60.860 C 337.000 83.623 336.931 84.445 334.826 86.686 C 331.957 89.739 326.486 89.805 323.314 86.826 C 321.022 84.672 321.000 84.423 321.000 61.140 C 321.000 38.377 321.069 37.555 323.174 35.314 C 326.043 32.261 331.514 32.195 334.686 35.174 M 222.686 35.174 C 224.978 37.328 225.000 37.577 225.000 60.860 C 225.000 83.623 224.931 84.445 222.826 86.686 C 219.957 89.739 214.486 89.805 211.314 86.826 C 209.022 84.672 209.000 84.423 209.000 61.140 C 209.000 38.377 209.069 37.555 211.174 35.314 C 214.043 32.261 219.514 32.195 222.686 35.174 M 110.686 35.174 C 112.978 37.328 113.000 37.577 113.000 60.860 C 113.000 83.623 112.931 84.445 110.826 86.686 C 107.957 89.739 102.486 89.805 99.314 86.826 C 97.022 84.672 97.000 84.423 97.000 61.140 C 97.000 38.377 97.069 37.555 99.174 35.314 C 102.043 32.261 107.514 32.195 110.686 35.174 " fill="#ffffff"/>
  </g>
  <g fill="#ffffff" stroke="#000000FF">
    <path d="M 359.000 273.990 C 334.513 276.409 310.204 289.675 294.654 309.105 C 271.261 338.336 266.955 377.898 283.509 411.503 C 292.397 429.546 308.454 445.603 326.497 454.491 C 381.153 481.415 446.361 451.391 461.627 392.274 C 465.290 378.088 465.279 359.607 461.599 345.500 C 449.601 299.512 406.281 269.319 359.000 273.990 M 386.000 290.532 C 417.126 297.728 440.272 320.874 447.468 352.000 C 449.401 360.362 449.399 377.652 447.464 386.000 C 440.313 416.849 416.849 440.313 386.000 447.464 C 377.652 449.399 360.362 449.401 352.000 447.468 C 320.570 440.201 297.452 416.893 290.448 385.410 C 287.750 373.283 288.756 356.181 292.883 344.000 C 297.277 331.033 302.885 321.986 312.437 312.456 C 323.951 300.968 333.927 295.334 350.500 290.958 C 359.333 288.626 376.846 288.416 386.000 290.532 " fill="#ffffff"/>
  </g>
  <g fill="#ffffff" stroke="#000000FF">
    <path d="M 150.020 330.259 C 145.236 332.728 144.959 334.582 145.239 362.224 C 145.495 387.493 145.540 387.988 147.778 390.224 C 150.035 392.479 150.300 392.500 177.000 392.500 C 203.706 392.500 203.965 392.480 206.222 390.222 C 208.480 387.965 208.500 387.706 208.500 361.000 C 208.500 334.300 208.479 334.035 206.224 331.778 C 203.988 329.540 203.493 329.495 178.224 329.239 C 158.848 329.043 151.888 329.294 150.020 330.259 M 193.000 361.000 L 193.000 377.000 177.000 377.000 L 161.000 377.000 161.000 361.000 L 161.000 345.000 177.000 345.000 L 193.000 345.000 193.000 361.000 " fill="#ffffff"/>
  </g>
  <g fill="#ffffff" stroke="#000000FF">
    <path d="M 70.020 330.259 C 65.236 332.728 64.959 334.582 65.239 362.224 C 65.495 387.493 65.540 387.988 67.778 390.224 C 70.035 392.479 70.300 392.500 97.000 392.500 C 123.706 392.500 123.965 392.480 126.222 390.222 C 128.480 387.965 128.500 387.706 128.500 361.000 C 128.500 334.300 128.479 334.035 126.224 331.778 C 123.988 329.540 123.493 329.495 98.224 329.239 C 78.848 329.043 71.888 329.294 70.020 330.259 M 113.000 361.000 L 113.000 377.000 97.000 377.000 L 81.000 377.000 81.000 361.000 L 81.000 345.000 97.000 345.000 L 113.000 345.000 113.000 361.000 " fill="#ffffff"/>
  </g>
  <g fill="#ffffff" stroke="#000000FF">
    <path d="M 150.020 250.259 C 145.236 252.728 144.959 254.582 145.239 282.224 C 145.495 307.493 145.540 307.988 147.778 310.224 C 150.035 312.479 150.300 312.500 177.000 312.500 C 203.706 312.500 203.965 312.480 206.222 310.222 C 208.480 307.965 208.500 307.706 208.500 281.000 C 208.500 254.300 208.479 254.035 206.224 251.778 C 203.988 249.540 203.493 249.495 178.224 249.239 C 158.848 249.043 151.888 249.294 150.020 250.259 M 193.000 281.000 L 193.000 297.000 177.000 297.000 L 161.000 297.000 161.000 281.000 L 161.000 265.000 177.000 265.000 L 193.000 265.000 193.000 281.000 " fill="#ffffff"/>
  </g>
  <g fill="#ffffff" stroke="#000000FF">
    <path d="M 70.020 250.259 C 65.236 252.728 64.959 254.582 65.239 282.224 C 65.495 307.493 65.540 307.988 67.778 310.224 C 70.035 312.479 70.300 312.500 97.000 312.500 C 123.706 312.500 123.965 312.480 126.222 310.222 C 128.480 307.965 128.500 307.706 128.500 281.000 C 128.500 254.300 128.479 254.035 126.224 251.778 C 123.988 249.540 123.493 249.495 98.224 249.239 C 78.848 249.043 71.888 249.294 70.020 250.259 M 113.000 281.000 L 113.000 297.000 97.000 297.000 L 81.000 297.000 81.000 281.000 L 81.000 265.000 97.000 265.000 L 113.000 265.000 113.000 281.000 " fill="#ffffff"/>
  </g>
  <g fill="#ffffff" stroke="#000000FF">
    <path d="M 310.020 170.259 C 305.236 172.728 304.959 174.582 305.239 202.224 C 305.495 227.493 305.540 227.988 307.778 230.224 C 310.035 232.479 310.300 232.500 337.000 232.500 C 363.706 232.500 363.965 232.480 366.222 230.222 C 368.480 227.965 368.500 227.706 368.500 201.000 C 368.500 174.300 368.479 174.035 366.224 171.778 C 363.988 169.540 363.493 169.495 338.224 169.239 C 318.848 169.043 311.888 169.294 310.020 170.259 M 353.000 201.000 L 353.000 217.000 337.000 217.000 L 321.000 217.000 321.000 201.000 L 321.000 185.000 337.000 185.000 L 353.000 185.000 353.000 201.000 " fill="#ffffff"/>
  </g>
  <g fill="#ffffff" stroke="#000000FF">
    <path d="M 230.020 170.259 C 225.236 172.728 224.959 174.582 225.239 202.224 C 225.495 227.493 225.540 227.988 227.778 230.224 C 230.035 232.479 230.300 232.500 257.000 232.500 C 283.706 232.500 283.965 232.480 286.222 230.222 C 288.480 227.965 288.500 227.706 288.500 201.000 C 288.500 174.300 288.479 174.035 286.224 171.778 C 283.988 169.540 283.493 169.495 258.224 169.239 C 238.848 169.043 231.888 169.294 230.020 170.259 M 273.000 201.000 L 273.000 217.000 257.000 217.000 L 241.000 217.000 241.000 201.000 L 241.000 185.000 257.000 185.000 L 273.000 185.000 273.000 201.000 " fill="#ffffff"/>
  </g>
  <g fill="#ffffff" stroke="#000000FF">
    <path d="M 150.020 170.259 C 145.236 172.728 144.959 174.582 145.239 202.224 C 145.495 227.493 145.540 227.988 147.778 230.224 C 150.035 232.479 150.300 232.500 177.000 232.500 C 203.706 232.500 203.965 232.480 206.222 230.222 C 208.480 227.965 208.500 227.706 208.500 201.000 C 208.500 174.300 208.479 174.035 206.224 171.778 C 203.988 169.540 203.493 169.495 178.224 169.239 C 158.848 169.043 151.888 169.294 150.020 170.259 M 193.000 201.000 L 193.000 217.000 177.000 217.000 L 161.000 217.000 161.000 201.000 L 161.000 185.000 177.000 185.000 L 193.000 185.000 193.000 201.000 " fill="#ffffff"/>
  </g>
  <g fill="#ffffff" stroke="#000000FF">
    <path d="M 366.020 306.292 C 362.686 307.969 361.033 311.547 361.015 317.120 L 361.000 321.740 356.447 323.015 C 350.682 324.629 342.890 331.529 339.931 337.642 C 335.229 347.355 337.630 360.563 345.533 368.467 C 351.022 373.955 356.527 376.039 367.298 376.705 C 372.359 377.019 377.730 377.896 379.233 378.654 C 384.502 381.314 386.535 389.131 383.490 395.020 C 380.941 399.949 378.913 400.460 359.775 401.000 C 343.210 401.467 341.907 401.644 339.858 403.694 C 336.987 406.570 336.987 411.431 339.859 414.306 C 341.742 416.190 343.375 416.548 351.410 416.843 L 360.768 417.185 361.221 422.652 C 361.761 429.164 364.308 432.333 369.000 432.333 C 373.859 432.333 376.289 429.156 376.796 422.137 L 377.226 416.197 381.666 414.954 C 387.356 413.360 395.145 406.397 398.127 400.237 C 402.852 390.478 400.465 377.531 392.467 369.533 C 386.919 363.986 381.180 361.812 370.546 361.232 C 365.571 360.960 360.270 360.114 358.767 359.352 C 353.496 356.679 351.465 348.868 354.510 342.980 C 357.059 338.051 359.087 337.540 378.225 337.000 C 394.790 336.533 396.093 336.356 398.142 334.306 C 401.013 331.430 401.013 326.569 398.141 323.694 C 396.258 321.810 394.625 321.452 386.590 321.157 L 377.232 320.815 376.779 315.348 C 376.131 307.531 371.427 303.571 366.020 306.292 " fill="#ffffff"/>
  </g>
  <g fill="#ffffff" stroke="#000000FF">
    <path d="M 230.020 250.251 C 225.235 252.736 224.959 254.583 225.239 282.224 C 225.492 307.201 225.564 308.011 227.694 310.141 C 230.569 313.013 235.431 313.013 238.306 310.141 C 240.407 308.042 240.513 307.041 240.804 286.551 L 241.109 265.153 254.530 264.826 C 266.778 264.529 268.142 264.308 270.142 262.306 C 273.013 259.431 273.013 254.569 270.141 251.694 C 268.073 249.623 266.954 249.485 250.225 249.231 C 237.262 249.035 231.834 249.309 230.020 250.251 " fill="#ffffff"/>
  </g>
</svg>
