<?xml version='1.0' encoding='utf-8'?>
<!DOCTYPE svg PUBLIC "-//W3C//DTD SVG 20010904//EN" "http://www.w3.org/TR/2001/REC-SVG-20010904/DTD/svg10.dtd">
<svg xmlns="http://www.w3.org/2000/svg" version="1.0" width="256px" height="256px" viewBox="0 0 1000 980" style="" preserveAspectRatio="xMidYMid meet">
  <g fill="#ffffff" stroke="#D0D0D0FF">
    <path d="M 503.967 182.345 C 503.674 182.650 501.874 183.085 499.967 183.312 C 495.556 183.836 486.747 187.701 485.700 189.571 C 485.260 190.357 484.360 191.012 483.700 191.026 C 482.553 191.051 480.503 193.674 462.699 217.889 C 458.408 223.725 449.733 235.475 443.420 244.000 C 437.108 252.525 424.975 268.950 416.459 280.500 C 401.900 300.247 393.992 310.878 369.314 343.879 C 357.623 359.513 337.554 386.667 324.618 404.355 C 319.732 411.035 315.434 416.725 315.066 417.000 C 314.698 417.275 312.845 419.744 310.949 422.487 C 309.052 425.229 306.936 428.076 306.246 428.812 C 305.557 429.548 303.552 432.244 301.792 434.802 C 300.031 437.361 298.036 440.140 297.358 440.977 C 296.680 441.815 291.957 448.125 286.862 455.000 C 281.768 461.875 277.015 467.860 276.300 468.300 C 275.585 468.740 275.000 469.557 275.000 470.116 C 275.000 470.675 270.577 477.065 265.172 484.316 C 259.766 491.567 250.845 503.575 245.348 511.000 C 239.851 518.425 228.833 533.275 220.864 544.000 C 212.894 554.725 202.609 568.675 198.008 575.000 C 193.407 581.325 186.490 590.775 182.638 596.000 C 167.157 617.000 160.438 626.094 150.925 638.928 C 135.471 659.778 135.652 659.373 135.701 673.000 C 135.747 685.653 135.849 685.931 146.328 702.202 C 148.347 705.338 150.000 708.143 150.000 708.434 C 150.000 708.726 151.800 711.906 154.000 715.500 C 156.200 719.094 158.000 722.188 158.000 722.374 C 158.000 722.561 160.244 726.613 162.987 731.379 C 165.729 736.145 168.253 741.160 168.595 742.522 C 168.937 743.885 169.531 745.000 169.916 745.000 C 170.300 745.000 171.978 743.088 173.644 740.750 C 180.104 731.684 211.205 689.321 213.781 686.077 C 215.277 684.195 217.850 680.768 219.500 678.463 C 221.150 676.158 225.328 670.499 228.785 665.886 C 240.914 649.703 250.542 636.720 255.000 630.538 C 257.475 627.106 260.662 622.768 262.082 620.899 C 263.503 619.029 273.369 605.800 284.008 591.500 C 294.647 577.200 306.760 560.919 310.926 555.319 C 315.091 549.720 319.175 544.173 320.000 542.993 C 323.244 538.354 329.167 530.326 331.801 527.000 C 333.325 525.075 336.338 521.025 338.496 518.000 C 345.050 508.813 358.075 491.215 385.864 454.000 C 422.545 404.878 441.075 379.901 452.565 364.092 C 464.260 348.001 471.484 338.327 472.909 336.850 C 473.784 335.943 481.925 324.842 491.000 312.181 C 500.075 299.520 508.073 288.910 508.773 288.603 C 510.376 287.900 511.532 289.198 520.262 301.500 C 535.418 322.860 573.878 375.574 590.404 397.638 C 593.757 402.114 597.175 406.770 598.000 407.985 C 598.825 409.199 601.300 412.593 603.500 415.527 C 605.700 418.461 611.325 426.127 616.000 432.563 C 620.675 438.999 625.655 445.668 627.067 447.382 C 628.478 449.097 630.709 452.300 632.025 454.500 C 633.340 456.700 634.973 458.950 635.653 459.500 C 636.780 460.412 651.280 479.783 678.255 516.412 C 683.890 524.064 693.544 537.114 699.710 545.412 C 705.875 553.710 711.725 561.602 712.710 562.950 C 713.694 564.297 717.003 568.572 720.063 572.450 C 723.123 576.327 726.496 580.850 727.559 582.500 C 728.622 584.150 731.994 588.875 735.053 593.000 C 738.111 597.125 745.448 607.025 751.357 615.000 C 757.266 622.975 764.327 632.425 767.049 636.000 C 769.771 639.575 777.632 650.150 784.519 659.500 C 791.406 668.850 798.967 678.975 801.323 682.000 C 803.678 685.025 807.136 689.740 809.007 692.477 C 810.878 695.215 812.994 698.140 813.708 698.977 C 815.704 701.318 836.539 729.657 841.814 737.207 C 844.391 740.896 846.807 743.934 847.183 743.957 C 847.558 743.981 848.172 742.988 848.546 741.750 C 848.921 740.513 852.177 734.550 855.782 728.500 C 859.386 722.450 866.225 710.975 870.979 703.000 C 875.733 695.025 880.227 687.150 880.967 685.500 C 881.774 683.700 882.376 678.299 882.473 672.000 C 882.629 661.797 882.541 661.345 879.362 656.000 C 877.563 652.975 873.806 647.575 871.014 644.000 C 862.023 632.485 858.000 627.097 858.000 626.568 C 858.000 626.284 855.303 622.552 852.008 618.276 C 848.712 613.999 840.964 603.525 834.791 595.000 C 828.618 586.475 811.430 563.300 796.596 543.500 C 781.763 523.700 766.973 503.900 763.731 499.500 C 760.489 495.100 756.635 489.977 755.168 488.115 C 753.701 486.253 752.119 484.078 751.654 483.282 C 750.906 482.002 742.310 470.118 740.238 467.500 C 736.241 462.448 692.507 403.526 681.231 388.000 C 677.836 383.325 674.454 378.825 673.715 378.000 C 672.572 376.724 665.046 366.609 655.115 353.000 C 652.278 349.113 652.011 348.771 648.482 344.500 C 647.118 342.850 646.002 341.231 646.001 340.903 C 646.001 340.575 645.048 339.225 643.885 337.903 C 642.721 336.581 641.042 334.375 640.152 333.000 C 639.263 331.625 634.928 325.694 630.518 319.821 C 626.108 313.947 619.650 305.172 616.166 300.321 C 609.333 290.803 582.361 254.374 553.500 215.683 C 535.154 191.087 532.352 188.208 523.359 184.713 C 519.139 183.073 504.935 181.338 503.967 182.345 " fill="#ffffff"/>
  </g>
  <g fill="#ffffff" stroke="#D0D0D0FF">
    <path d="M 495.500 463.817 C 486.031 467.853 482.673 470.680 474.761 481.282 C 468.334 489.894 444.558 521.847 435.500 534.048 C 431.100 539.974 419.400 555.592 409.500 568.754 C 399.600 581.916 383.625 603.392 374.000 616.479 C 364.375 629.566 355.150 641.945 353.500 643.990 C 350.450 647.768 340.539 661.046 327.000 679.494 C 320.447 688.423 273.129 751.659 266.089 760.897 C 245.633 787.737 243.570 791.903 244.248 805.000 C 244.787 815.389 247.582 822.156 254.496 829.809 C 259.201 835.018 268.975 841.000 272.780 841.000 C 273.791 841.000 275.491 841.661 276.559 842.468 C 279.147 844.426 287.696 844.447 289.643 842.500 C 290.468 841.675 292.141 841.000 293.360 841.000 C 296.086 841.000 301.890 838.112 305.836 834.791 C 307.459 833.426 313.701 825.602 319.708 817.404 C 325.715 809.207 333.405 798.900 336.797 794.500 C 340.189 790.100 348.595 778.850 355.477 769.500 C 362.358 760.150 372.379 746.588 377.744 739.363 C 391.730 720.529 409.640 696.344 423.500 677.577 C 430.100 668.640 438.425 657.543 442.000 652.916 C 445.575 648.289 453.675 637.463 460.000 628.859 C 482.403 598.383 508.226 564.500 509.050 564.500 C 509.510 564.500 512.274 567.655 515.193 571.512 C 526.492 586.440 534.602 597.352 537.000 600.851 C 538.375 602.858 550.942 619.800 564.927 638.500 C 578.913 657.200 595.531 679.475 601.857 688.000 C 608.183 696.525 620.392 712.950 628.988 724.500 C 654.852 759.252 656.000 760.872 656.000 762.633 C 656.000 764.222 649.406 764.289 552.250 763.680 C 495.188 763.323 447.925 763.395 447.222 763.841 C 446.520 764.287 442.470 769.388 438.222 775.177 C 433.975 780.966 427.110 790.156 422.966 795.601 C 397.127 829.553 390.000 839.157 390.000 840.024 C 390.000 840.655 452.569 841.000 566.878 841.000 C 756.720 841.000 745.241 841.286 754.500 836.332 C 759.671 833.566 766.053 826.732 769.158 820.635 C 772.735 813.611 774.079 800.586 772.070 792.408 C 770.442 785.784 769.154 783.964 716.425 713.805 C 691.084 680.087 667.836 649.125 664.764 645.000 C 661.691 640.875 655.424 632.526 650.838 626.446 C 646.252 620.366 637.356 608.441 631.068 599.946 C 624.780 591.451 608.365 569.425 594.590 551.000 C 567.780 515.141 564.892 511.236 559.463 503.500 C 557.533 500.750 553.827 495.763 551.227 492.417 C 548.627 489.072 544.518 483.710 542.096 480.501 C 531.859 466.942 522.519 461.952 507.572 462.056 C 502.307 462.092 498.109 462.705 495.500 463.817 " fill="#ffffff"/>
  </g>
</svg>
