<?xml version='1.0' encoding='utf-8'?>
<!DOCTYPE svg PUBLIC "-//W3C//DTD SVG 20010904//EN" "http://www.w3.org/TR/2001/REC-SVG-20010904/DTD/svg10.dtd">
<svg xmlns="http://www.w3.org/2000/svg" version="1.0" width="512px" height="512px" viewBox="0 0 514 514" style="" preserveAspectRatio="xMidYMid meet">
  <g fill="#ffffff" stroke="#000000FF">
    <path d="M 448.798 302.931 C 445.661 303.934 440.971 305.999 438.375 307.520 C 435.779 309.042 419.010 324.585 401.111 342.061 L 368.566 373.835 366.321 369.882 C 362.356 362.901 356.915 357.097 350.124 352.602 C 338.854 345.143 336.898 344.750 307.239 343.971 L 280.979 343.282 275.239 338.307 C 261.279 326.208 248.590 318.687 232.775 313.136 C 219.418 308.448 208.383 306.648 193.000 306.648 C 172.901 306.648 159.305 309.693 139.847 318.552 C 127.019 324.392 124.120 324.947 106.289 324.976 L 91.077 325.000 90.050 321.185 C 89.013 317.335 86.330 314.193 82.316 312.125 C 80.822 311.356 69.280 311.001 45.816 311.004 C 13.134 311.007 11.342 311.104 8.182 313.030 C 6.177 314.253 4.090 316.803 2.908 319.474 C 1.014 323.757 0.962 326.348 1.227 402.697 L 1.500 481.500 3.766 485.144 C 7.942 491.860 8.812 492.000 46.151 491.998 C 85.066 491.997 84.809 492.049 89.000 483.254 L 91.500 478.007 110.312 478.004 L 129.124 478.000 180.812 495.250 L 232.500 512.500 291.914 512.802 C 330.943 513.000 353.759 512.733 358.414 512.023 C 372.709 509.844 370.512 511.716 439.287 443.122 C 473.820 408.680 503.395 378.456 505.009 375.957 C 522.115 349.470 508.446 312.329 478.145 302.964 C 469.885 300.411 456.724 300.397 448.798 302.931 M 471.980 332.250 C 478.967 335.820 482.331 340.829 482.812 348.381 C 483.103 352.964 482.748 355.618 481.510 358.094 C 479.557 362.002 362.893 479.389 358.800 481.565 C 356.541 482.765 346.419 483.000 296.921 483.000 L 237.743 483.000 186.000 466.000 L 134.257 449.000 112.629 449.000 L 91.000 449.000 91.000 401.603 L 91.000 354.205 111.250 353.732 C 133.696 353.206 134.782 352.983 151.038 345.531 C 167.889 337.807 173.962 336.500 193.000 336.500 C 212.015 336.500 219.388 338.076 233.381 345.132 C 243.868 350.420 247.702 353.131 258.500 362.895 C 263.910 367.787 268.896 371.423 271.000 372.011 C 272.925 372.549 286.102 372.991 300.282 372.994 C 328.334 373.000 330.615 373.368 336.342 378.803 C 341.377 383.582 343.254 388.611 343.787 398.750 L 344.273 408.000 298.886 408.022 C 256.293 408.043 253.240 408.162 249.271 409.964 C 238.679 414.772 238.043 430.153 248.206 435.701 C 251.265 437.372 255.466 437.500 307.177 437.500 C 361.850 437.500 362.904 437.463 365.615 435.438 C 371.190 431.275 372.441 428.504 372.989 419.106 L 373.500 410.328 412.137 372.246 C 433.388 351.300 452.513 333.247 454.637 332.126 C 459.841 329.381 466.457 329.428 471.980 332.250 M 61.758 401.250 L 61.500 462.500 46.250 462.776 L 31.000 463.052 31.000 401.526 L 31.000 340.000 46.508 340.000 L 62.015 340.000 61.758 401.250 " fill="#ffffff"/>
  </g>
  <g fill="#ffffff" stroke="#000000FF">
    <path d="M 294.883 2.002 C 247.742 6.445 206.211 32.554 181.547 73.249 C 156.833 114.029 154.168 167.069 174.630 210.926 C 188.240 240.097 214.815 267.173 243.430 281.023 C 264.172 291.063 283.761 295.420 308.000 295.385 C 349.410 295.325 382.460 281.661 411.571 252.564 C 433.177 230.969 445.609 208.312 452.103 178.694 C 454.948 165.721 455.700 140.790 453.648 127.500 C 446.210 79.320 416.678 38.458 373.666 16.832 C 350.911 5.391 320.219 -0.386 294.883 2.002 M 335.589 33.855 C 402.251 50.651 440.927 119.085 420.444 184.000 C 414.791 201.916 405.056 217.893 391.500 231.502 C 371.322 251.758 347.629 263.008 318.750 266.046 C 275.020 270.646 230.237 247.966 206.959 209.431 C 176.894 159.660 188.344 93.521 233.259 57.521 C 251.017 43.288 267.319 36.096 292.000 31.605 C 293.375 31.355 301.925 31.300 311.000 31.483 C 323.413 31.734 329.504 32.322 335.589 33.855 " fill="#ffffff"/>
  </g>
  <g fill="#ffffff" stroke="#000000FF">
    <path d="M 301.020 58.752 C 296.269 61.139 293.001 66.289 292.996 71.398 C 292.993 75.329 292.801 75.579 288.406 77.386 C 281.648 80.166 272.609 89.008 269.029 96.341 C 263.621 107.417 263.312 121.266 268.237 131.811 C 272.921 141.840 285.801 150.501 309.500 159.559 C 315.028 161.672 320.697 164.570 322.176 166.040 C 330.223 174.034 323.688 190.204 311.355 192.818 C 303.461 194.491 293.561 192.887 285.555 188.638 C 278.151 184.710 274.777 184.231 269.636 186.379 C 259.858 190.464 258.233 203.925 266.677 210.885 C 271.489 214.852 281.417 219.670 287.828 221.150 C 292.986 222.340 293.000 222.354 293.000 226.304 C 293.000 234.121 299.332 240.000 307.753 240.000 C 315.462 240.000 321.976 232.920 322.016 224.500 C 322.034 220.589 322.161 220.446 327.767 218.049 C 334.882 215.007 345.613 204.671 349.384 197.229 C 360.359 175.571 354.420 151.461 335.048 139.031 C 332.408 137.337 326.595 134.618 322.131 132.988 C 310.706 128.819 301.202 124.391 297.319 121.430 C 294.613 119.366 294.001 118.215 294.004 115.199 C 294.008 110.553 297.156 105.276 300.750 103.889 C 306.288 101.752 314.292 102.561 320.623 105.898 C 327.679 109.617 333.676 109.981 338.526 106.984 C 344.717 103.158 346.893 93.617 343.022 87.268 C 340.746 83.535 333.551 78.728 326.876 76.480 C 322.461 74.993 322.229 74.724 321.759 70.553 C 320.569 60.000 310.237 54.121 301.020 58.752 " fill="#ffffff"/>
  </g>
</svg>
