<?xml version='1.0' encoding='utf-8'?>
<!DOCTYPE svg PUBLIC "-//W3C//DTD SVG 20010904//EN" "http://www.w3.org/TR/2001/REC-SVG-20010904/DTD/svg10.dtd">
<svg xmlns="http://www.w3.org/2000/svg" version="1.0" width="512px" height="512px" viewBox="0 0 512 512" preserveAspectRatio="xMidYMid meet">
  <g transform="translate(0.000000,512.000000) scale(0.100000,-0.100000)" fill="#ffffff" stroke="none">
    <path d="M0 4180 l0 -940 425 0 425 0 0 130 0 130 71 0 c67 0 76 -3 146 -45 129 -79 269 -128 403 -141 l70 -7 0 -543 0 -544 1790 0 1790 0 0 1110 0 1110 -803 0 -802 0 -245 246 c-260 261 -337 324 -453 372 -144 60 -167 62 -824 62 -476 0 -608 -3 -648 -14 -27 -8 -111 -43 -185 -80 -138 -67 -220 -88 -284 -72 -25 6 -26 9 -26 86 l0 80 -425 0 -425 0 0 -940z m680 0 l0 -770 -255 0 -255 0 0 770 0 770 255 0 255 0 0 -770z m1965 755 c143 -30 198 -68 425 -292 l205 -203 -350 0 -350 0 -102 102 -103 103 -60 -60 -59 -59 313 -316 c333 -336 344 -350 333 -432 -15 -110 -142 -181 -240 -132 -18 9 -149 133 -292 275 l-261 260 -60 -49 c-176 -141 -394 -145 -572 -10 -30 22 -54 38 -56 36 -1 -1 -23 -28 -49 -60 -26 -31 -47 -61 -47 -67 0 -14 118 -97 174 -122 l46 -20 0 -206 0 -206 -61 7 c-119 14 -252 66 -371 147 -57 39 -57 39 -157 39 l-101 0 0 555 0 555 65 0 c100 0 160 17 295 82 69 34 141 67 160 74 54 20 1177 19 1275 -1z m2305 -1605 l0 -940 -1620 0 -1620 0 0 733 0 732 68 2 c90 3 152 19 241 60 l75 34 68 -68 c37 -37 68 -73 68 -79 0 -20 -71 -75 -130 -102 -40 -19 -77 -27 -137 -30 l-83 -5 0 -338 0 -339 53 0 c148 0 271 -71 335 -195 21 -40 27 -68 30 -142 l4 -93 1023 0 1022 0 6 86 c12 203 139 327 350 341 l77 6 0 337 0 338 -88 4 c-112 5 -179 36 -250 113 -60 65 -82 122 -89 233 l-6 82 -716 0 -716 0 -85 85 -85 85 1103 0 1102 0 0 -940z m-741 520 c15 -41 41 -96 58 -121 71 -103 203 -195 306 -214 l37 -7 0 -178 0 -178 -32 -7 c-18 -4 -67 -23 -108 -43 -129 -61 -237 -190 -271 -326 l-11 -46 -861 2 -861 3 -11 46 c-42 162 -184 307 -347 354 l-58 16 0 177 0 177 64 19 c70 20 150 67 208 124 l38 36 82 -81 c47 -45 107 -92 138 -108 101 -51 241 -43 334 20 47 32 50 32 30 -7 -84 -162 -41 -377 99 -504 168 -151 418 -149 582 7 101 96 140 195 133 340 -4 76 -9 97 -41 162 -45 91 -112 156 -207 201 -54 25 -80 31 -157 34 -108 5 -179 -13 -256 -65 -28 -19 -53 -36 -57 -38 -4 -2 2 22 13 53 19 56 20 149 1 210 l-6 22 567 -2 567 -3 27 -75z m-795 -282 c59 -18 138 -99 155 -160 33 -119 -9 -236 -107 -295 -108 -64 -225 -51 -312 37 -193 192 -1 496 264 418z" fill="#ffffff"/>
    <path d="M4270 1575 c0 -80 -4 -135 -10 -135 -5 0 -51 25 -102 57 -51 31 -122 70 -158 87 l-65 31 -285 0 c-267 0 -290 -1 -363 -23 -44 -12 -288 -79 -544 -147 -306 -83 -480 -134 -509 -151 -49 -29 -105 -89 -129 -140 -9 -19 -18 -34 -21 -34 -2 0 -205 109 -450 241 -245 133 -467 248 -492 256 -66 21 -170 11 -237 -22 -63 -30 -139 -108 -168 -173 -16 -36 -21 -67 -22 -132 0 -77 3 -92 33 -152 18 -36 48 -80 67 -97 32 -28 1569 -952 1660 -998 84 -43 118 -45 815 -41 l665 3 146 57 c81 32 152 58 158 58 7 0 11 -22 11 -60 l0 -60 425 0 425 0 0 855 0 855 -425 0 -425 0 0 -135z m680 -720 l0 -685 -255 0 -255 0 0 685 0 685 255 0 255 0 0 -685z m-3357 334 l483 -261 13 -41 c27 -93 121 -181 225 -212 59 -18 97 -19 168 -4 43 9 863 225 931 245 21 7 19 29 -8 122 l-15 49 -461 -123 c-253 -68 -480 -126 -504 -130 -126 -18 -225 124 -169 243 33 68 46 73 609 225 l530 143 220 3 c121 2 239 1 262 -3 28 -4 100 -41 217 -111 l176 -105 0 -458 0 -458 -172 -69 -173 -69 -635 -3 c-349 -2 -654 0 -677 3 -39 6 -328 175 -1510 884 -178 107 -206 132 -219 199 -21 106 76 211 184 197 31 -3 176 -77 525 -266z" fill="#ffffff"/>
  </g>
</svg>
