<?xml version='1.0' encoding='utf-8'?>
<!DOCTYPE svg PUBLIC "-//W3C//DTD SVG 20010904//EN" "http://www.w3.org/TR/2001/REC-SVG-20010904/DTD/svg10.dtd">
<svg xmlns="http://www.w3.org/2000/svg" version="1.0" width="256px" height="256px" viewBox="0 0 512 512" style="" preserveAspectRatio="xMidYMid meet">
  <g fill="#ffffff" stroke="#FFFFFFFF">
    <path d="M 247.500 10.936 C 245.850 11.339 242.882 12.530 240.904 13.584 C 238.926 14.638 188.940 52.266 129.825 97.203 C 55.433 153.751 21.217 180.348 18.691 183.591 C 12.761 191.202 10.672 197.880 10.580 209.521 C 10.505 218.906 10.708 219.965 13.781 226.206 C 17.465 233.690 24.253 240.468 31.769 244.170 C 36.002 246.255 37.895 246.500 49.749 246.500 L 62.998 246.500 62.999 341.250 L 63.000 436.000 44.968 436.000 C 25.326 436.000 22.069 436.668 16.658 441.803 C 10.615 447.539 10.000 450.143 10.000 470.000 C 10.000 489.857 10.615 492.461 16.658 498.197 C 23.248 504.451 4.553 504.000 257.000 504.000 C 506.547 504.000 489.849 504.381 496.794 498.526 C 503.281 493.056 504.000 490.208 504.000 470.000 C 504.000 450.143 503.385 447.539 497.342 441.803 C 491.931 436.668 488.674 436.000 469.032 436.000 L 451.000 436.000 451.000 340.955 L 451.000 245.909 454.750 246.694 C 461.089 248.021 474.132 247.469 479.500 245.647 C 489.940 242.104 499.272 232.606 502.554 222.184 C 505.105 214.082 504.251 199.309 500.798 191.825 C 496.984 183.560 492.054 178.776 470.408 162.341 L 451.000 147.605 451.000 87.270 C 451.000 22.049 451.142 23.867 445.526 17.206 C 439.650 10.238 438.366 10.000 406.605 10.000 C 388.993 10.000 377.056 10.404 375.315 11.060 C 372.305 12.193 365.601 18.203 363.671 21.500 C 362.887 22.838 362.335 32.773 362.000 51.524 L 361.500 79.549 317.680 46.292 C 282.885 19.886 272.807 12.723 268.749 11.518 C 263.465 9.949 252.752 9.656 247.500 10.936 M 343.500 166.330 L 425.500 228.677 425.755 332.338 L 426.009 436.000 374.505 436.000 L 323.000 436.000 323.000 354.400 L 323.000 272.800 319.600 269.400 L 316.200 266.000 257.000 266.000 L 197.800 266.000 194.400 269.400 L 191.000 272.800 191.000 354.400 L 191.000 436.000 139.500 436.000 L 88.000 436.000 88.000 359.162 C 88.000 316.902 88.305 270.214 88.677 255.412 L 89.353 228.500 173.276 164.792 C 253.098 104.195 257.303 101.154 259.349 102.534 C 260.532 103.331 298.400 132.040 343.500 166.330 M 274.677 47.250 C 282.864 53.438 331.292 90.206 382.293 128.957 C 465.089 191.867 475.249 199.883 477.143 203.795 C 478.985 207.600 479.112 208.681 478.114 212.014 C 476.877 216.142 472.348 220.624 468.416 221.610 C 467.080 221.946 464.526 221.946 462.740 221.611 C 460.506 221.192 428.908 197.757 361.497 146.524 L 263.500 72.047 257.376 72.023 L 251.252 72.000 156.876 143.714 C 104.969 183.156 60.317 216.906 57.650 218.714 C 52.061 222.500 48.536 222.824 43.098 220.050 C 39.180 218.051 36.000 213.127 36.000 209.059 C 36.000 202.119 35.689 202.375 145.801 118.712 C 204.001 74.493 252.492 37.806 253.559 37.187 C 257.451 34.929 259.946 36.118 274.677 47.250 M 298.000 363.500 L 298.000 436.000 257.000 436.000 L 216.000 436.000 216.000 363.500 L 216.000 291.000 257.000 291.000 L 298.000 291.000 298.000 363.500 M 479.000 470.000 L 479.000 479.000 257.000 479.000 L 35.000 479.000 35.000 470.000 L 35.000 461.000 257.000 461.000 L 479.000 461.000 479.000 470.000 M 425.760 81.602 L 425.500 128.204 406.250 113.561 L 387.000 98.918 387.000 66.959 L 387.000 35.000 406.510 35.000 L 426.020 35.000 425.760 81.602 " fill="#ffffff"/>
  </g>
  <g fill="#ffffff" stroke="#FFFFFFFF">
    <path d="M 347.500 308.954 C 346.400 309.409 344.375 310.992 343.000 312.471 L 340.500 315.161 340.500 363.657 L 340.500 412.154 344.235 415.577 L 347.971 419.000 374.585 419.000 L 401.200 419.000 404.600 415.600 L 408.000 412.200 408.000 363.823 C 408.000 320.716 407.822 315.191 406.369 313.117 C 403.137 308.502 399.867 307.995 373.782 308.063 C 360.427 308.098 348.600 308.499 347.500 308.954 M 383.000 385.000 L 383.000 394.000 374.500 394.000 L 366.000 394.000 366.000 385.000 L 366.000 376.000 374.500 376.000 L 383.000 376.000 383.000 385.000 M 383.000 342.500 L 383.000 351.000 374.500 351.000 L 366.000 351.000 366.000 342.500 L 366.000 334.000 374.500 334.000 L 383.000 334.000 383.000 342.500 " fill="#ffffff"/>
  </g>
  <g fill="#ffffff" stroke="#FFFFFFFF">
    <path d="M 112.378 309.412 C 105.771 312.340 106.000 310.385 106.000 363.823 L 106.000 412.200 109.400 415.600 L 112.800 419.000 139.415 419.000 L 166.029 419.000 169.765 415.577 L 173.500 412.154 173.500 363.596 L 173.500 315.038 170.232 311.769 L 166.965 308.500 141.232 308.264 C 121.087 308.080 114.822 308.329 112.378 309.412 M 148.000 385.000 L 148.000 394.000 139.500 394.000 L 131.000 394.000 131.000 385.000 L 131.000 376.000 139.500 376.000 L 148.000 376.000 148.000 385.000 M 148.000 342.500 L 148.000 351.000 139.500 351.000 L 131.000 351.000 131.000 342.500 L 131.000 334.000 139.500 334.000 L 148.000 334.000 148.000 342.500 " fill="#ffffff"/>
  </g>
  <g fill="#ffffff" stroke="#FFFFFFFF">
    <path d="M 244.000 149.369 C 232.682 152.674 221.635 161.833 216.705 172.000 C 211.188 183.380 210.996 200.801 216.261 212.223 C 221.091 222.699 232.055 232.231 242.932 235.412 C 250.663 237.673 264.222 237.489 272.145 235.017 C 283.407 231.501 294.668 220.742 299.015 209.344 C 301.906 201.761 302.248 186.294 299.710 177.869 C 296.339 166.680 285.513 155.258 274.153 150.905 C 267.113 148.208 250.821 147.378 244.000 149.369 M 265.000 176.045 C 269.471 178.294 272.500 181.558 274.452 186.232 C 276.632 191.448 276.389 194.827 273.403 200.818 C 266.377 214.918 247.623 214.918 240.597 200.818 C 237.611 194.827 237.368 191.448 239.548 186.232 C 241.420 181.751 244.476 178.342 248.494 176.253 C 255.174 172.780 258.429 172.739 265.000 176.045 " fill="#ffffff"/>
  </g>
</svg>
