<?xml version='1.0' encoding='utf-8'?>
<!DOCTYPE svg PUBLIC "-//W3C//DTD SVG 20010904//EN" "http://www.w3.org/TR/2001/REC-SVG-20010904/DTD/svg10.dtd">
<svg xmlns="http://www.w3.org/2000/svg" version="1.0" width="256px" height="256px" viewBox="0 0 512 512" style="" preserveAspectRatio="xMidYMid meet">
  <g fill="#ffffff" stroke="#FFFFFFFF">
    <path d="M 334.020 10.270 C 329.880 12.389 329.031 15.512 329.015 28.673 L 329.000 40.845 315.525 41.173 C 303.065 41.475 301.878 41.672 299.775 43.777 L 297.500 46.055 297.230 115.485 L 296.960 184.915 267.506 185.207 C 238.376 185.497 238.028 185.525 235.776 187.777 L 233.500 190.055 233.232 267.527 L 232.964 345.000 225.000 345.000 L 217.036 345.000 216.768 267.527 L 216.500 190.055 214.222 187.777 L 211.944 185.500 121.000 185.500 L 30.056 185.500 27.778 187.778 L 25.500 190.055 25.240 339.528 L 24.981 489.000 16.990 489.000 L 9.000 489.000 9.000 497.000 L 9.000 505.000 257.000 505.000 L 505.000 505.000 505.000 497.000 L 505.000 489.000 497.018 489.000 L 489.036 489.000 488.768 411.527 L 488.500 334.055 486.309 331.865 C 484.750 330.305 482.520 329.542 478.570 329.214 L 473.020 328.754 472.760 187.405 L 472.500 46.055 470.225 43.778 C 468.123 41.673 466.933 41.475 454.551 41.174 L 441.152 40.848 440.826 27.449 C 440.525 15.068 440.327 13.877 438.223 11.775 L 435.946 9.500 386.223 9.250 C 347.599 9.056 335.946 9.283 334.020 10.270 M 201.000 272.962 L 201.000 344.923 167.527 345.212 C 134.209 345.499 134.043 345.511 131.777 347.777 L 129.500 350.055 129.230 419.527 L 128.960 489.000 84.980 489.000 L 41.000 489.000 41.000 345.000 L 41.000 201.000 121.000 201.000 L 201.000 201.000 201.000 272.962 M 473.000 417.000 L 473.000 489.000 421.000 489.000 L 369.000 489.000 369.000 417.000 L 369.000 345.000 421.000 345.000 L 473.000 345.000 473.000 417.000 M 273.000 409.000 L 273.000 457.000 209.000 457.000 L 145.000 457.000 145.000 409.000 L 145.000 361.000 209.000 361.000 L 273.000 361.000 273.000 409.000 M 425.173 38.475 C 425.616 56.727 425.273 56.384 443.525 56.827 L 457.000 57.155 457.000 65.077 L 457.000 73.000 385.000 73.000 L 313.000 73.000 313.000 65.077 L 313.000 57.155 326.475 56.827 C 344.727 56.384 344.384 56.727 344.827 38.475 L 345.155 25.000 385.000 25.000 L 424.845 25.000 425.173 38.475 M 353.000 457.000 L 353.000 489.000 321.000 489.000 L 289.000 489.000 289.000 457.000 L 289.000 425.000 321.000 425.000 L 353.000 425.000 353.000 457.000 M 393.000 233.000 L 393.000 265.000 361.000 265.000 L 329.000 265.000 329.000 233.000 L 329.000 201.000 361.000 201.000 L 393.000 201.000 393.000 233.000 M 313.000 233.000 L 313.000 265.000 281.000 265.000 L 249.000 265.000 249.000 233.000 L 249.000 201.000 281.000 201.000 L 313.000 201.000 313.000 233.000 M 457.000 209.000 L 457.000 329.000 449.000 329.000 L 441.000 329.000 441.000 209.000 L 441.000 89.000 449.000 89.000 L 457.000 89.000 457.000 209.000 M 425.000 209.000 L 425.000 329.000 417.000 329.000 L 409.000 329.000 409.000 209.000 L 409.000 89.000 417.000 89.000 L 425.000 89.000 425.000 209.000 M 313.000 345.000 L 313.000 377.000 301.077 377.000 L 289.155 377.000 288.827 363.525 C 288.372 344.802 289.342 345.597 266.475 345.186 L 249.000 344.871 249.000 328.936 L 249.000 313.000 281.000 313.000 L 313.000 313.000 313.000 345.000 M 393.000 289.000 L 393.000 297.000 321.000 297.000 L 249.000 297.000 249.000 289.000 L 249.000 281.000 321.000 281.000 L 393.000 281.000 393.000 289.000 M 393.000 320.936 L 393.000 328.871 375.525 329.186 C 351.815 329.612 353.593 327.516 353.195 355.526 L 352.890 377.000 340.945 377.000 L 329.000 377.000 329.000 345.000 L 329.000 313.000 361.000 313.000 L 393.000 313.000 393.000 320.936 M 273.000 481.000 L 273.000 489.000 209.000 489.000 L 145.000 489.000 145.000 481.000 L 145.000 473.000 209.000 473.000 L 273.000 473.000 273.000 481.000 M 393.000 137.000 L 393.000 185.000 385.000 185.000 L 377.000 185.000 377.000 137.000 L 377.000 89.000 385.000 89.000 L 393.000 89.000 393.000 137.000 M 361.000 137.000 L 361.000 185.000 353.000 185.000 L 345.000 185.000 345.000 137.000 L 345.000 89.000 353.000 89.000 L 361.000 89.000 361.000 137.000 M 329.000 137.000 L 329.000 185.000 321.000 185.000 L 313.000 185.000 313.000 137.000 L 313.000 89.000 321.000 89.000 L 329.000 89.000 329.000 137.000 M 353.000 401.000 L 353.000 409.000 321.000 409.000 L 289.000 409.000 289.000 401.000 L 289.000 393.000 321.000 393.000 L 353.000 393.000 353.000 401.000 " fill="#ffffff"/>
  </g>
  <g fill="#ffffff" stroke="#FFFFFFFF">
    <path d="M 250.821 10.373 C 238.433 13.767 231.068 26.324 234.324 38.500 L 235.661 43.500 211.760 67.578 L 187.859 91.656 182.430 90.273 C 177.807 89.096 176.192 89.096 171.565 90.274 L 166.130 91.659 154.237 79.579 L 142.344 67.500 143.674 62.500 C 147.542 47.953 136.307 33.667 121.000 33.667 C 105.622 33.667 94.478 47.922 98.321 62.677 L 99.669 67.853 83.584 83.756 L 67.500 99.658 62.500 98.328 C 47.955 94.457 33.667 105.692 33.667 121.000 C 33.667 139.522 53.928 150.624 69.813 140.806 C 77.880 135.821 82.158 124.840 79.672 115.500 L 78.342 110.500 94.238 94.421 L 110.135 78.343 115.568 79.726 C 120.194 80.905 121.807 80.904 126.435 79.726 L 131.870 78.341 143.763 90.421 L 155.656 102.500 154.326 107.500 C 150.458 122.047 161.693 136.333 177.000 136.333 C 192.376 136.333 203.522 122.078 199.680 107.326 L 198.333 102.152 222.416 78.246 L 246.500 54.339 251.500 55.671 C 268.095 60.092 283.557 45.023 279.905 27.991 C 277.138 15.090 263.579 6.877 250.821 10.373 M 62.686 115.174 C 67.843 120.019 64.240 129.000 57.140 129.000 C 52.360 129.000 49.000 125.756 49.000 121.140 C 49.000 113.870 57.399 110.208 62.686 115.174 M 182.686 107.174 C 187.843 112.019 184.240 121.000 177.140 121.000 C 172.360 121.000 169.000 117.756 169.000 113.140 C 169.000 105.870 177.399 102.208 182.686 107.174 M 126.686 51.174 C 131.843 56.019 128.240 65.000 121.140 65.000 C 116.360 65.000 113.000 61.756 113.000 57.140 C 113.000 49.870 121.399 46.208 126.686 51.174 M 262.686 27.174 C 267.843 32.019 264.240 41.000 257.140 41.000 C 252.360 41.000 249.000 37.756 249.000 33.140 C 249.000 25.870 257.399 22.208 262.686 27.174 " fill="#ffffff"/>
  </g>
  <g fill="#ffffff" stroke="#FFFFFFFF">
    <path d="M 166.020 378.267 C 161.237 380.720 160.959 382.580 161.239 410.224 C 161.495 435.493 161.540 435.988 163.778 438.224 L 166.056 440.500 209.000 440.500 L 251.944 440.500 254.222 438.222 C 256.480 435.965 256.500 435.706 256.500 409.000 C 256.500 382.297 256.480 382.035 254.223 379.778 L 251.946 377.500 210.223 377.248 C 178.015 377.053 167.934 377.285 166.020 378.267 M 241.000 409.000 L 241.000 425.000 229.000 425.000 L 217.000 425.000 217.000 409.000 L 217.000 393.000 229.000 393.000 L 241.000 393.000 241.000 409.000 M 201.000 409.000 L 201.000 425.000 189.000 425.000 L 177.000 425.000 177.000 409.000 L 177.000 393.000 189.000 393.000 L 201.000 393.000 201.000 409.000 " fill="#ffffff"/>
  </g>
  <g fill="#ffffff" stroke="#FFFFFFFF">
    <path d="M 70.020 410.251 C 65.434 412.633 64.941 415.100 65.231 434.225 C 65.593 458.094 63.892 456.500 89.000 456.500 C 114.290 456.500 112.500 458.290 112.500 433.000 C 112.500 407.892 114.094 409.593 90.225 409.231 C 77.262 409.035 71.834 409.309 70.020 410.251 M 97.000 433.000 L 97.000 441.000 89.000 441.000 L 81.000 441.000 81.000 433.000 L 81.000 425.000 89.000 425.000 L 97.000 425.000 97.000 433.000 " fill="#ffffff"/>
  </g>
  <g fill="#ffffff" stroke="#FFFFFFFF">
    <path d="M 70.020 346.251 C 65.434 348.633 64.941 351.100 65.231 370.225 C 65.593 394.094 63.892 392.500 89.000 392.500 C 114.290 392.500 112.500 394.290 112.500 369.000 C 112.500 343.892 114.094 345.593 90.225 345.231 C 77.262 345.035 71.834 345.309 70.020 346.251 M 97.000 369.000 L 97.000 377.000 89.000 377.000 L 81.000 377.000 81.000 369.000 L 81.000 361.000 89.000 361.000 L 97.000 361.000 97.000 369.000 " fill="#ffffff"/>
  </g>
  <g fill="#ffffff" stroke="#FFFFFFFF">
    <path d="M 134.020 282.251 C 129.434 284.633 128.941 287.100 129.231 306.225 C 129.593 330.094 127.892 328.500 153.000 328.500 C 178.290 328.500 176.500 330.290 176.500 305.000 C 176.500 279.892 178.094 281.593 154.225 281.231 C 141.262 281.035 135.834 281.309 134.020 282.251 M 161.000 305.000 L 161.000 313.000 153.000 313.000 L 145.000 313.000 145.000 305.000 L 145.000 297.000 153.000 297.000 L 161.000 297.000 161.000 305.000 " fill="#ffffff"/>
  </g>
  <g fill="#ffffff" stroke="#FFFFFFFF">
    <path d="M 70.020 282.251 C 65.434 284.633 64.941 287.100 65.231 306.225 C 65.593 330.094 63.892 328.500 89.000 328.500 C 114.290 328.500 112.500 330.290 112.500 305.000 C 112.500 279.892 114.094 281.593 90.225 281.231 C 77.262 281.035 71.834 281.309 70.020 282.251 M 97.000 305.000 L 97.000 313.000 89.000 313.000 L 81.000 313.000 81.000 305.000 L 81.000 297.000 89.000 297.000 L 97.000 297.000 97.000 305.000 " fill="#ffffff"/>
  </g>
  <g fill="#ffffff" stroke="#FFFFFFFF">
    <path d="M 134.020 218.251 C 129.434 220.633 128.941 223.100 129.231 242.225 C 129.593 266.094 127.892 264.500 153.000 264.500 C 178.290 264.500 176.500 266.290 176.500 241.000 C 176.500 215.892 178.094 217.593 154.225 217.231 C 141.262 217.035 135.834 217.309 134.020 218.251 M 161.000 241.000 L 161.000 249.000 153.000 249.000 L 145.000 249.000 145.000 241.000 L 145.000 233.000 153.000 233.000 L 161.000 233.000 161.000 241.000 " fill="#ffffff"/>
  </g>
  <g fill="#ffffff" stroke="#FFFFFFFF">
    <path d="M 70.020 218.251 C 65.434 220.633 64.941 223.100 65.231 242.225 C 65.593 266.094 63.892 264.500 89.000 264.500 C 114.290 264.500 112.500 266.290 112.500 241.000 C 112.500 215.892 114.094 217.593 90.225 217.231 C 77.262 217.035 71.834 217.309 70.020 218.251 M 97.000 241.000 L 97.000 249.000 89.000 249.000 L 81.000 249.000 81.000 241.000 L 81.000 233.000 89.000 233.000 L 97.000 233.000 97.000 241.000 " fill="#ffffff"/>
  </g>
  <g fill="#ffffff" stroke="#FFFFFFFF">
    <path d="M 385.000 449.000 L 385.000 457.000 421.000 457.000 L 457.000 457.000 457.000 449.000 L 457.000 441.000 421.000 441.000 L 385.000 441.000 385.000 449.000 " fill="#ffffff"/>
  </g>
  <g fill="#ffffff" stroke="#FFFFFFFF">
    <path d="M 385.000 417.000 L 385.000 425.000 421.000 425.000 L 457.000 425.000 457.000 417.000 L 457.000 409.000 421.000 409.000 L 385.000 409.000 385.000 417.000 " fill="#ffffff"/>
  </g>
  <g fill="#ffffff" stroke="#FFFFFFFF">
    <path d="M 385.000 385.000 L 385.000 393.000 421.000 393.000 L 457.000 393.000 457.000 385.000 L 457.000 377.000 421.000 377.000 L 385.000 377.000 385.000 385.000 " fill="#ffffff"/>
  </g>
</svg>
