<?xml version='1.0' encoding='utf-8'?>
<!DOCTYPE svg PUBLIC "-//W3C//DTD SVG 20010904//EN" "http://www.w3.org/TR/2001/REC-SVG-20010904/DTD/svg10.dtd">
<svg xmlns="http://www.w3.org/2000/svg" version="1.0" width="512px" height="512px" viewBox="0 0 514 514" style="" preserveAspectRatio="xMidYMid meet">
  <g fill="#ffffff" stroke="#000000FF">
    <path d="M 438.500 310.881 C 431.046 314.304 428.000 320.130 428.000 330.968 L 428.000 338.000 377.750 338.036 L 327.500 338.073 278.000 373.066 C 250.775 392.312 226.923 409.871 224.996 412.086 L 221.492 416.114 185.496 394.926 C 140.450 368.411 140.769 368.564 130.429 368.528 C 123.384 368.504 121.605 368.885 116.429 371.530 C 112.508 373.534 109.360 376.098 107.133 379.103 L 103.766 383.646 98.633 382.259 C 89.175 379.704 77.616 382.204 70.301 388.388 C 65.649 392.320 61.787 400.833 61.630 407.504 C 61.558 410.525 61.344 412.997 61.154 412.998 C 60.964 412.999 58.296 412.270 55.226 411.377 C 43.607 408.000 29.785 411.760 22.489 420.284 C 15.540 428.403 14.262 440.663 19.324 450.653 C 21.961 455.856 28.758 462.789 33.757 465.374 C 35.399 466.223 62.209 477.286 93.334 489.959 L 149.927 513.000 228.885 513.000 L 307.844 513.000 367.672 488.554 L 427.500 464.108 428.049 472.304 C 428.809 483.660 431.469 488.209 439.254 491.462 C 442.164 492.677 447.190 492.995 463.218 492.978 C 488.628 492.951 492.298 491.711 496.462 481.746 C 497.801 478.541 498.000 468.089 498.000 401.000 C 498.000 333.911 497.801 323.459 496.462 320.254 C 494.390 315.296 492.258 313.066 487.500 310.881 C 484.032 309.288 480.774 309.044 463.000 309.044 C 445.226 309.044 441.968 309.288 438.500 310.881 M 427.758 400.628 L 427.500 456.256 368.000 480.596 L 308.500 504.936 229.000 504.966 L 149.500 504.996 93.012 481.980 C 58.612 467.964 35.151 457.858 33.012 456.135 C 17.387 443.546 21.691 422.262 40.750 417.867 C 44.678 416.961 47.196 416.933 50.750 417.756 C 53.363 418.360 78.791 428.337 107.258 439.927 L 159.016 461.000 204.758 460.956 C 245.259 460.917 251.050 460.717 255.303 459.206 C 261.623 456.961 331.729 412.027 332.539 409.702 C 333.233 407.710 331.466 405.000 329.473 405.000 C 328.768 405.000 313.185 414.678 294.845 426.506 C 276.505 438.335 259.461 449.093 256.969 450.412 C 247.527 455.413 237.955 454.664 231.002 448.383 C 221.497 439.795 222.015 425.022 232.162 415.304 C 233.998 413.546 256.871 397.008 282.991 378.554 L 330.481 345.000 379.249 345.000 L 428.017 345.000 427.758 400.628 M 485.750 317.991 C 491.113 321.543 491.000 319.756 491.000 401.000 C 491.000 484.390 491.245 481.232 484.522 484.423 C 479.875 486.628 446.647 486.715 441.432 484.536 C 434.790 481.761 435.000 484.491 435.000 400.933 C 435.000 317.893 434.773 320.885 441.321 317.573 C 445.745 315.336 482.261 315.679 485.750 317.991 M 100.503 390.469 C 102.155 391.142 124.205 403.845 149.503 418.699 C 174.802 433.554 196.850 446.391 198.500 447.227 C 200.150 448.063 206.129 449.329 211.786 450.040 C 217.444 450.751 222.844 451.919 223.786 452.635 C 225.205 453.712 219.967 453.942 193.342 453.968 L 161.184 454.000 115.898 435.590 C 65.560 415.127 68.528 416.955 69.225 406.843 C 70.217 392.426 85.570 384.389 100.503 390.469 M 139.876 377.168 C 141.184 377.651 159.189 387.985 179.890 400.132 L 217.526 422.217 217.430 432.859 L 217.334 443.500 209.774 442.339 C 202.432 441.211 200.902 440.408 156.607 414.426 C 131.523 399.713 111.000 387.181 111.000 386.577 C 111.000 385.214 115.311 380.498 118.419 378.461 C 123.162 375.353 133.311 374.742 139.876 377.168 " fill="#ffffff"/>
  </g>
  <g fill="#ffffff" stroke="#000000FF">
    <path d="M 249.000 276.175 C 238.283 279.220 232.098 290.223 235.015 301.054 C 236.533 306.694 243.039 313.362 248.503 314.879 C 253.908 316.380 390.890 316.436 396.277 314.940 C 400.560 313.751 406.437 308.990 408.465 305.067 C 414.256 293.869 407.804 279.202 395.751 276.168 C 389.796 274.668 254.279 274.675 249.000 276.175 M 397.033 284.517 C 404.842 288.556 404.998 301.385 397.301 306.602 C 394.614 308.423 391.567 308.500 322.500 308.500 L 250.500 308.500 247.248 306.180 C 243.038 303.177 241.833 300.802 241.833 295.502 C 241.833 290.608 244.047 286.587 247.893 284.497 C 251.940 282.297 392.777 282.316 397.033 284.517 " fill="#ffffff"/>
  </g>
  <g fill="#ffffff" stroke="#000000FF">
    <path d="M 245.204 162.128 C 238.549 165.422 234.000 172.862 234.000 180.453 C 234.000 185.436 238.525 193.399 243.197 196.637 L 247.328 199.500 320.865 199.769 L 394.402 200.038 399.451 197.566 C 414.016 190.433 414.391 169.866 400.093 162.324 L 395.685 160.000 322.593 160.001 C 250.064 160.002 249.467 160.018 245.204 162.128 M 399.577 171.235 C 402.496 174.421 403.000 175.689 403.000 179.850 C 403.000 183.342 402.383 185.514 400.832 187.486 C 396.407 193.112 398.006 193.000 322.282 192.998 C 257.823 192.997 252.238 192.864 249.071 191.248 C 242.010 187.648 239.627 179.825 243.562 173.164 C 247.342 166.766 244.150 167.000 323.827 167.262 L 396.154 167.500 399.577 171.235 " fill="#ffffff"/>
  </g>
  <g fill="#ffffff" stroke="#000000FF">
    <path d="M 246.491 45.865 C 239.452 49.063 234.025 57.207 234.006 64.601 C 233.989 70.931 239.081 78.980 245.018 82.009 C 248.810 83.944 251.007 84.000 322.500 84.000 C 393.993 84.000 396.190 83.944 399.982 82.009 C 411.243 76.264 414.115 60.896 405.716 51.330 C 398.998 43.678 403.182 44.044 322.500 44.044 C 254.992 44.044 250.250 44.158 246.491 45.865 M 395.364 52.379 C 405.164 56.473 405.811 71.015 396.393 75.484 C 393.631 76.795 383.553 77.000 322.003 77.000 C 243.429 77.000 247.390 77.316 243.499 70.729 C 239.626 64.173 242.057 56.328 249.071 52.752 C 252.238 51.136 257.823 51.003 322.282 51.002 C 379.325 51.000 392.667 51.252 395.364 52.379 " fill="#ffffff"/>
  </g>
  <g fill="#ffffff" stroke="#000000FF">
    <path d="M 161.748 117.585 C 161.427 117.907 157.475 125.721 152.966 134.950 L 144.769 151.729 129.135 153.977 C 106.091 157.291 106.548 157.169 106.202 160.098 C 105.956 162.175 108.196 164.852 118.952 175.339 C 129.485 185.609 131.991 188.585 131.956 190.781 C 131.931 192.276 130.637 200.695 129.079 209.488 C 127.520 218.282 126.450 226.010 126.700 226.661 C 127.820 229.580 131.099 228.552 147.115 220.258 L 164.026 211.500 181.070 220.325 C 194.842 227.456 198.391 228.920 199.557 227.952 C 201.552 226.297 201.338 222.907 198.078 204.511 L 195.245 188.522 208.623 175.664 C 218.332 166.332 222.000 162.164 222.000 160.462 C 222.000 159.173 221.620 157.883 221.155 157.596 C 220.690 157.308 211.984 155.858 201.809 154.372 L 183.309 151.671 174.658 134.335 C 168.163 121.319 165.550 117.000 164.170 117.000 C 163.160 117.000 162.070 117.263 161.748 117.585 M 171.521 144.042 C 176.478 154.037 179.063 158.209 180.492 158.520 C 181.596 158.760 188.518 159.846 195.872 160.934 C 203.227 162.021 209.434 163.100 209.665 163.331 C 209.896 163.562 205.003 168.727 198.792 174.809 L 187.500 185.867 190.199 201.651 C 191.684 210.332 192.776 217.557 192.628 217.706 C 192.479 217.854 186.400 214.831 179.118 210.988 C 171.837 207.145 165.034 204.000 164.000 204.000 C 162.966 204.000 156.163 207.145 148.882 210.988 C 141.600 214.831 135.517 217.851 135.364 217.697 C 135.211 217.544 136.274 210.278 137.728 201.551 L 140.371 185.683 129.107 174.753 C 122.912 168.742 118.048 163.618 118.299 163.367 C 118.550 163.117 124.773 162.021 132.128 160.934 C 139.482 159.846 146.404 158.760 147.508 158.520 C 148.937 158.209 151.522 154.037 156.479 144.042 C 160.309 136.319 163.694 130.000 164.000 130.000 C 164.306 130.000 167.691 136.319 171.521 144.042 " fill="#ffffff"/>
  </g>
  <g fill="#ffffff" stroke="#000000FF">
    <path d="M 162.372 1.765 C 161.751 2.169 157.538 9.925 153.009 19.000 C 148.480 28.075 144.642 35.646 144.480 35.824 C 144.318 36.002 136.606 37.235 127.342 38.563 C 118.079 39.891 109.488 41.216 108.250 41.508 C 103.463 42.636 105.530 46.058 119.285 59.786 L 132.571 73.044 129.446 91.434 C 126.330 109.775 126.345 113.000 129.545 113.000 C 130.340 113.000 138.247 109.175 147.116 104.500 C 155.985 99.825 163.587 96.000 164.011 96.000 C 164.434 96.000 172.055 99.853 180.945 104.563 C 189.836 109.272 197.873 112.981 198.805 112.804 C 201.454 112.303 201.312 107.143 198.156 89.341 L 195.292 73.181 208.646 59.855 C 222.467 46.062 224.549 42.624 219.750 41.521 C 218.513 41.236 209.877 39.867 200.560 38.478 C 191.242 37.089 183.531 35.851 183.422 35.726 C 183.314 35.602 179.520 28.075 174.991 19.000 C 167.600 4.191 165.667 1.031 164.000 1.031 C 163.725 1.031 162.992 1.361 162.372 1.765 M 171.058 27.545 C 174.548 34.995 177.876 41.480 178.452 41.957 C 179.028 42.433 186.250 43.802 194.500 45.000 C 202.750 46.197 209.725 47.414 210.000 47.704 C 210.275 47.994 205.341 53.126 199.037 59.107 L 187.573 69.983 190.166 85.742 C 191.592 94.409 192.622 101.654 192.454 101.841 C 192.287 102.029 185.817 98.879 178.075 94.841 L 164.000 87.500 149.925 94.841 C 142.183 98.879 135.660 101.994 135.429 101.763 C 135.199 101.532 136.131 95.078 137.501 87.421 C 138.871 79.765 139.993 72.668 139.996 71.652 C 139.998 70.600 135.256 65.264 129.000 59.278 C 122.950 53.489 118.000 48.412 118.000 47.998 C 118.000 47.583 121.263 46.769 125.250 46.189 C 129.238 45.609 136.242 44.598 140.817 43.942 L 149.133 42.750 156.301 28.375 C 160.243 20.469 163.748 14.000 164.090 14.000 C 164.432 14.000 167.568 20.095 171.058 27.545 " fill="#ffffff"/>
  </g>
  <g fill="#ffffff" stroke="#000000FF">
    <path d="M 160.632 235.189 C 159.810 236.460 155.840 244.238 151.811 252.473 L 144.484 267.445 126.437 270.044 C 116.510 271.473 107.851 272.974 107.194 273.380 C 103.943 275.389 106.234 278.745 119.361 291.202 L 132.721 303.882 129.515 322.340 C 126.248 341.147 126.291 344.000 129.840 344.000 C 130.797 344.000 138.897 340.158 147.840 335.462 L 164.099 326.924 180.242 335.506 C 189.121 340.227 197.311 343.956 198.443 343.794 C 201.467 343.362 201.423 339.875 198.155 320.687 L 195.292 303.873 208.636 291.187 C 221.787 278.685 224.031 275.379 220.750 273.342 C 220.063 272.915 211.400 271.426 201.500 270.033 L 183.500 267.500 175.000 250.500 C 168.261 237.023 166.047 233.435 164.313 233.189 C 162.898 232.987 161.599 233.693 160.632 235.189 M 171.277 259.528 C 176.040 269.087 178.676 273.296 180.259 273.872 C 181.492 274.321 188.350 275.485 195.500 276.459 C 202.650 277.433 208.886 278.460 209.358 278.741 C 209.830 279.022 205.125 284.358 198.902 290.598 L 187.588 301.945 190.191 317.222 C 191.622 325.625 192.600 332.702 192.364 332.950 C 192.127 333.197 185.649 330.126 177.967 326.124 L 164.000 318.849 150.033 326.124 C 142.351 330.126 135.859 333.192 135.605 332.939 C 135.352 332.685 136.321 325.599 137.760 317.193 L 140.376 301.908 128.988 290.487 C 122.724 284.206 117.802 278.892 118.050 278.679 C 118.297 278.465 124.575 277.483 132.000 276.495 C 139.425 275.508 146.508 274.330 147.741 273.878 C 149.321 273.299 151.968 269.071 156.723 259.528 C 160.432 252.088 163.706 246.000 164.000 246.000 C 164.294 246.000 167.568 252.088 171.277 259.528 " fill="#ffffff"/>
  </g>
  <g fill="#ffffff" stroke="#000000FF">
    <path d="M 455.637 433.405 C 441.343 438.722 437.504 457.769 448.624 468.197 C 462.992 481.670 486.271 469.585 483.592 450.044 C 481.849 437.323 467.717 428.912 455.637 433.405 M 468.793 440.992 C 474.151 443.424 477.497 449.833 476.416 455.594 C 475.550 460.211 470.123 465.699 465.580 466.551 C 449.793 469.513 442.835 447.522 457.458 440.880 C 462.522 438.580 463.499 438.590 468.793 440.992 " fill="#ffffff"/>
  </g>
</svg>
